GeezHandwritingDots.ufo
<glyph name="numbersign" format="2">
  <advance width="1331"/>
  <unicode hex="0023"/>
  <outline>
    <contour>
      <point x="869.99" y="1309.08" type="curve" smooth="yes"/>
      <point x="869.99" y="1274.08"/>
      <point x="851.947" y="1257.06"/>
      <point x="816.947" y="1257.06" type="curve" smooth="yes"/>
      <point x="781.947" y="1257.06"/>
      <point x="765.952" y="1274.08"/>
      <point x="765.952" y="1309.08" type="curve" smooth="yes"/>
      <point x="765.952" y="1343.08"/>
      <point x="781.947" y="1361.92"/>
      <point x="816.947" y="1361.92" type="curve" smooth="yes"/>
      <point x="851.947" y="1361.92"/>
      <point x="869.99" y="1343.08"/>
    </contour>
    <contour>
      <point x="1163.06" y="905.011" type="curve" smooth="yes"/>
      <point x="1163.06" y="870.011"/>
      <point x="1145.02" y="851.968"/>
      <point x="1110.02" y="851.968" type="curve" smooth="yes"/>
      <point x="1075.02" y="851.968"/>
      <point x="1059.02" y="870.011"/>
      <point x="1059.02" y="905.011" type="curve" smooth="yes"/>
      <point x="1059.02" y="940.011"/>
      <point x="1075.02" y="956.006"/>
      <point x="1110.02" y="956.006" type="curve" smooth="yes"/>
      <point x="1145.02" y="956.006"/>
      <point x="1163.06" y="940.011"/>
    </contour>
    <contour>
      <point x="869.99" y="1104.08" type="curve" smooth="yes"/>
      <point x="869.99" y="1069.08"/>
      <point x="851.947" y="1053.08"/>
      <point x="816.947" y="1053.08" type="curve" smooth="yes"/>
      <point x="781.947" y="1053.08"/>
      <point x="765.952" y="1069.08"/>
      <point x="765.952" y="1104.08" type="curve" smooth="yes"/>
      <point x="765.952" y="1139.08"/>
      <point x="781.947" y="1156.92"/>
      <point x="816.947" y="1156.92" type="curve" smooth="yes"/>
      <point x="851.947" y="1156.92"/>
      <point x="869.99" y="1139.08"/>
    </contour>
    <contour>
      <point x="461.005" y="1309.08" type="curve" smooth="yes"/>
      <point x="461.005" y="1274.08"/>
      <point x="441.962" y="1257.06"/>
      <point x="407.962" y="1257.06" type="curve" smooth="yes"/>
      <point x="372.962" y="1257.06"/>
      <point x="355.943" y="1274.08"/>
      <point x="355.943" y="1309.08" type="curve" smooth="yes"/>
      <point x="355.943" y="1343.08"/>
      <point x="372.962" y="1361.92"/>
      <point x="407.962" y="1361.92" type="curve" smooth="yes"/>
      <point x="441.962" y="1361.92"/>
      <point x="461.005" y="1343.08"/>
    </contour>
    <contour>
      <point x="869.99" y="899.072" type="curve" smooth="yes"/>
      <point x="869.99" y="864.072"/>
      <point x="851.947" y="848.077"/>
      <point x="816.947" y="848.077" type="curve" smooth="yes"/>
      <point x="781.947" y="848.077"/>
      <point x="765.952" y="864.072"/>
      <point x="765.952" y="899.072" type="curve" smooth="yes" name=".hr01"/>
      <point x="765.952" y="934.072"/>
      <point x="781.947" y="951.911"/>
      <point x="816.947" y="951.911" type="curve" smooth="yes"/>
      <point x="851.947" y="951.911"/>
      <point x="869.99" y="934.072"/>
    </contour>
    <contour>
      <point x="1190.09" y="496.026" type="curve" smooth="yes"/>
      <point x="1190.09" y="461.026"/>
      <point x="1174.1" y="441.959"/>
      <point x="1139.1" y="441.959" type="curve" smooth="yes"/>
      <point x="1104.1" y="441.959"/>
      <point x="1085.03" y="461.026"/>
      <point x="1085.03" y="496.026" type="curve" smooth="yes"/>
      <point x="1085.03" y="530.026"/>
      <point x="1104.1" y="547.021"/>
      <point x="1139.1" y="547.021" type="curve" smooth="yes"/>
      <point x="1174.1" y="547.021"/>
      <point x="1190.09" y="530.026"/>
    </contour>
    <contour>
      <point x="676.045" y="905.011" type="curve" smooth="yes"/>
      <point x="676.045" y="870.011"/>
      <point x="659.049" y="851.968"/>
      <point x="625.049" y="851.968" type="curve" smooth="yes"/>
      <point x="590.049" y="851.968"/>
      <point x="570.982" y="870.011"/>
      <point x="570.982" y="905.011" type="curve" smooth="yes"/>
      <point x="570.982" y="940.011"/>
      <point x="590.049" y="956.006" name=".hr02"/>
      <point x="625.049" y="956.006" type="curve" smooth="yes"/>
      <point x="659.049" y="956.006"/>
      <point x="676.045" y="940.011"/>
    </contour>
    <contour>
      <point x="869.99" y="694.067" type="curve" smooth="yes"/>
      <point x="869.99" y="659.067"/>
      <point x="851.947" y="643.072"/>
      <point x="816.947" y="643.072" type="curve" smooth="yes"/>
      <point x="781.947" y="643.072"/>
      <point x="765.952" y="659.067"/>
      <point x="765.952" y="694.067" type="curve" smooth="yes"/>
      <point x="765.952" y="729.067"/>
      <point x="781.947" y="747.93"/>
      <point x="816.947" y="747.93" type="curve" smooth="yes"/>
      <point x="851.947" y="747.93"/>
      <point x="869.99" y="729.067"/>
    </contour>
    <contour>
      <point x="461.005" y="1104.08" type="curve" smooth="yes"/>
      <point x="461.005" y="1069.08"/>
      <point x="441.962" y="1053.08"/>
      <point x="407.962" y="1053.08" type="curve" smooth="yes"/>
      <point x="372.962" y="1053.08"/>
      <point x="355.943" y="1069.08"/>
      <point x="355.943" y="1104.08" type="curve" smooth="yes"/>
      <point x="355.943" y="1139.08"/>
      <point x="372.962" y="1156.92"/>
      <point x="407.962" y="1156.92" type="curve" smooth="yes"/>
      <point x="441.962" y="1156.92"/>
      <point x="461.005" y="1139.08"/>
    </contour>
    <contour>
      <point x="461.005" y="899.072" type="curve" smooth="yes"/>
      <point x="461.005" y="864.072"/>
      <point x="441.962" y="848.077"/>
      <point x="407.962" y="848.077" type="curve" smooth="yes"/>
      <point x="372.962" y="848.077"/>
      <point x="355.943" y="864.072"/>
      <point x="355.943" y="899.072" type="curve" smooth="yes"/>
      <point x="355.943" y="934.072"/>
      <point x="372.962" y="951.911"/>
      <point x="407.962" y="951.911" type="curve" smooth="yes"/>
      <point x="441.962" y="951.911"/>
      <point x="461.005" y="934.072" name=".hr03"/>
    </contour>
    <contour>
      <point x="869.99" y="489.062" type="curve" smooth="yes"/>
      <point x="869.99" y="455.062"/>
      <point x="851.947" y="438.067"/>
      <point x="816.947" y="438.067" type="curve" smooth="yes"/>
      <point x="781.947" y="438.067"/>
      <point x="765.952" y="455.062"/>
      <point x="765.952" y="489.062" type="curve" smooth="yes"/>
      <point x="765.952" y="524.062"/>
      <point x="781.947" y="542.925"/>
      <point x="816.947" y="542.925" type="curve" smooth="yes"/>
      <point x="851.947" y="542.925"/>
      <point x="869.99" y="524.062"/>
    </contour>
    <contour>
      <point x="681.984" y="489.062" type="curve" smooth="yes"/>
      <point x="681.984" y="455.062"/>
      <point x="663.941" y="438.067"/>
      <point x="628.941" y="438.067" type="curve" smooth="yes"/>
      <point x="593.941" y="438.067"/>
      <point x="577.946" y="455.062"/>
      <point x="577.946" y="489.062" type="curve" smooth="yes"/>
      <point x="577.946" y="524.062"/>
      <point x="593.941" y="542.925"/>
      <point x="628.941" y="542.925" type="curve" smooth="yes"/>
      <point x="663.941" y="542.925"/>
      <point x="681.984" y="524.062"/>
    </contour>
    <contour>
      <point x="461.005" y="694.067" type="curve" smooth="yes"/>
      <point x="461.005" y="659.067"/>
      <point x="441.962" y="643.072"/>
      <point x="407.962" y="643.072" type="curve" smooth="yes"/>
      <point x="372.962" y="643.072"/>
      <point x="355.943" y="659.067"/>
      <point x="355.943" y="694.067" type="curve" smooth="yes"/>
      <point x="355.943" y="729.067"/>
      <point x="372.962" y="747.93"/>
      <point x="407.962" y="747.93" type="curve" smooth="yes"/>
      <point x="441.962" y="747.93"/>
      <point x="461.005" y="729.067"/>
    </contour>
    <contour>
      <point x="869.99" y="285.082" type="curve" smooth="yes"/>
      <point x="869.99" y="250.082"/>
      <point x="851.947" y="233.063"/>
      <point x="816.947" y="233.063" type="curve" smooth="yes"/>
      <point x="781.947" y="233.063"/>
      <point x="765.952" y="250.082"/>
      <point x="765.952" y="285.082" type="curve" smooth="yes"/>
      <point x="765.952" y="319.082"/>
      <point x="781.947" y="337.92"/>
      <point x="816.947" y="337.92" type="curve" smooth="yes"/>
      <point x="851.947" y="337.92"/>
      <point x="869.99" y="319.082"/>
    </contour>
    <contour>
      <point x="177.971" y="908.903" type="curve" smooth="yes"/>
      <point x="177.971" y="873.903"/>
      <point x="159.928" y="856.064"/>
      <point x="124.928" y="856.064" type="curve" smooth="yes"/>
      <point x="89.928" y="856.064"/>
      <point x="73.9328" y="873.903"/>
      <point x="73.9328" y="908.903" type="curve" smooth="yes"/>
      <point x="73.9328" y="943.903"/>
      <point x="89.928" y="960.922"/>
      <point x="124.928" y="960.922" type="curve" smooth="yes"/>
      <point x="159.928" y="960.922"/>
      <point x="177.971" y="943.903"/>
    </contour>
    <contour>
      <point x="869.99" y="80.0768" type="curve" smooth="yes"/>
      <point x="869.99" y="45.0768"/>
      <point x="851.947" y="29.0815"/>
      <point x="816.947" y="29.0815" type="curve" smooth="yes"/>
      <point x="781.947" y="29.0815"/>
      <point x="765.952" y="45.0768"/>
      <point x="765.952" y="80.0768" type="curve" smooth="yes"/>
      <point x="765.952" y="115.077"/>
      <point x="781.947" y="132.915"/>
      <point x="816.947" y="132.915" type="curve" smooth="yes"/>
      <point x="851.947" y="132.915"/>
      <point x="869.99" y="115.077"/>
    </contour>
    <contour>
      <point x="461.005" y="489.062" type="curve" smooth="yes"/>
      <point x="461.005" y="455.062"/>
      <point x="441.962" y="438.067"/>
      <point x="407.962" y="438.067" type="curve" smooth="yes"/>
      <point x="372.962" y="438.067"/>
      <point x="355.943" y="455.062"/>
      <point x="355.943" y="489.062" type="curve" smooth="yes"/>
      <point x="355.943" y="524.062"/>
      <point x="372.962" y="542.925"/>
      <point x="407.962" y="542.925" type="curve" smooth="yes"/>
      <point x="441.962" y="542.925"/>
      <point x="461.005" y="524.062"/>
    </contour>
    <contour>
      <point x="461.005" y="285.082" type="curve" smooth="yes"/>
      <point x="461.005" y="250.082"/>
      <point x="441.962" y="233.063"/>
      <point x="407.962" y="233.063" type="curve" smooth="yes"/>
      <point x="372.962" y="233.063"/>
      <point x="355.943" y="250.082"/>
      <point x="355.943" y="285.082" type="curve" smooth="yes"/>
      <point x="355.943" y="319.082"/>
      <point x="372.962" y="337.92"/>
      <point x="407.962" y="337.92" type="curve" smooth="yes"/>
      <point x="441.962" y="337.92"/>
      <point x="461.005" y="319.082"/>
    </contour>
    <contour>
      <point x="177.971" y="499.917" type="curve" smooth="yes"/>
      <point x="177.971" y="464.917"/>
      <point x="159.928" y="446.054"/>
      <point x="124.928" y="446.054" type="curve" smooth="yes"/>
      <point x="89.928" y="446.054"/>
      <point x="73.9328" y="464.917"/>
      <point x="73.9328" y="499.917" type="curve" smooth="yes"/>
      <point x="73.9328" y="534.917"/>
      <point x="89.928" y="550.912"/>
      <point x="124.928" y="550.912" type="curve" smooth="yes"/>
      <point x="159.928" y="550.912"/>
      <point x="177.971" y="534.917"/>
    </contour>
    <contour>
      <point x="461.005" y="80.0768" type="curve" smooth="yes"/>
      <point x="461.005" y="45.0768"/>
      <point x="441.962" y="29.0815"/>
      <point x="407.962" y="29.0815" type="curve" smooth="yes"/>
      <point x="372.962" y="29.0815"/>
      <point x="355.943" y="45.0768"/>
      <point x="355.943" y="80.0768" type="curve" smooth="yes"/>
      <point x="355.943" y="115.077"/>
      <point x="372.962" y="132.915" name=".hr04"/>
      <point x="407.962" y="132.915" type="curve" smooth="yes"/>
      <point x="441.962" y="132.915"/>
      <point x="461.005" y="115.077"/>
    </contour>
  </outline>
</glyph>
<glyph name="percent" format="2">
  <advance width="1126"/>
  <unicode hex="0025"/>
  <outline>
    <contour>
      <point x="910.951" y="1239.04" type="curve" smooth="yes"/>
      <point x="910.951" y="1204.04"/>
      <point x="894.955" y="1186"/>
      <point x="859.955" y="1186" type="curve" smooth="yes"/>
      <point x="824.955" y="1186"/>
      <point x="806.912" y="1204.04"/>
      <point x="806.912" y="1239.04" type="curve" smooth="yes"/>
      <point x="806.912" y="1274.04"/>
      <point x="824.955" y="1290.04"/>
      <point x="859.955" y="1290.04" type="curve" smooth="yes"/>
      <point x="894.955" y="1290.04"/>
      <point x="910.951" y="1274.04"/>
    </contour>
    <contour>
      <point x="826.982" y="1061.07" type="curve" smooth="yes"/>
      <point x="826.982" y="1026.07" name=".hr01"/>
      <point x="808.939" y="1008.03"/>
      <point x="773.939" y="1008.03" type="curve" smooth="yes"/>
      <point x="738.939" y="1008.03"/>
      <point x="722.944" y="1026.07" name=".hr02"/>
      <point x="722.944" y="1061.07" type="curve" smooth="yes" name=".hr03"/>
      <point x="722.944" y="1096.07"/>
      <point x="738.939" y="1112.06"/>
      <point x="773.939" y="1112.06" type="curve" smooth="yes" name=".hr04"/>
      <point x="808.939" y="1112.06"/>
      <point x="826.982" y="1096.07"/>
    </contour>
    <contour>
      <point x="552.96" y="1135" type="curve" smooth="yes" name=".hr05"/>
      <point x="552.96" y="1100"/>
      <point x="534.917" y="1080.93"/>
      <point x="499.917" y="1080.93" type="curve" smooth="yes"/>
      <point x="464.917" y="1080.93"/>
      <point x="448.922" y="1100"/>
      <point x="448.922" y="1135" type="curve" smooth="yes"/>
      <point x="448.922" y="1169"/>
      <point x="464.917" y="1186"/>
      <point x="499.917" y="1186" type="curve" smooth="yes"/>
      <point x="534.917" y="1186"/>
      <point x="552.96" y="1169"/>
    </contour>
    <contour>
      <point x="387.072" y="1242.93" type="curve" smooth="yes"/>
      <point x="387.072" y="1207.93"/>
      <point x="369.029" y="1190.09"/>
      <point x="334.029" y="1190.09" type="curve" smooth="yes"/>
      <point x="299.029" y="1190.09" name=".hr06"/>
      <point x="283.033" y="1207.93" name=".hr07"/>
      <point x="283.033" y="1242.93" type="curve" smooth="yes"/>
      <point x="283.033" y="1277.93"/>
      <point x="299.029" y="1293.93" name=".hr08"/>
      <point x="334.029" y="1293.93" type="curve" smooth="yes"/>
      <point x="369.029" y="1293.93"/>
      <point x="387.072" y="1277.93" name=".hr09"/>
    </contour>
    <contour>
      <point x="738.919" y="876.953" type="curve" smooth="yes"/>
      <point x="738.919" y="841.953"/>
      <point x="721.08" y="823.091"/>
      <point x="686.08" y="823.091" type="curve" smooth="yes"/>
      <point x="651.08" y="823.091"/>
      <point x="635.085" y="841.953"/>
      <point x="635.085" y="876.953" type="curve" smooth="yes"/>
      <point x="635.085" y="910.953"/>
      <point x="651.08" y="927.949"/>
      <point x="686.08" y="927.949" type="curve" smooth="yes"/>
      <point x="721.08" y="927.949"/>
      <point x="738.919" y="910.953"/>
    </contour>
    <contour>
      <point x="524.083" y="951.911" type="curve" smooth="yes"/>
      <point x="524.083" y="917.911"/>
      <point x="506.04" y="899.072"/>
      <point x="471.04" y="899.072" type="curve" smooth="yes"/>
      <point x="436.04" y="899.072"/>
      <point x="420.045" y="917.911"/>
      <point x="420.045" y="951.911" type="curve" smooth="yes"/>
      <point x="420.045" y="986.911" name=".hr10"/>
      <point x="436.04" y="1003.93"/>
      <point x="471.04" y="1003.93" type="curve" smooth="yes"/>
      <point x="506.04" y="1003.93"/>
      <point x="524.083" y="986.911"/>
    </contour>
    <contour>
      <point x="223.027" y="1155.07" type="curve" smooth="yes"/>
      <point x="223.027" y="1120.07"/>
      <point x="207.032" y="1104.08"/>
      <point x="172.032" y="1104.08" type="curve" smooth="yes"/>
      <point x="137.032" y="1104.08"/>
      <point x="118.989" y="1120.07"/>
      <point x="118.989" y="1155.07" type="curve" smooth="yes"/>
      <point x="118.989" y="1190.07"/>
      <point x="137.032" y="1207.91"/>
      <point x="172.032" y="1207.91" type="curve" smooth="yes"/>
      <point x="207.032" y="1207.91"/>
      <point x="223.027" y="1190.07"/>
    </contour>
    <contour>
      <point x="643.072" y="673.997" type="curve" smooth="yes"/>
      <point x="643.072" y="638.997" name=".hr11"/>
      <point x="627.077" y="620.954" name=".hr12"/>
      <point x="592.077" y="620.954" type="curve" smooth="yes"/>
      <point x="557.077" y="620.954"/>
      <point x="539.034" y="638.997" name=".hr13"/>
      <point x="539.034" y="673.997" type="curve" smooth="yes"/>
      <point x="539.034" y="708.997"/>
      <point x="557.077" y="724.992"/>
      <point x="592.077" y="724.992" type="curve" smooth="yes"/>
      <point x="627.077" y="724.992"/>
      <point x="643.072" y="708.997"/>
    </contour>
    <contour>
      <point x="983.04" y="326.042" type="curve" smooth="yes"/>
      <point x="983.04" y="291.042"/>
      <point x="964.997" y="271.975"/>
      <point x="929.997" y="271.975" type="curve" smooth="yes"/>
      <point x="894.997" y="271.975"/>
      <point x="879.001" y="291.042"/>
      <point x="879.001" y="326.042" type="curve" smooth="yes"/>
      <point x="879.001" y="360.042"/>
      <point x="894.997" y="377.037"/>
      <point x="929.997" y="377.037" type="curve" smooth="yes"/>
      <point x="964.997" y="377.037"/>
      <point x="983.04" y="360.042"/>
    </contour>
    <contour>
      <point x="387.072" y="883.097" type="curve" smooth="yes"/>
      <point x="387.072" y="848.097"/>
      <point x="369.029" y="829.03"/>
      <point x="334.029" y="829.03" type="curve" smooth="yes"/>
      <point x="299.029" y="829.03"/>
      <point x="283.033" y="848.097"/>
      <point x="283.033" y="883.097" type="curve" smooth="yes"/>
      <point x="283.033" y="918.097"/>
      <point x="299.029" y="934.093"/>
      <point x="334.029" y="934.093" type="curve" smooth="yes"/>
      <point x="369.029" y="934.093"/>
      <point x="387.072" y="918.097"/>
    </contour>
    <contour>
      <point x="816.947" y="433.971" type="curve" smooth="yes"/>
      <point x="816.947" y="398.971"/>
      <point x="798.904" y="382.976"/>
      <point x="763.904" y="382.976" type="curve" smooth="yes"/>
      <point x="728.904" y="382.976"/>
      <point x="712.909" y="398.971"/>
      <point x="712.909" y="433.971" type="curve" smooth="yes"/>
      <point x="712.909" y="468.971"/>
      <point x="728.904" y="487.015"/>
      <point x="763.904" y="487.015" type="curve" smooth="yes"/>
      <point x="798.904" y="487.015"/>
      <point x="816.947" y="468.971" name=".hr14"/>
    </contour>
    <contour>
      <point x="226.919" y="986.931" type="curve" smooth="yes" name=".hr15"/>
      <point x="226.919" y="951.931"/>
      <point x="209.08" y="934.093"/>
      <point x="174.08" y="934.093" type="curve" smooth="yes" name=".hr16"/>
      <point x="139.08" y="934.093"/>
      <point x="123.085" y="951.931"/>
      <point x="123.085" y="986.931" type="curve" smooth="yes" name=".hr17"/>
      <point x="123.085" y="1021.93"/>
      <point x="139.08" y="1037.93"/>
      <point x="174.08" y="1037.93" type="curve" smooth="yes"/>
      <point x="209.08" y="1037.93"/>
      <point x="226.919" y="1021.93"/>
    </contour>
    <contour>
      <point x="953.958" y="142.951" type="curve" smooth="yes"/>
      <point x="953.958" y="108.951"/>
      <point x="935.915" y="89.9073"/>
      <point x="900.915" y="89.9073" type="curve" smooth="yes"/>
      <point x="865.915" y="89.9073"/>
      <point x="849.92" y="108.951"/>
      <point x="849.92" y="142.951" type="curve" smooth="yes"/>
      <point x="849.92" y="177.951"/>
      <point x="865.915" y="194.969"/>
      <point x="900.915" y="194.969" type="curve" smooth="yes"/>
      <point x="935.915" y="194.969"/>
      <point x="953.958" y="177.951"/>
    </contour>
    <contour>
      <point x="558.899" y="479.027" type="curve" smooth="yes"/>
      <point x="558.899" y="444.027"/>
      <point x="541.061" y="425.984"/>
      <point x="506.061" y="425.984" type="curve" smooth="yes"/>
      <point x="471.061" y="425.984"/>
      <point x="455.065" y="444.027"/>
      <point x="455.065" y="479.027" type="curve" smooth="yes"/>
      <point x="455.065" y="514.027"/>
      <point x="471.061" y="530.023"/>
      <point x="506.061" y="530.023" type="curve" smooth="yes"/>
      <point x="541.061" y="530.023"/>
      <point x="558.899" y="514.027"/>
    </contour>
    <contour>
      <point x="652.903" y="345.907" type="curve" smooth="yes"/>
      <point x="652.903" y="310.907"/>
      <point x="636.907" y="294.912"/>
      <point x="601.907" y="294.912" type="curve" smooth="yes" name=".hr18"/>
      <point x="566.907" y="294.912"/>
      <point x="549.069" y="310.907"/>
      <point x="549.069" y="345.907" type="curve" smooth="yes"/>
      <point x="549.069" y="380.907"/>
      <point x="566.907" y="398.951"/>
      <point x="601.907" y="398.951" type="curve" smooth="yes"/>
      <point x="636.907" y="398.951"/>
      <point x="652.903" y="380.907"/>
    </contour>
    <contour>
      <point x="816.947" y="73.9327" type="curve" smooth="yes" name=".hr19"/>
      <point x="816.947" y="38.9327"/>
      <point x="798.904" y="22.9375" name=".hr20"/>
      <point x="763.904" y="22.9375" type="curve" smooth="yes"/>
      <point x="728.904" y="22.9375"/>
      <point x="712.909" y="38.9327"/>
      <point x="712.909" y="73.9327" type="curve" smooth="yes"/>
      <point x="712.909" y="108.933"/>
      <point x="728.904" y="126.976"/>
      <point x="763.904" y="126.976" type="curve" smooth="yes"/>
      <point x="798.904" y="126.976"/>
      <point x="816.947" y="108.933"/>
    </contour>
    <contour>
      <point x="656.998" y="177.971" type="curve" smooth="yes"/>
      <point x="656.998" y="142.971"/>
      <point x="638.955" y="124.928"/>
      <point x="603.955" y="124.928" type="curve" smooth="yes"/>
      <point x="568.955" y="124.928"/>
      <point x="552.96" y="142.971"/>
      <point x="552.96" y="177.971" type="curve" smooth="yes"/>
      <point x="552.96" y="212.971"/>
      <point x="568.955" y="228.967"/>
      <point x="603.955" y="228.967" type="curve" smooth="yes"/>
      <point x="638.955" y="228.967"/>
      <point x="656.998" y="212.971"/>
    </contour>
    <contour>
      <point x="456.909" y="263.987" type="curve" smooth="yes"/>
      <point x="456.909" y="228.987"/>
      <point x="438.047" y="210.944"/>
      <point x="403.047" y="210.944" type="curve" smooth="yes"/>
      <point x="369.047" y="210.944"/>
      <point x="352.051" y="228.987"/>
      <point x="352.051" y="263.987" type="curve" smooth="yes" name=".hr21"/>
      <point x="352.051" y="298.987"/>
      <point x="369.047" y="314.982"/>
      <point x="403.047" y="314.982" type="curve" smooth="yes"/>
      <point x="438.047" y="314.982"/>
      <point x="456.909" y="298.987"/>
    </contour>
    <contour>
      <point x="354.099" y="45.056" type="curve" smooth="yes"/>
      <point x="354.099" y="10.056"/>
      <point x="337.899" y="-7.98725"/>
      <point x="302.899" y="-7.98725" type="curve" smooth="yes"/>
      <point x="267.899" y="-7.98725"/>
      <point x="250.061" y="10.056" name=".hr22"/>
      <point x="250.061" y="45.056" type="curve" smooth="yes"/>
      <point x="250.061" y="80.056" name=".hr23"/>
      <point x="267.899" y="96.0512"/>
      <point x="302.899" y="96.0512" type="curve" smooth="yes"/>
      <point x="337.899" y="96.0512" name=".hr24"/>
      <point x="354.099" y="80.056"/>
    </contour>
  </outline>
</glyph>
<glyph name="quotesingle" format="2">
  <advance width="307"/>
  <unicode hex="0027"/>
  <outline>
    <contour>
      <point x="212.992" y="1275.9" type="curve" smooth="yes"/>
      <point x="212.992" y="1240.9"/>
      <point x="194.949" y="1223.07"/>
      <point x="159.949" y="1223.07" type="curve" smooth="yes"/>
      <point x="124.949" y="1223.07"/>
      <point x="108.954" y="1240.9"/>
      <point x="108.954" y="1275.9" type="curve" smooth="yes"/>
      <point x="108.954" y="1310.9"/>
      <point x="124.949" y="1326.9"/>
      <point x="159.949" y="1326.9" type="curve" smooth="yes"/>
      <point x="194.949" y="1326.9"/>
      <point x="212.992" y="1310.9"/>
    </contour>
    <contour>
      <point x="212.992" y="1070.9" type="curve" smooth="yes"/>
      <point x="212.992" y="1035.9"/>
      <point x="194.949" y="1018.06"/>
      <point x="159.949" y="1018.06" type="curve" smooth="yes"/>
      <point x="124.949" y="1018.06"/>
      <point x="108.954" y="1035.9"/>
      <point x="108.954" y="1070.9" type="curve" smooth="yes"/>
      <point x="108.954" y="1105.9"/>
      <point x="124.949" y="1122.1"/>
      <point x="159.949" y="1122.1" type="curve" smooth="yes"/>
      <point x="194.949" y="1122.1"/>
      <point x="212.992" y="1105.9"/>
    </contour>
  </outline>
</glyph>
<glyph name="asterisk" format="2">
  <advance width="1024"/>
  <unicode hex="002A"/>
  <outline>
    <contour>
      <point x="763.904" y="1158.96" type="curve" smooth="yes"/>
      <point x="763.904" y="1123.96"/>
      <point x="745.065" y="1105.92"/>
      <point x="711.065" y="1105.92" type="curve" smooth="yes"/>
      <point x="676.065" y="1105.92"/>
      <point x="659.046" y="1123.96"/>
      <point x="659.046" y="1158.96" type="curve" smooth="yes"/>
      <point x="659.046" y="1193.96"/>
      <point x="676.065" y="1209.96"/>
      <point x="711.065" y="1209.96" type="curve" smooth="yes"/>
      <point x="745.065" y="1209.96"/>
      <point x="763.904" y="1193.96"/>
    </contour>
    <contour>
      <point x="560.947" y="1264.03" type="curve" smooth="yes"/>
      <point x="560.947" y="1229.03"/>
      <point x="542.904" y="1209.96"/>
      <point x="507.904" y="1209.96" type="curve" smooth="yes"/>
      <point x="472.904" y="1209.96"/>
      <point x="456.909" y="1229.03"/>
      <point x="456.909" y="1264.03" type="curve" smooth="yes"/>
      <point x="456.909" y="1298.03"/>
      <point x="472.904" y="1315.02"/>
      <point x="507.904" y="1315.02" type="curve" smooth="yes"/>
      <point x="542.904" y="1315.02"/>
      <point x="560.947" y="1298.03"/>
    </contour>
    <contour>
      <point x="768" y="927.949" type="curve" smooth="yes"/>
      <point x="768" y="892.949"/>
      <point x="749.957" y="874.086"/>
      <point x="714.957" y="874.086" type="curve" smooth="yes"/>
      <point x="679.957" y="874.086"/>
      <point x="663.962" y="892.949"/>
      <point x="663.962" y="927.949" type="curve" smooth="yes"/>
      <point x="663.962" y="962.949"/>
      <point x="679.957" y="978.944"/>
      <point x="714.957" y="978.944" type="curve" smooth="yes"/>
      <point x="749.957" y="978.944"/>
      <point x="768" y="962.949"/>
    </contour>
    <contour>
      <point x="565.043" y="1044.07" type="curve" smooth="yes"/>
      <point x="565.043" y="1010.07"/>
      <point x="547" y="991.027"/>
      <point x="512" y="991.027" type="curve" smooth="yes"/>
      <point x="477" y="991.027"/>
      <point x="461.005" y="1010.07"/>
      <point x="461.005" y="1044.07" type="curve" smooth="yes"/>
      <point x="461.005" y="1079.07"/>
      <point x="477" y="1096.09"/>
      <point x="512" y="1096.09" type="curve" smooth="yes"/>
      <point x="547" y="1096.09"/>
      <point x="565.043" y="1079.07"/>
    </contour>
    <contour>
      <point x="371.098" y="1155.07" type="curve" smooth="yes"/>
      <point x="371.098" y="1120.07"/>
      <point x="352.031" y="1102.03"/>
      <point x="317.031" y="1102.03" type="curve" smooth="yes"/>
      <point x="283.031" y="1102.03"/>
      <point x="266.035" y="1120.07"/>
      <point x="266.035" y="1155.07" type="curve" smooth="yes" name=".hr01"/>
      <point x="266.035" y="1190.07"/>
      <point x="283.031" y="1206.07"/>
      <point x="317.031" y="1206.07" type="curve" smooth="yes"/>
      <point x="352.031" y="1206.07"/>
      <point x="371.098" y="1190.07"/>
    </contour>
    <contour>
      <point x="568.935" y="805.069" type="curve" smooth="yes"/>
      <point x="568.935" y="770.069"/>
      <point x="551.096" y="752.025"/>
      <point x="516.096" y="752.025" type="curve" smooth="yes"/>
      <point x="481.096" y="752.025"/>
      <point x="465.101" y="770.069"/>
      <point x="465.101" y="805.069" type="curve" smooth="yes"/>
      <point x="465.101" y="840.069"/>
      <point x="481.096" y="856.064"/>
      <point x="516.096" y="856.064" type="curve" smooth="yes"/>
      <point x="551.096" y="856.064"/>
      <point x="568.935" y="840.069"/>
    </contour>
    <contour>
      <point x="362.086" y="922.01" type="curve" smooth="yes"/>
      <point x="362.086" y="887.01"/>
      <point x="344.043" y="867.943"/>
      <point x="309.043" y="867.943" type="curve" smooth="yes"/>
      <point x="274.043" y="867.943"/>
      <point x="258.048" y="887.01"/>
      <point x="258.048" y="922.01" type="curve" smooth="yes" name=".hr02"/>
      <point x="258.048" y="956.01"/>
      <point x="274.043" y="973.005"/>
      <point x="309.043" y="973.005" type="curve" smooth="yes"/>
      <point x="344.043" y="973.005"/>
      <point x="362.086" y="956.01"/>
    </contour>
  </outline>
</glyph>
<glyph name="comma" format="2">
  <advance width="307"/>
  <unicode hex="002C"/>
  <outline>
    <contour>
      <point x="192.921" y="83.968" type="curve" smooth="yes"/>
      <point x="192.921" y="48.968"/>
      <point x="174.059" y="30.9248"/>
      <point x="139.059" y="30.9248" type="curve" smooth="yes"/>
      <point x="104.059" y="30.9248"/>
      <point x="88.064" y="48.968"/>
      <point x="88.064" y="83.968" type="curve" smooth="yes"/>
      <point x="88.064" y="118.968"/>
      <point x="104.059" y="134.963"/>
      <point x="139.059" y="134.963" type="curve" smooth="yes"/>
      <point x="174.059" y="134.963"/>
      <point x="192.921" y="118.968"/>
    </contour>
    <contour>
      <point x="149.913" y="-73.9327" type="curve" smooth="yes"/>
      <point x="149.913" y="-108.933" name=".hr01"/>
      <point x="131.051" y="-124.928"/>
      <point x="96.0512" y="-124.928" type="curve" smooth="yes"/>
      <point x="61.0512" y="-124.928"/>
      <point x="45.056" y="-108.933"/>
      <point x="45.056" y="-73.9327" type="curve" smooth="yes"/>
      <point x="45.056" y="-38.9327"/>
      <point x="61.0512" y="-20.0705"/>
      <point x="96.0512" y="-20.0705" type="curve" smooth="yes"/>
      <point x="131.051" y="-20.0705"/>
      <point x="149.913" y="-38.9327"/>
    </contour>
  </outline>
</glyph>
<glyph name="hyphen" format="2">
  <advance width="1024"/>
  <unicode hex="002D"/>
  <outline>
    <contour>
      <point x="872.039" y="687.923" type="curve" smooth="yes"/>
      <point x="872.039" y="652.923"/>
      <point x="853.995" y="636.928"/>
      <point x="818.995" y="636.928" type="curve" smooth="yes"/>
      <point x="783.995" y="636.928"/>
      <point x="768" y="652.923"/>
      <point x="768" y="687.923" type="curve" smooth="yes"/>
      <point x="768" y="722.923"/>
      <point x="783.995" y="740.967"/>
      <point x="818.995" y="740.967" type="curve" smooth="yes"/>
      <point x="853.995" y="740.967"/>
      <point x="872.038" y="722.923"/>
    </contour>
    <contour>
      <point x="668.057" y="687.923" type="curve" smooth="yes"/>
      <point x="668.057" y="652.923"/>
      <point x="648.99" y="636.928"/>
      <point x="613.99" y="636.928" type="curve" smooth="yes"/>
      <point x="579.99" y="636.928"/>
      <point x="562.995" y="652.923"/>
      <point x="562.995" y="687.923" type="curve" smooth="yes"/>
      <point x="562.995" y="722.923"/>
      <point x="579.99" y="740.967"/>
      <point x="613.99" y="740.967" type="curve" smooth="yes"/>
      <point x="648.99" y="740.967"/>
      <point x="668.057" y="722.923"/>
    </contour>
    <contour>
      <point x="463.053" y="687.923" type="curve" smooth="yes"/>
      <point x="463.053" y="652.923"/>
      <point x="444.01" y="636.928"/>
      <point x="410.01" y="636.928" type="curve" smooth="yes"/>
      <point x="375.01" y="636.928"/>
      <point x="357.991" y="652.923"/>
      <point x="357.991" y="687.923" type="curve" smooth="yes"/>
      <point x="357.991" y="722.923"/>
      <point x="375.01" y="740.967"/>
      <point x="410.01" y="740.967" type="curve" smooth="yes"/>
      <point x="444.01" y="740.967"/>
      <point x="463.053" y="722.923"/>
    </contour>
    <contour>
      <point x="258.048" y="687.923" type="curve" smooth="yes"/>
      <point x="258.048" y="652.923"/>
      <point x="240.005" y="636.928"/>
      <point x="205.005" y="636.928" type="curve" smooth="yes"/>
      <point x="170.005" y="636.928"/>
      <point x="154.01" y="652.923"/>
      <point x="154.01" y="687.923" type="curve" smooth="yes"/>
      <point x="154.01" y="722.923"/>
      <point x="170.005" y="740.967"/>
      <point x="205.005" y="740.967" type="curve" smooth="yes"/>
      <point x="240.005" y="740.967"/>
      <point x="258.048" y="722.923"/>
    </contour>
  </outline>
</glyph>
<glyph name="four" format="2">
  <advance width="1024"/>
  <unicode hex="0034"/>
  <outline>
    <contour>
      <point x="811.008" y="1282.05" type="curve" smooth="yes"/>
      <point x="811.008" y="1247.05"/>
      <point x="792.965" y="1229"/>
      <point x="757.965" y="1229" type="curve" smooth="yes"/>
      <point x="722.965" y="1229"/>
      <point x="706.969" y="1247.05"/>
      <point x="706.969" y="1282.05" type="curve" smooth="yes"/>
      <point x="706.969" y="1317.05"/>
      <point x="722.965" y="1333.04"/>
      <point x="757.965" y="1333.04" type="curve" smooth="yes"/>
      <point x="792.965" y="1333.04"/>
      <point x="811.008" y="1317.05"/>
    </contour>
    <contour>
      <point x="811.008" y="1077.04" type="curve" smooth="yes"/>
      <point x="811.008" y="1042.04"/>
      <point x="792.965" y="1024"/>
      <point x="757.965" y="1024" type="curve" smooth="yes"/>
      <point x="722.965" y="1024"/>
      <point x="706.969" y="1042.04"/>
      <point x="706.969" y="1077.04" type="curve" smooth="yes"/>
      <point x="706.969" y="1112.04"/>
      <point x="722.965" y="1128.04"/>
      <point x="757.965" y="1128.04" type="curve" smooth="yes"/>
      <point x="792.965" y="1128.04"/>
      <point x="811.008" y="1112.04"/>
    </contour>
    <contour>
      <point x="811.008" y="872.039" type="curve" smooth="yes"/>
      <point x="811.008" y="838.039"/>
      <point x="792.965" y="818.995"/>
      <point x="757.965" y="818.995" type="curve" smooth="yes"/>
      <point x="722.965" y="818.995"/>
      <point x="706.969" y="838.039"/>
      <point x="706.969" y="872.039" type="curve" smooth="yes"/>
      <point x="706.969" y="907.039"/>
      <point x="722.965" y="924.058"/>
      <point x="757.965" y="924.058" type="curve" smooth="yes"/>
      <point x="792.965" y="924.058"/>
      <point x="811.008" y="907.039"/>
    </contour>
    <contour>
      <point x="996.966" y="676.045" type="curve" smooth="yes"/>
      <point x="996.966" y="641.045"/>
      <point x="978.923" y="623.001"/>
      <point x="943.923" y="623.001" type="curve" smooth="yes"/>
      <point x="908.923" y="623.001"/>
      <point x="892.928" y="641.045"/>
      <point x="892.928" y="676.045" type="curve" smooth="yes"/>
      <point x="892.928" y="711.045"/>
      <point x="908.923" y="727.04"/>
      <point x="943.923" y="727.04" type="curve" smooth="yes"/>
      <point x="978.923" y="727.04"/>
      <point x="996.966" y="711.045"/>
    </contour>
    <contour>
      <point x="811.008" y="668.057" type="curve" smooth="yes"/>
      <point x="811.008" y="633.057"/>
      <point x="792.965" y="613.99"/>
      <point x="757.965" y="613.99" type="curve" smooth="yes"/>
      <point x="722.965" y="613.99"/>
      <point x="706.969" y="633.057"/>
      <point x="706.969" y="668.057" type="curve" smooth="yes"/>
      <point x="706.969" y="702.057"/>
      <point x="722.965" y="719.053"/>
      <point x="757.965" y="719.053" type="curve" smooth="yes"/>
      <point x="792.965" y="719.053"/>
      <point x="811.008" y="702.057"/>
    </contour>
    <contour>
      <point x="233.062" y="1274.06" type="curve" smooth="yes" name=".hr01"/>
      <point x="233.062" y="1223.06"/>
      <point x="192.903" y="1181.9"/>
      <point x="140.903" y="1181.9" type="curve" smooth="yes"/>
      <point x="89.9025" y="1181.9"/>
      <point x="48.9473" y="1223.06"/>
      <point x="48.9473" y="1274.06" type="curve" smooth="yes"/>
      <point x="48.9473" y="1325.06"/>
      <point x="89.9025" y="1366.02"/>
      <point x="140.903" y="1366.02" type="curve" smooth="yes"/>
      <point x="192.903" y="1366.02"/>
      <point x="233.062" y="1325.06"/>
    </contour>
    <contour>
      <point x="811.008" y="463.053" type="curve" smooth="yes"/>
      <point x="811.008" y="428.053"/>
      <point x="792.965" y="410.01"/>
      <point x="757.965" y="410.01" type="curve" smooth="yes"/>
      <point x="722.965" y="410.01"/>
      <point x="706.969" y="428.053"/>
      <point x="706.969" y="463.053" type="curve" smooth="yes"/>
      <point x="706.969" y="498.053"/>
      <point x="722.965" y="514.048"/>
      <point x="757.965" y="514.048" type="curve" smooth="yes"/>
      <point x="792.965" y="514.048"/>
      <point x="811.008" y="498.053"/>
    </contour>
    <contour>
      <point x="600.064" y="669.901" type="curve" smooth="yes"/>
      <point x="600.064" y="634.901"/>
      <point x="582.021" y="616.039"/>
      <point x="547.021" y="616.039" type="curve" smooth="yes"/>
      <point x="512.021" y="616.039"/>
      <point x="496.026" y="634.901"/>
      <point x="496.026" y="669.901" type="curve" smooth="yes"/>
      <point x="496.026" y="704.901"/>
      <point x="512.021" y="721.101"/>
      <point x="547.021" y="721.101" type="curve" smooth="yes"/>
      <point x="582.021" y="721.101"/>
      <point x="600.064" y="704.901"/>
    </contour>
    <contour>
      <point x="190.055" y="1079.09" type="curve" smooth="yes"/>
      <point x="190.055" y="1044.09"/>
      <point x="172.011" y="1026.05"/>
      <point x="137.011" y="1026.05" type="curve" smooth="yes"/>
      <point x="102.011" y="1026.05"/>
      <point x="86.016" y="1044.09"/>
      <point x="86.016" y="1079.09" type="curve" smooth="yes"/>
      <point x="86.016" y="1114.09"/>
      <point x="102.011" y="1130.09"/>
      <point x="137.011" y="1130.09" type="curve" smooth="yes"/>
      <point x="172.011" y="1130.09"/>
      <point x="190.055" y="1114.09"/>
    </contour>
    <contour>
      <point x="811.008" y="258.048" type="curve" smooth="yes"/>
      <point x="811.008" y="223.048"/>
      <point x="792.965" y="205.005"/>
      <point x="757.965" y="205.005" type="curve" smooth="yes"/>
      <point x="722.965" y="205.005"/>
      <point x="706.969" y="223.048"/>
      <point x="706.969" y="258.048" type="curve" smooth="yes"/>
      <point x="706.969" y="293.048"/>
      <point x="722.965" y="309.043"/>
      <point x="757.965" y="309.043" type="curve" smooth="yes"/>
      <point x="792.965" y="309.043"/>
      <point x="811.008" y="293.048"/>
    </contour>
    <contour>
      <point x="395.059" y="669.901" type="curve" smooth="yes"/>
      <point x="395.059" y="634.901"/>
      <point x="377.016" y="616.039"/>
      <point x="342.016" y="616.039" type="curve" smooth="yes"/>
      <point x="307.016" y="616.039"/>
      <point x="291.021" y="634.901"/>
      <point x="291.021" y="669.901" type="curve" smooth="yes"/>
      <point x="291.021" y="704.901"/>
      <point x="307.016" y="721.101"/>
      <point x="342.016" y="721.101" type="curve" smooth="yes"/>
      <point x="377.016" y="721.101"/>
      <point x="395.059" y="704.901"/>
    </contour>
    <contour>
      <point x="190.055" y="874.086" type="curve" smooth="yes"/>
      <point x="190.055" y="840.086"/>
      <point x="172.011" y="821.043"/>
      <point x="137.011" y="821.043" type="curve" smooth="yes"/>
      <point x="102.011" y="821.043"/>
      <point x="86.016" y="840.086"/>
      <point x="86.016" y="874.086" type="curve" smooth="yes"/>
      <point x="86.016" y="909.086"/>
      <point x="102.011" y="925.901"/>
      <point x="137.011" y="925.901" type="curve" smooth="yes"/>
      <point x="172.011" y="925.901"/>
      <point x="190.055" y="909.086"/>
    </contour>
    <contour>
      <point x="811.008" y="53.0433" type="curve" smooth="yes"/>
      <point x="811.008" y="18.0433"/>
      <point x="792.965" y="0"/>
      <point x="757.965" y="0" type="curve" smooth="yes"/>
      <point x="722.965" y="0"/>
      <point x="706.969" y="18.0432"/>
      <point x="706.969" y="53.0432" type="curve" smooth="yes"/>
      <point x="706.969" y="88.0432"/>
      <point x="722.965" y="104.038"/>
      <point x="757.965" y="104.038" type="curve" smooth="yes"/>
      <point x="792.965" y="104.038"/>
      <point x="811.008" y="88.0432"/>
    </contour>
    <contour>
      <point x="190.055" y="669.901" type="curve" smooth="yes"/>
      <point x="190.055" y="634.901"/>
      <point x="172.011" y="616.039"/>
      <point x="137.011" y="616.039" type="curve" smooth="yes"/>
      <point x="102.011" y="616.039"/>
      <point x="86.016" y="634.901"/>
      <point x="86.016" y="669.901" type="curve" smooth="yes"/>
      <point x="86.016" y="704.901"/>
      <point x="102.011" y="721.101"/>
      <point x="137.011" y="721.101" type="curve" smooth="yes"/>
      <point x="172.011" y="721.101"/>
      <point x="190.055" y="704.901"/>
    </contour>
    <contour>
      <point x="212.992" y="1274.06" type="curve" smooth="yes"/>
      <point x="212.992" y="1313.06"/>
      <point x="179.903" y="1345.95"/>
      <point x="140.903" y="1345.95" type="curve" smooth="yes"/>
      <point x="101.903" y="1345.95"/>
      <point x="70.0415" y="1313.06"/>
      <point x="70.0415" y="1274.06" type="curve" smooth="yes"/>
      <point x="70.0415" y="1235.06"/>
      <point x="101.903" y="1201.97"/>
      <point x="140.903" y="1201.97" type="curve" smooth="yes"/>
      <point x="179.903" y="1201.97"/>
      <point x="212.992" y="1235.06"/>
    </contour>
  </outline>
</glyph>
<glyph name="five" format="2">
  <advance width="1024"/>
  <unicode hex="0035"/>
  <outline>
    <contour>
      <point x="824.935" y="1285.94" type="curve" smooth="yes"/>
      <point x="824.935" y="1250.94"/>
      <point x="807.096" y="1233.1"/>
      <point x="772.096" y="1233.1" type="curve" smooth="yes"/>
      <point x="737.096" y="1233.1"/>
      <point x="721.101" y="1250.94"/>
      <point x="721.101" y="1285.94" type="curve" smooth="yes"/>
      <point x="721.101" y="1320.94"/>
      <point x="737.096" y="1336.93"/>
      <point x="772.096" y="1336.93" type="curve" smooth="yes"/>
      <point x="807.096" y="1336.93"/>
      <point x="824.935" y="1320.94"/>
    </contour>
    <contour>
      <point x="620.953" y="1285.94" type="curve" smooth="yes"/>
      <point x="620.953" y="1250.94"/>
      <point x="602.091" y="1233.1"/>
      <point x="567.091" y="1233.1" type="curve" smooth="yes"/>
      <point x="532.091" y="1233.1"/>
      <point x="516.096" y="1250.94"/>
      <point x="516.096" y="1285.94" type="curve" smooth="yes"/>
      <point x="516.096" y="1320.94"/>
      <point x="532.091" y="1336.93"/>
      <point x="567.091" y="1336.93" type="curve" smooth="yes"/>
      <point x="602.091" y="1336.93"/>
      <point x="620.953" y="1320.94"/>
    </contour>
    <contour>
      <point x="415.949" y="1285.94" type="curve" smooth="yes"/>
      <point x="415.949" y="1250.94"/>
      <point x="397.087" y="1233.1"/>
      <point x="362.087" y="1233.1" type="curve" smooth="yes"/>
      <point x="328.087" y="1233.1"/>
      <point x="311.091" y="1250.94"/>
      <point x="311.091" y="1285.94" type="curve" smooth="yes"/>
      <point x="311.091" y="1320.94"/>
      <point x="328.087" y="1336.93"/>
      <point x="362.087" y="1336.93" type="curve" smooth="yes"/>
      <point x="397.087" y="1336.93"/>
      <point x="415.949" y="1320.94"/>
    </contour>
    <contour>
      <point x="268.083" y="1274.06" type="curve" smooth="yes"/>
      <point x="268.083" y="1223.06"/>
      <point x="226.923" y="1181.9"/>
      <point x="175.923" y="1181.9" type="curve" smooth="yes"/>
      <point x="124.923" y="1181.9"/>
      <point x="83.968" y="1223.06"/>
      <point x="83.968" y="1274.06" type="curve" smooth="yes"/>
      <point x="83.968" y="1325.06"/>
      <point x="124.923" y="1366.02"/>
      <point x="175.923" y="1366.02" type="curve" smooth="yes"/>
      <point x="226.923" y="1366.02"/>
      <point x="268.083" y="1325.06"/>
    </contour>
    <contour>
      <point x="780.083" y="717.005" type="curve" smooth="yes"/>
      <point x="780.083" y="682.005"/>
      <point x="764.088" y="666.01"/>
      <point x="729.088" y="666.01" type="curve" smooth="yes"/>
      <point x="694.088" y="666.01" name=".hr01"/>
      <point x="676.045" y="682.005"/>
      <point x="676.045" y="717.005" type="curve" smooth="yes"/>
      <point x="676.045" y="752.005"/>
      <point x="694.088" y="770.048"/>
      <point x="729.088" y="770.048" type="curve" smooth="yes"/>
      <point x="764.088" y="770.048"/>
      <point x="780.083" y="752.005"/>
    </contour>
    <contour>
      <point x="874.086" y="595.968" type="curve" smooth="yes"/>
      <point x="874.086" y="560.968"/>
      <point x="858.091" y="544.973"/>
      <point x="823.091" y="544.973" type="curve" smooth="yes"/>
      <point x="788.091" y="544.973"/>
      <point x="770.048" y="560.968" name=".hr02"/>
      <point x="770.048" y="595.968" type="curve" smooth="yes"/>
      <point x="770.048" y="630.968"/>
      <point x="788.091" y="649.011"/>
      <point x="823.091" y="649.011" type="curve" smooth="yes"/>
      <point x="858.091" y="649.011"/>
      <point x="874.086" y="630.968"/>
    </contour>
    <contour>
      <point x="585.933" y="797.081" type="curve" smooth="yes"/>
      <point x="585.933" y="762.081"/>
      <point x="567.07" y="743.014"/>
      <point x="532.07" y="743.014" type="curve" smooth="yes"/>
      <point x="498.07" y="743.014"/>
      <point x="481.075" y="762.081"/>
      <point x="481.075" y="797.081" type="curve" smooth="yes"/>
      <point x="481.075" y="831.081"/>
      <point x="498.07" y="848.077"/>
      <point x="532.07" y="848.077" type="curve" smooth="yes"/>
      <point x="567.07" y="848.077"/>
      <point x="585.933" y="831.081"/>
    </contour>
    <contour>
      <point x="915.047" y="455.065" type="curve" smooth="yes"/>
      <point x="915.047" y="420.065"/>
      <point x="897.003" y="400.998"/>
      <point x="862.003" y="400.998" type="curve" smooth="yes"/>
      <point x="827.003" y="400.998"/>
      <point x="811.008" y="420.065"/>
      <point x="811.008" y="455.065" type="curve" smooth="yes"/>
      <point x="811.008" y="489.065" name=".hr03"/>
      <point x="827.003" y="506.061"/>
      <point x="862.003" y="506.061" type="curve" smooth="yes"/>
      <point x="897.003" y="506.061"/>
      <point x="915.047" y="489.065"/>
    </contour>
    <contour>
      <point x="228.967" y="1070.9" type="curve" smooth="yes"/>
      <point x="228.967" y="1035.9"/>
      <point x="210.923" y="1018.06"/>
      <point x="175.923" y="1018.06" type="curve" smooth="yes"/>
      <point x="140.923" y="1018.06"/>
      <point x="124.928" y="1035.9"/>
      <point x="124.928" y="1070.9" type="curve" smooth="yes"/>
      <point x="124.928" y="1105.9"/>
      <point x="140.923" y="1122.1"/>
      <point x="175.923" y="1122.1" type="curve" smooth="yes"/>
      <point x="210.923" y="1122.1" name=".hr04"/>
      <point x="228.967" y="1105.9"/>
    </contour>
    <contour>
      <point x="388.915" y="765.952" type="curve" smooth="yes"/>
      <point x="388.915" y="730.952" name=".hr05"/>
      <point x="371.077" y="712.909"/>
      <point x="336.077" y="712.909" type="curve" smooth="yes"/>
      <point x="301.077" y="712.909"/>
      <point x="285.082" y="730.952"/>
      <point x="285.082" y="765.952" type="curve" smooth="yes" name=".hr06"/>
      <point x="285.082" y="800.952" name=".hr07"/>
      <point x="301.077" y="816.947"/>
      <point x="336.077" y="816.947" type="curve" smooth="yes"/>
      <point x="371.077" y="816.947"/>
      <point x="388.915" y="800.952"/>
    </contour>
    <contour>
      <point x="874.086" y="253.952" type="curve" smooth="yes"/>
      <point x="874.086" y="218.952"/>
      <point x="856.043" y="200.909"/>
      <point x="821.043" y="200.909" type="curve" smooth="yes"/>
      <point x="786.043" y="200.909"/>
      <point x="770.048" y="218.952"/>
      <point x="770.048" y="253.952" type="curve" smooth="yes"/>
      <point x="770.048" y="288.952"/>
      <point x="786.043" y="304.947"/>
      <point x="821.043" y="304.947" type="curve" smooth="yes"/>
      <point x="856.043" y="304.947"/>
      <point x="874.086" y="288.952"/>
    </contour>
    <contour>
      <point x="228.967" y="866.099" type="curve" smooth="yes"/>
      <point x="228.967" y="831.099"/>
      <point x="210.923" y="813.056"/>
      <point x="175.923" y="813.056" type="curve" smooth="yes"/>
      <point x="140.923" y="813.056"/>
      <point x="124.928" y="831.099"/>
      <point x="124.928" y="866.099" type="curve" smooth="yes"/>
      <point x="124.928" y="901.099"/>
      <point x="140.923" y="917.913"/>
      <point x="175.923" y="917.913" type="curve" smooth="yes"/>
      <point x="210.923" y="917.913"/>
      <point x="228.967" y="901.099"/>
    </contour>
    <contour>
      <point x="228.967" y="661.914" type="curve" smooth="yes"/>
      <point x="228.967" y="626.914" name=".hr08"/>
      <point x="210.923" y="608.051"/>
      <point x="175.923" y="608.051" type="curve" smooth="yes"/>
      <point x="140.923" y="608.051" name=".hr09"/>
      <point x="124.928" y="626.914"/>
      <point x="124.928" y="661.914" type="curve" smooth="yes"/>
      <point x="124.928" y="695.914"/>
      <point x="140.923" y="712.909"/>
      <point x="175.923" y="712.909" type="curve" smooth="yes" name=".hr10"/>
      <point x="210.923" y="712.909" name=".hr11"/>
      <point x="228.967" y="695.914"/>
    </contour>
    <contour>
      <point x="743.015" y="108.953" type="curve" smooth="yes"/>
      <point x="743.015" y="73.9535"/>
      <point x="724.971" y="55.0912" name=".hr12"/>
      <point x="689.971" y="55.0912" type="curve" smooth="yes"/>
      <point x="654.971" y="55.0912"/>
      <point x="638.976" y="73.9535" name=".hr13"/>
      <point x="638.976" y="108.953" type="curve" smooth="yes"/>
      <point x="638.976" y="142.953"/>
      <point x="654.971" y="159.949"/>
      <point x="689.971" y="159.949" type="curve" smooth="yes"/>
      <point x="724.971" y="159.949" name=".hr14"/>
      <point x="743.015" y="142.953" name=".hr15"/>
    </contour>
    <contour>
      <point x="542.925" y="53.0433" type="curve" smooth="yes"/>
      <point x="542.925" y="18.0433"/>
      <point x="524.062" y="0"/>
      <point x="489.062" y="0" type="curve" smooth="yes"/>
      <point x="455.062" y="0"/>
      <point x="438.067" y="18.0432"/>
      <point x="438.067" y="53.0432" type="curve" smooth="yes"/>
      <point x="438.067" y="88.0432"/>
      <point x="455.062" y="104.038"/>
      <point x="489.062" y="104.038" type="curve" smooth="yes"/>
      <point x="524.062" y="104.038"/>
      <point x="542.925" y="88.0432"/>
    </contour>
    <contour>
      <point x="210.944" y="266.035" type="curve" smooth="yes"/>
      <point x="210.944" y="231.035"/>
      <point x="192.901" y="212.992"/>
      <point x="157.901" y="212.992" type="curve" smooth="yes"/>
      <point x="122.901" y="212.992"/>
      <point x="106.087" y="231.035"/>
      <point x="106.087" y="266.035" type="curve" smooth="yes"/>
      <point x="106.087" y="301.035"/>
      <point x="122.901" y="317.03"/>
      <point x="157.901" y="317.03" type="curve" smooth="yes"/>
      <point x="192.901" y="317.03"/>
      <point x="210.944" y="301.035"/>
    </contour>
    <contour>
      <point x="342.016" y="111.002" type="curve" smooth="yes"/>
      <point x="342.016" y="76.0015"/>
      <point x="323.973" y="56.9345"/>
      <point x="288.973" y="56.9345" type="curve" smooth="yes" name=".hr16"/>
      <point x="253.973" y="56.9345"/>
      <point x="237.977" y="76.0015"/>
      <point x="237.977" y="111.002" type="curve" smooth="yes"/>
      <point x="237.977" y="145.002"/>
      <point x="253.973" y="161.997"/>
      <point x="288.973" y="161.997" type="curve" smooth="yes"/>
      <point x="323.973" y="161.997"/>
      <point x="342.016" y="145.002"/>
    </contour>
    <contour>
      <point x="248.013" y="1274.06" type="curve" smooth="yes"/>
      <point x="248.013" y="1313.06"/>
      <point x="214.923" y="1345.95"/>
      <point x="175.923" y="1345.95" type="curve" smooth="yes"/>
      <point x="136.923" y="1345.95"/>
      <point x="104.039" y="1313.06"/>
      <point x="104.039" y="1274.06" type="curve" smooth="yes"/>
      <point x="104.039" y="1235.06"/>
      <point x="136.923" y="1201.97"/>
      <point x="175.923" y="1201.97" type="curve" smooth="yes"/>
      <point x="214.923" y="1201.97"/>
      <point x="248.013" y="1235.06"/>
    </contour>
  </outline>
</glyph>
<glyph name="eight" format="2">
  <advance width="1024"/>
  <unicode hex="0038"/>
  <outline>
    <contour>
      <point x="925.901" y="1295.97" type="curve" smooth="yes"/>
      <point x="925.901" y="1261.97"/>
      <point x="907.039" y="1242.93"/>
      <point x="872.039" y="1242.93" type="curve" smooth="yes"/>
      <point x="838.039" y="1242.93"/>
      <point x="821.043" y="1261.97"/>
      <point x="821.043" y="1295.97" type="curve" smooth="yes"/>
      <point x="821.043" y="1330.97"/>
      <point x="838.039" y="1347.99"/>
      <point x="872.039" y="1347.99" type="curve" smooth="yes"/>
      <point x="907.039" y="1347.99"/>
      <point x="925.901" y="1330.97"/>
    </contour>
    <contour>
      <point x="829.031" y="1186" type="curve" smooth="yes"/>
      <point x="829.031" y="1151" name=".hr01"/>
      <point x="810.987" y="1132.95"/>
      <point x="775.987" y="1132.95" type="curve" smooth="yes" name=".hr02"/>
      <point x="740.987" y="1132.95"/>
      <point x="724.992" y="1151"/>
      <point x="724.992" y="1186" type="curve" smooth="yes" name=".hr03"/>
      <point x="724.992" y="1221"/>
      <point x="740.987" y="1236.99"/>
      <point x="775.987" y="1236.99" type="curve" smooth="yes" name=".hr04"/>
      <point x="810.987" y="1236.99"/>
      <point x="829.031" y="1221"/>
    </contour>
    <contour>
      <point x="721.101" y="1233.1" type="curve" smooth="yes"/>
      <point x="721.101" y="1182.1"/>
      <point x="679.941" y="1140.94"/>
      <point x="628.941" y="1140.94" type="curve" smooth="yes"/>
      <point x="577.941" y="1140.94" name=".hr05"/>
      <point x="536.986" y="1182.1"/>
      <point x="536.986" y="1233.1" type="curve" smooth="yes"/>
      <point x="536.986" y="1284.1"/>
      <point x="577.941" y="1325.06"/>
      <point x="628.941" y="1325.06" type="curve" smooth="yes"/>
      <point x="679.941" y="1325.06"/>
      <point x="721.101" y="1284.1"/>
    </contour>
    <contour>
      <point x="527.974" y="1282.05" type="curve" smooth="yes"/>
      <point x="527.974" y="1247.05"/>
      <point x="509.931" y="1229"/>
      <point x="474.931" y="1229" type="curve" smooth="yes"/>
      <point x="439.931" y="1229"/>
      <point x="423.936" y="1247.05" name=".hr06"/>
      <point x="423.936" y="1282.05" type="curve" smooth="yes"/>
      <point x="423.936" y="1317.05"/>
      <point x="439.931" y="1333.04"/>
      <point x="474.931" y="1333.04" type="curve" smooth="yes"/>
      <point x="509.931" y="1333.04"/>
      <point x="527.974" y="1317.05"/>
    </contour>
    <contour>
      <point x="730.931" y="1077.04" type="curve" smooth="yes"/>
      <point x="730.931" y="1042.04"/>
      <point x="713.093" y="1024"/>
      <point x="678.093" y="1024" type="curve" smooth="yes"/>
      <point x="643.093" y="1024"/>
      <point x="627.098" y="1042.04"/>
      <point x="627.098" y="1077.04" type="curve" smooth="yes" name=".hr07"/>
      <point x="627.098" y="1112.04"/>
      <point x="643.093" y="1128.04"/>
      <point x="678.093" y="1128.04" type="curve" smooth="yes" name=".hr08"/>
      <point x="713.093" y="1128.04"/>
      <point x="730.931" y="1112.04"/>
    </contour>
    <contour>
      <point x="623.002" y="958.055" type="curve" smooth="yes"/>
      <point x="623.002" y="924.055"/>
      <point x="603.935" y="905.011" name=".hr09"/>
      <point x="568.935" y="905.011" type="curve" smooth="yes" name=".hr10"/>
      <point x="534.935" y="905.011"/>
      <point x="517.939" y="924.055"/>
      <point x="517.939" y="958.055" type="curve" smooth="yes"/>
      <point x="517.939" y="993.055"/>
      <point x="534.935" y="1010.07"/>
      <point x="568.935" y="1010.07" type="curve" smooth="yes"/>
      <point x="603.935" y="1010.07"/>
      <point x="623.002" y="993.055"/>
    </contour>
    <contour>
      <point x="336.077" y="1204.02" type="curve" smooth="yes"/>
      <point x="336.077" y="1169.02"/>
      <point x="317.034" y="1150.98"/>
      <point x="283.034" y="1150.98" type="curve" smooth="yes"/>
      <point x="248.034" y="1150.98"/>
      <point x="231.015" y="1169.02"/>
      <point x="231.015" y="1204.02" type="curve" smooth="yes"/>
      <point x="231.015" y="1239.02"/>
      <point x="248.034" y="1255.01"/>
      <point x="283.034" y="1255.01" type="curve" smooth="yes"/>
      <point x="317.034" y="1255.01"/>
      <point x="336.077" y="1239.02"/>
    </contour>
    <contour>
      <point x="516.096" y="840.089" type="curve" smooth="yes"/>
      <point x="516.096" y="805.089"/>
      <point x="498.053" y="786.022"/>
      <point x="463.053" y="786.022" type="curve" smooth="yes"/>
      <point x="428.053" y="786.022"/>
      <point x="412.058" y="805.089"/>
      <point x="412.058" y="840.089" type="curve" smooth="yes"/>
      <point x="412.058" y="874.089"/>
      <point x="428.053" y="891.085"/>
      <point x="463.053" y="891.085" type="curve" smooth="yes"/>
      <point x="498.053" y="891.085"/>
      <point x="516.096" y="874.089" name=".hr11"/>
    </contour>
    <contour>
      <point x="253.952" y="1036.08" type="curve" smooth="yes" name=".hr12"/>
      <point x="253.952" y="1001.08"/>
      <point x="235.909" y="983.04"/>
      <point x="200.909" y="983.04" type="curve" smooth="yes" name=".hr13"/>
      <point x="165.909" y="983.04"/>
      <point x="149.913" y="1001.08"/>
      <point x="149.913" y="1036.08" type="curve" smooth="yes" name=".hr14"/>
      <point x="149.913" y="1071.08"/>
      <point x="165.909" y="1087.08"/>
      <point x="200.909" y="1087.08" type="curve" smooth="yes"/>
      <point x="235.909" y="1087.08"/>
      <point x="253.952" y="1071.08"/>
    </contour>
    <contour>
      <point x="652.903" y="603.955" type="curve" smooth="yes"/>
      <point x="652.903" y="568.955"/>
      <point x="635.064" y="550.912"/>
      <point x="600.064" y="550.912" type="curve" smooth="yes"/>
      <point x="565.064" y="550.912"/>
      <point x="549.069" y="568.955"/>
      <point x="549.069" y="603.955" type="curve" smooth="yes"/>
      <point x="549.069" y="638.955"/>
      <point x="565.064" y="654.951"/>
      <point x="600.064" y="654.951" type="curve" smooth="yes"/>
      <point x="635.064" y="654.951"/>
      <point x="652.903" y="638.955"/>
    </contour>
    <contour>
      <point x="795.034" y="461.005" type="curve" smooth="yes"/>
      <point x="795.034" y="426.005"/>
      <point x="775.967" y="407.962"/>
      <point x="740.967" y="407.962" type="curve" smooth="yes"/>
      <point x="706.967" y="407.962"/>
      <point x="689.971" y="426.005"/>
      <point x="689.971" y="461.005" type="curve" smooth="yes"/>
      <point x="689.971" y="496.005"/>
      <point x="706.967" y="512"/>
      <point x="740.967" y="512" type="curve" smooth="yes"/>
      <point x="775.967" y="512"/>
      <point x="795.034" y="496.005"/>
    </contour>
    <contour>
      <point x="428.032" y="729.088" type="curve" smooth="yes"/>
      <point x="428.032" y="694.088"/>
      <point x="409.989" y="676.045"/>
      <point x="374.989" y="676.045" type="curve" smooth="yes"/>
      <point x="339.989" y="676.045"/>
      <point x="323.994" y="694.088"/>
      <point x="323.994" y="729.088" type="curve" smooth="yes"/>
      <point x="323.994" y="764.088"/>
      <point x="339.989" y="780.083"/>
      <point x="374.989" y="780.083" type="curve" smooth="yes"/>
      <point x="409.989" y="780.083"/>
      <point x="428.032" y="764.088" name=".hr15"/>
    </contour>
    <contour>
      <point x="286.925" y="859.955" type="curve" smooth="yes"/>
      <point x="286.925" y="824.955"/>
      <point x="268.062" y="806.912"/>
      <point x="233.062" y="806.912" type="curve" smooth="yes"/>
      <point x="199.062" y="806.912"/>
      <point x="182.067" y="824.955"/>
      <point x="182.067" y="859.955" type="curve" smooth="yes"/>
      <point x="182.067" y="894.955"/>
      <point x="199.062" y="910.951"/>
      <point x="233.062" y="910.951" type="curve" smooth="yes"/>
      <point x="268.062" y="910.951"/>
      <point x="286.925" y="894.955"/>
    </contour>
    <contour>
      <point x="821.043" y="271.974" type="curve" smooth="yes"/>
      <point x="821.043" y="237.974"/>
      <point x="803" y="218.931"/>
      <point x="768" y="218.931" type="curve" smooth="yes"/>
      <point x="733" y="218.931"/>
      <point x="717.005" y="237.974"/>
      <point x="717.005" y="271.974" type="curve" smooth="yes"/>
      <point x="717.005" y="306.974"/>
      <point x="733" y="323.993"/>
      <point x="768" y="323.993" type="curve" smooth="yes"/>
      <point x="803" y="323.993"/>
      <point x="821.043" y="306.974"/>
    </contour>
    <contour>
      <point x="312.935" y="616.039" type="curve" smooth="yes"/>
      <point x="312.935" y="582.039"/>
      <point x="295.096" y="562.995"/>
      <point x="260.096" y="562.995" type="curve" smooth="yes"/>
      <point x="225.096" y="562.995"/>
      <point x="209.101" y="582.039"/>
      <point x="209.101" y="616.039" type="curve" smooth="yes"/>
      <point x="209.101" y="651.039"/>
      <point x="225.096" y="668.058"/>
      <point x="260.096" y="668.058" type="curve" smooth="yes"/>
      <point x="295.096" y="668.058"/>
      <point x="312.935" y="651.039"/>
    </contour>
    <contour>
      <point x="714.957" y="113.049" type="curve" smooth="yes"/>
      <point x="714.957" y="78.0495"/>
      <point x="695.913" y="58.9825" name=".hr16"/>
      <point x="661.913" y="58.9825" type="curve" smooth="yes"/>
      <point x="626.913" y="58.9825"/>
      <point x="610.099" y="78.0495"/>
      <point x="610.099" y="113.049" type="curve" smooth="yes"/>
      <point x="610.099" y="147.049"/>
      <point x="626.913" y="164.045"/>
      <point x="661.913" y="164.045" type="curve" smooth="yes"/>
      <point x="695.913" y="164.045"/>
      <point x="714.957" y="147.049"/>
    </contour>
    <contour>
      <point x="218.931" y="439.91" type="curve" smooth="yes"/>
      <point x="218.931" y="405.91"/>
      <point x="201.093" y="387.072"/>
      <point x="166.093" y="387.072" type="curve" smooth="yes"/>
      <point x="131.093" y="387.072"/>
      <point x="115.097" y="405.91"/>
      <point x="115.097" y="439.91" type="curve" smooth="yes"/>
      <point x="115.097" y="474.91" name=".hr17"/>
      <point x="131.093" y="491.929" name=".hr18"/>
      <point x="166.093" y="491.929" type="curve" smooth="yes"/>
      <point x="201.093" y="491.929"/>
      <point x="218.931" y="474.91" name=".hr19"/>
    </contour>
    <contour>
      <point x="519.987" y="53.0433" type="curve" smooth="yes"/>
      <point x="519.987" y="18.0433"/>
      <point x="501.944" y="0" name=".hr20"/>
      <point x="466.944" y="0" type="curve" smooth="yes"/>
      <point x="431.944" y="0"/>
      <point x="415.949" y="18.0432"/>
      <point x="415.949" y="53.0432" type="curve" smooth="yes"/>
      <point x="415.949" y="88.0432"/>
      <point x="431.944" y="104.038"/>
      <point x="466.944" y="104.038" type="curve" smooth="yes"/>
      <point x="501.944" y="104.038"/>
      <point x="519.987" y="88.0432"/>
    </contour>
    <contour>
      <point x="220.979" y="263.987" type="curve" smooth="yes"/>
      <point x="220.979" y="228.987"/>
      <point x="202.936" y="210.944"/>
      <point x="167.936" y="210.944" type="curve" smooth="yes"/>
      <point x="132.936" y="210.944"/>
      <point x="116.941" y="228.987"/>
      <point x="116.941" y="263.987" type="curve" smooth="yes"/>
      <point x="116.941" y="298.987"/>
      <point x="132.936" y="314.982"/>
      <point x="167.936" y="314.982" type="curve" smooth="yes"/>
      <point x="202.936" y="314.982"/>
      <point x="220.979" y="298.987"/>
    </contour>
    <contour>
      <point x="331.981" y="113.049" type="curve" smooth="yes"/>
      <point x="331.981" y="78.0495"/>
      <point x="312.937" y="58.9825"/>
      <point x="278.937" y="58.9825" type="curve" smooth="yes"/>
      <point x="243.937" y="58.9825"/>
      <point x="226.918" y="78.0495"/>
      <point x="226.918" y="113.049" type="curve" smooth="yes"/>
      <point x="226.918" y="147.049"/>
      <point x="243.937" y="164.045"/>
      <point x="278.937" y="164.045" type="curve" smooth="yes"/>
      <point x="312.937" y="164.045"/>
      <point x="331.981" y="147.049"/>
    </contour>
    <contour>
      <point x="700.006" y="1233.1" type="curve" smooth="yes"/>
      <point x="700.006" y="1272.1"/>
      <point x="667.941" y="1304.99"/>
      <point x="628.941" y="1304.99" type="curve" smooth="yes"/>
      <point x="589.941" y="1304.99"/>
      <point x="557.056" y="1272.1"/>
      <point x="557.056" y="1233.1" type="curve" smooth="yes"/>
      <point x="557.056" y="1194.1"/>
      <point x="589.941" y="1161.01"/>
      <point x="628.941" y="1161.01" type="curve" smooth="yes" name=".hr21"/>
      <point x="667.941" y="1161.01"/>
      <point x="700.006" y="1194.1"/>
    </contour>
  </outline>
</glyph>
<glyph name="colon" format="2">
  <advance width="307"/>
  <unicode hex="003A"/>
  <outline>
    <contour>
      <point x="169.984" y="618.086" type="curve" smooth="yes"/>
      <point x="169.984" y="580.086"/>
      <point x="150.001" y="558.899"/>
      <point x="111.001" y="558.899" type="curve" smooth="yes"/>
      <point x="72.0015" y="558.899"/>
      <point x="50.9952" y="580.086"/>
      <point x="50.9952" y="618.086" type="curve" smooth="yes"/>
      <point x="50.9952" y="657.086"/>
      <point x="72.0015" y="678.093"/>
      <point x="111.001" y="678.093" type="curve" smooth="yes"/>
      <point x="150.001" y="678.093"/>
      <point x="169.984" y="657.086"/>
    </contour>
    <contour>
      <point x="169.984" y="58.9825" type="curve" smooth="yes"/>
      <point x="169.984" y="19.9825"/>
      <point x="150.001" y="0"/>
      <point x="111.001" y="0" type="curve" smooth="yes"/>
      <point x="72.0015" y="0"/>
      <point x="50.9952" y="19.9825"/>
      <point x="50.9952" y="58.9825" type="curve" smooth="yes"/>
      <point x="50.9952" y="97.9825"/>
      <point x="72.0015" y="118.989"/>
      <point x="111.001" y="118.989" type="curve" smooth="yes"/>
      <point x="150.001" y="118.989"/>
      <point x="169.984" y="97.9825"/>
    </contour>
  </outline>
</glyph>
<glyph name="greater" format="2">
  <advance width="1024"/>
  <unicode hex="003E"/>
  <outline>
    <contour>
      <point x="808.96" y="689.971" type="curve" smooth="yes"/>
      <point x="808.96" y="654.971"/>
      <point x="792.965" y="636.928"/>
      <point x="757.965" y="636.928" type="curve" smooth="yes"/>
      <point x="722.965" y="636.928"/>
      <point x="704.922" y="654.971"/>
      <point x="704.922" y="689.971" type="curve" smooth="yes"/>
      <point x="704.922" y="724.971"/>
      <point x="722.965" y="740.967"/>
      <point x="757.965" y="740.967" type="curve" smooth="yes"/>
      <point x="792.965" y="740.967"/>
      <point x="808.96" y="724.971"/>
    </contour>
    <contour>
      <point x="633.037" y="818.995" type="curve" smooth="yes"/>
      <point x="633.037" y="783.995"/>
      <point x="613.993" y="765.952"/>
      <point x="579.993" y="765.952" type="curve" smooth="yes"/>
      <point x="544.993" y="765.952"/>
      <point x="527.974" y="783.995"/>
      <point x="527.974" y="818.995" type="curve" smooth="yes"/>
      <point x="527.974" y="853.995"/>
      <point x="544.993" y="869.99"/>
      <point x="579.993" y="869.99" type="curve" smooth="yes"/>
      <point x="613.993" y="869.99"/>
      <point x="633.037" y="853.995"/>
    </contour>
    <contour>
      <point x="481.075" y="927.949" type="curve" smooth="yes"/>
      <point x="481.075" y="892.949"/>
      <point x="463.032" y="876.953"/>
      <point x="428.032" y="876.953" type="curve" smooth="yes"/>
      <point x="393.032" y="876.953"/>
      <point x="377.037" y="892.949"/>
      <point x="377.037" y="927.949" type="curve" smooth="yes"/>
      <point x="377.037" y="962.949"/>
      <point x="393.032" y="980.992"/>
      <point x="428.032" y="980.992" type="curve" smooth="yes"/>
      <point x="463.032" y="980.992"/>
      <point x="481.075" y="962.949"/>
    </contour>
    <contour>
      <point x="329.933" y="1034.04" type="curve" smooth="yes"/>
      <point x="329.933" y="999.035"/>
      <point x="312.937" y="980.992"/>
      <point x="278.937" y="980.992" type="curve" smooth="yes"/>
      <point x="243.937" y="980.992"/>
      <point x="225.075" y="999.035"/>
      <point x="225.075" y="1034.04" type="curve" smooth="yes"/>
      <point x="225.075" y="1069.04"/>
      <point x="243.937" y="1085.03"/>
      <point x="278.937" y="1085.03" type="curve" smooth="yes"/>
      <point x="312.937" y="1085.03"/>
      <point x="329.933" y="1069.04" name=".hr01"/>
    </contour>
    <contour>
      <point x="666.01" y="584.089" type="curve" smooth="yes"/>
      <point x="666.01" y="549.089"/>
      <point x="648.991" y="532.07"/>
      <point x="613.991" y="532.07" type="curve" smooth="yes"/>
      <point x="579.991" y="532.07"/>
      <point x="560.947" y="549.089"/>
      <point x="560.947" y="584.089" type="curve" smooth="yes"/>
      <point x="560.947" y="618.089"/>
      <point x="579.991" y="636.928"/>
      <point x="613.991" y="636.928" type="curve" smooth="yes"/>
      <point x="648.991" y="636.928"/>
      <point x="666.01" y="618.089"/>
    </contour>
    <contour>
      <point x="484.966" y="450.97" type="curve" smooth="yes"/>
      <point x="484.966" y="415.97"/>
      <point x="466.923" y="398.951"/>
      <point x="431.923" y="398.951" type="curve" smooth="yes"/>
      <point x="396.923" y="398.951"/>
      <point x="380.928" y="415.97"/>
      <point x="380.928" y="450.97" type="curve" smooth="yes"/>
      <point x="380.928" y="484.97"/>
      <point x="396.923" y="504.013"/>
      <point x="431.923" y="504.013" type="curve" smooth="yes"/>
      <point x="466.923" y="504.013"/>
      <point x="484.966" y="484.97"/>
    </contour>
    <contour>
      <point x="331.981" y="342.016" type="curve" smooth="yes"/>
      <point x="331.981" y="307.016"/>
      <point x="314.985" y="288.973"/>
      <point x="280.985" y="288.973" type="curve" smooth="yes"/>
      <point x="245.985" y="288.973"/>
      <point x="226.918" y="307.016"/>
      <point x="226.918" y="342.016" type="curve" smooth="yes"/>
      <point x="226.918" y="377.016"/>
      <point x="245.985" y="393.011"/>
      <point x="280.985" y="393.011" type="curve" smooth="yes"/>
      <point x="314.985" y="393.011"/>
      <point x="331.981" y="377.016"/>
    </contour>
  </outline>
</glyph>
<glyph name="question" format="2">
  <advance width="1024"/>
  <unicode hex="003F"/>
  <outline>
    <contour>
      <point x="646.963" y="1267.92" type="curve" smooth="yes"/>
      <point x="646.963" y="1232.92"/>
      <point x="628.92" y="1216.92"/>
      <point x="593.92" y="1216.92" type="curve" smooth="yes"/>
      <point x="558.92" y="1216.92"/>
      <point x="542.925" y="1232.92"/>
      <point x="542.925" y="1267.92" type="curve" smooth="yes"/>
      <point x="542.925" y="1302.92"/>
      <point x="558.92" y="1320.96"/>
      <point x="593.92" y="1320.96" type="curve" smooth="yes"/>
      <point x="628.92" y="1320.96"/>
      <point x="646.963" y="1302.92"/>
    </contour>
    <contour>
      <point x="752.026" y="1110.02" type="curve" smooth="yes"/>
      <point x="752.026" y="1075.02"/>
      <point x="735.007" y="1056.97"/>
      <point x="700.007" y="1056.97" type="curve" smooth="yes"/>
      <point x="666.007" y="1056.97"/>
      <point x="646.963" y="1075.02"/>
      <point x="646.963" y="1110.02" type="curve" smooth="yes"/>
      <point x="646.963" y="1145.02"/>
      <point x="666.007" y="1161.01"/>
      <point x="700.007" y="1161.01" type="curve" smooth="yes"/>
      <point x="735.007" y="1161.01"/>
      <point x="752.026" y="1145.02"/>
    </contour>
    <contour>
      <point x="438.067" y="1221.02" type="curve" smooth="yes"/>
      <point x="438.067" y="1186.02"/>
      <point x="422.072" y="1166.95"/>
      <point x="387.072" y="1166.95" type="curve" smooth="yes"/>
      <point x="352.072" y="1166.95" name=".hr01"/>
      <point x="334.029" y="1186.02"/>
      <point x="334.029" y="1221.02" type="curve" smooth="yes"/>
      <point x="334.029" y="1255.02"/>
      <point x="352.072" y="1272.01"/>
      <point x="387.072" y="1272.01" type="curve" smooth="yes"/>
      <point x="422.072" y="1272.01"/>
      <point x="438.067" y="1255.02"/>
    </contour>
    <contour>
      <point x="702.055" y="927.949" type="curve" smooth="yes"/>
      <point x="702.055" y="892.949"/>
      <point x="686.059" y="874.086"/>
      <point x="651.059" y="874.086" type="curve" smooth="yes"/>
      <point x="616.059" y="874.086"/>
      <point x="598.016" y="892.949"/>
      <point x="598.016" y="927.949" type="curve" smooth="yes"/>
      <point x="598.016" y="962.949"/>
      <point x="616.059" y="978.944"/>
      <point x="651.059" y="978.944" type="curve" smooth="yes"/>
      <point x="686.059" y="978.944"/>
      <point x="702.055" y="962.949"/>
    </contour>
    <contour>
      <point x="377.037" y="1075" type="curve" smooth="yes"/>
      <point x="377.037" y="1040"/>
      <point x="360.041" y="1021.95"/>
      <point x="326.041" y="1021.95" type="curve" smooth="yes"/>
      <point x="291.041" y="1021.95"/>
      <point x="271.974" y="1040"/>
      <point x="271.974" y="1075" type="curve" smooth="yes"/>
      <point x="271.974" y="1110"/>
      <point x="291.041" y="1125.99"/>
      <point x="326.041" y="1125.99" type="curve" smooth="yes" name=".hr02"/>
      <point x="360.041" y="1125.99"/>
      <point x="377.037" y="1110"/>
    </contour>
    <contour>
      <point x="627.097" y="755.917" type="curve" smooth="yes"/>
      <point x="627.097" y="720.917"/>
      <point x="610.078" y="702.054"/>
      <point x="575.078" y="702.054" type="curve" smooth="yes"/>
      <point x="541.078" y="702.054"/>
      <point x="522.035" y="720.917"/>
      <point x="522.035" y="755.917" type="curve" smooth="yes"/>
      <point x="522.035" y="790.917"/>
      <point x="541.078" y="806.912"/>
      <point x="575.078" y="806.912" type="curve" smooth="yes"/>
      <point x="610.078" y="806.912" name=".hr03"/>
      <point x="627.097" y="790.917"/>
    </contour>
    <contour>
      <point x="610.099" y="552.96" type="curve" smooth="yes"/>
      <point x="610.099" y="517.96"/>
      <point x="593.899" y="499.917"/>
      <point x="558.899" y="499.917" type="curve" smooth="yes" name=".hr04"/>
      <point x="523.899" y="499.917"/>
      <point x="506.061" y="517.96"/>
      <point x="506.061" y="552.96" type="curve" smooth="yes"/>
      <point x="506.061" y="587.96"/>
      <point x="523.899" y="603.955"/>
      <point x="558.899" y="603.955" type="curve" smooth="yes"/>
      <point x="593.899" y="603.955"/>
      <point x="610.099" y="587.96"/>
    </contour>
    <contour>
      <point x="610.099" y="347.955" type="curve" smooth="yes"/>
      <point x="610.099" y="312.955"/>
      <point x="593.899" y="294.912"/>
      <point x="558.899" y="294.912" type="curve" smooth="yes"/>
      <point x="523.899" y="294.912"/>
      <point x="506.061" y="312.955"/>
      <point x="506.061" y="347.955" type="curve" smooth="yes"/>
      <point x="506.061" y="382.955"/>
      <point x="523.899" y="398.951"/>
      <point x="558.899" y="398.951" type="curve" smooth="yes"/>
      <point x="593.899" y="398.951"/>
      <point x="610.099" y="382.955"/>
    </contour>
    <contour>
      <point x="620.953" y="58.9825" type="curve" smooth="yes"/>
      <point x="620.953" y="19.9825"/>
      <point x="601.995" y="0"/>
      <point x="562.995" y="0" type="curve" smooth="yes"/>
      <point x="523.995" y="0"/>
      <point x="504.013" y="19.9825"/>
      <point x="504.013" y="58.9825" type="curve" smooth="yes"/>
      <point x="504.013" y="97.9825"/>
      <point x="523.995" y="118.989" name=".hr05"/>
      <point x="562.995" y="118.989" type="curve" smooth="yes"/>
      <point x="601.995" y="118.989"/>
      <point x="620.953" y="97.9825"/>
    </contour>
  </outline>
</glyph>
<glyph name="at" format="2">
  <advance width="1434"/>
  <unicode hex="0040"/>
  <outline>
    <contour>
      <point x="1242.93" y="889.037" type="curve" smooth="yes"/>
      <point x="1242.93" y="854.037"/>
      <point x="1225.09" y="835.993"/>
      <point x="1190.09" y="835.993" type="curve" smooth="yes"/>
      <point x="1155.09" y="835.993"/>
      <point x="1139.1" y="854.037"/>
      <point x="1139.1" y="889.037" type="curve" smooth="yes"/>
      <point x="1139.1" y="924.037"/>
      <point x="1155.09" y="940.032"/>
      <point x="1190.09" y="940.032" type="curve" smooth="yes"/>
      <point x="1225.09" y="940.032"/>
      <point x="1242.93" y="924.037"/>
    </contour>
    <contour>
      <point x="1082.98" y="1019.9" type="curve" smooth="yes"/>
      <point x="1082.98" y="984.904"/>
      <point x="1064.94" y="967.065"/>
      <point x="1029.94" y="967.065" type="curve" smooth="yes"/>
      <point x="994.939" y="967.065"/>
      <point x="978.944" y="984.904"/>
      <point x="978.944" y="1019.9" type="curve" smooth="yes"/>
      <point x="978.944" y="1054.9"/>
      <point x="994.939" y="1070.9"/>
      <point x="1029.94" y="1070.9" type="curve" smooth="yes"/>
      <point x="1064.94" y="1070.9"/>
      <point x="1082.98" y="1054.9"/>
    </contour>
    <contour>
      <point x="1300.07" y="656.998" type="curve" smooth="yes"/>
      <point x="1300.07" y="622.998"/>
      <point x="1282.03" y="603.955" name=".hr01"/>
      <point x="1247.03" y="603.955" type="curve" smooth="yes"/>
      <point x="1212.03" y="603.955"/>
      <point x="1196.03" y="622.998"/>
      <point x="1196.03" y="656.998" type="curve" smooth="yes"/>
      <point x="1196.03" y="691.998"/>
      <point x="1212.03" y="709.017"/>
      <point x="1247.03" y="709.017" type="curve" smooth="yes"/>
      <point x="1282.03" y="709.017"/>
      <point x="1300.07" y="691.998"/>
    </contour>
    <contour>
      <point x="816.947" y="1059.02" type="curve" smooth="yes"/>
      <point x="816.947" y="1024.02"/>
      <point x="798.904" y="1005.98"/>
      <point x="763.904" y="1005.98" type="curve" smooth="yes"/>
      <point x="728.904" y="1005.98"/>
      <point x="712.909" y="1024.02"/>
      <point x="712.909" y="1059.02" type="curve" smooth="yes"/>
      <point x="712.909" y="1094.02"/>
      <point x="728.904" y="1110.02"/>
      <point x="763.904" y="1110.02" type="curve" smooth="yes"/>
      <point x="798.904" y="1110.02"/>
      <point x="816.947" y="1094.02"/>
    </contour>
    <contour>
      <point x="1034.04" y="786.023" type="curve" smooth="yes"/>
      <point x="1034.04" y="752.023"/>
      <point x="1015.99" y="732.979"/>
      <point x="980.992" y="732.979" type="curve" smooth="yes"/>
      <point x="945.992" y="732.979"/>
      <point x="929.997" y="752.023"/>
      <point x="929.997" y="786.023" type="curve" smooth="yes"/>
      <point x="929.997" y="821.023"/>
      <point x="945.992" y="838.042"/>
      <point x="980.992" y="838.042" type="curve" smooth="yes"/>
      <point x="1015.99" y="838.042"/>
      <point x="1034.04" y="821.023"/>
    </contour>
    <contour>
      <point x="649.011" y="1054.92" type="curve" smooth="yes"/>
      <point x="649.011" y="1019.92"/>
      <point x="630.968" y="1001.06"/>
      <point x="595.968" y="1001.06" type="curve" smooth="yes"/>
      <point x="560.968" y="1001.06"/>
      <point x="544.973" y="1019.92"/>
      <point x="544.973" y="1054.92" type="curve" smooth="yes"/>
      <point x="544.973" y="1089.92" name=".hr02"/>
      <point x="560.968" y="1105.92"/>
      <point x="595.968" y="1105.92" type="curve" smooth="yes"/>
      <point x="630.968" y="1105.92"/>
      <point x="649.011" y="1089.92"/>
    </contour>
    <contour>
      <point x="876.953" y="792.985" type="curve" smooth="yes"/>
      <point x="876.953" y="757.985"/>
      <point x="859.934" y="740.966"/>
      <point x="824.934" y="740.966" type="curve" smooth="yes"/>
      <point x="790.934" y="740.966"/>
      <point x="772.096" y="757.985"/>
      <point x="772.096" y="792.985" type="curve" smooth="yes"/>
      <point x="772.096" y="826.985"/>
      <point x="790.934" y="846.029"/>
      <point x="824.934" y="846.029" type="curve" smooth="yes"/>
      <point x="859.934" y="846.029" name=".hr03"/>
      <point x="876.953" y="826.985" name=".hr04"/>
    </contour>
    <contour>
      <point x="1234.94" y="428.032" type="curve" smooth="yes"/>
      <point x="1234.94" y="393.032"/>
      <point x="1218.95" y="377.037" name=".hr05"/>
      <point x="1183.95" y="377.037" type="curve" smooth="yes"/>
      <point x="1148.95" y="377.037"/>
      <point x="1130.09" y="393.032" name=".hr06"/>
      <point x="1130.09" y="428.032" type="curve" smooth="yes"/>
      <point x="1130.09" y="463.032"/>
      <point x="1148.95" y="481.075"/>
      <point x="1183.95" y="481.075" type="curve" smooth="yes"/>
      <point x="1218.95" y="481.075"/>
      <point x="1234.94" y="463.032"/>
    </contour>
    <contour>
      <point x="975.053" y="611.943" type="curve" smooth="yes"/>
      <point x="975.053" y="577.943"/>
      <point x="956.009" y="558.899"/>
      <point x="922.009" y="558.899" type="curve" smooth="yes"/>
      <point x="887.009" y="558.899"/>
      <point x="869.99" y="577.943"/>
      <point x="869.99" y="611.943" type="curve" smooth="yes"/>
      <point x="869.99" y="646.943"/>
      <point x="887.009" y="663.962"/>
      <point x="922.009" y="663.962" type="curve" smooth="yes"/>
      <point x="956.009" y="663.962"/>
      <point x="975.053" y="646.943"/>
    </contour>
    <contour>
      <point x="689.971" y="790.938" type="curve" smooth="yes"/>
      <point x="689.971" y="755.938" name=".hr07"/>
      <point x="673.976" y="738.919"/>
      <point x="638.976" y="738.919" type="curve" smooth="yes"/>
      <point x="603.976" y="738.919"/>
      <point x="585.933" y="755.938"/>
      <point x="585.933" y="790.938" type="curve" smooth="yes"/>
      <point x="585.933" y="824.938"/>
      <point x="603.976" y="843.981"/>
      <point x="638.976" y="843.981" type="curve" smooth="yes"/>
      <point x="673.976" y="843.981"/>
      <point x="689.971" y="824.938"/>
    </contour>
    <contour>
      <point x="461.005" y="975.053" type="curve" smooth="yes"/>
      <point x="461.005" y="940.053"/>
      <point x="441.962" y="922.009"/>
      <point x="407.962" y="922.009" type="curve" smooth="yes"/>
      <point x="372.962" y="922.009"/>
      <point x="355.943" y="940.053"/>
      <point x="355.943" y="975.053" type="curve" smooth="yes"/>
      <point x="355.943" y="1010.05"/>
      <point x="372.962" y="1026.05"/>
      <point x="407.962" y="1026.05" type="curve" smooth="yes"/>
      <point x="441.962" y="1026.05"/>
      <point x="461.005" y="1010.05" name=".hr08"/>
    </contour>
    <contour>
      <point x="1102.03" y="321.945" type="curve" smooth="yes" name=".hr09"/>
      <point x="1102.03" y="286.945"/>
      <point x="1085.03" y="269.926"/>
      <point x="1051.03" y="269.926" type="curve" smooth="yes" name=".hr10"/>
      <point x="1016.03" y="269.926"/>
      <point x="996.967" y="286.945"/>
      <point x="996.967" y="321.945" type="curve" smooth="yes" name=".hr11"/>
      <point x="996.967" y="355.945"/>
      <point x="1016.03" y="374.989"/>
      <point x="1051.03" y="374.989" type="curve" smooth="yes"/>
      <point x="1085.03" y="374.989"/>
      <point x="1102.03" y="355.945"/>
    </contour>
    <contour>
      <point x="934.093" y="482.918" type="curve" smooth="yes"/>
      <point x="934.093" y="448.918"/>
      <point x="915.05" y="430.08"/>
      <point x="881.05" y="430.08" type="curve" smooth="yes"/>
      <point x="846.05" y="430.08"/>
      <point x="829.031" y="448.918"/>
      <point x="829.031" y="482.918" type="curve" smooth="yes"/>
      <point x="829.031" y="517.918"/>
      <point x="846.05" y="534.937"/>
      <point x="881.05" y="534.937" type="curve" smooth="yes"/>
      <point x="915.05" y="534.937"/>
      <point x="934.093" y="517.918"/>
    </contour>
    <contour>
      <point x="1221.02" y="149.913" type="curve" smooth="yes"/>
      <point x="1221.02" y="114.913"/>
      <point x="1201.95" y="96.0512"/>
      <point x="1166.95" y="96.0512" type="curve" smooth="yes"/>
      <point x="1132.95" y="96.0512"/>
      <point x="1115.96" y="114.913"/>
      <point x="1115.96" y="149.913" type="curve" smooth="yes"/>
      <point x="1115.96" y="183.913"/>
      <point x="1132.95" y="200.909"/>
      <point x="1166.95" y="200.909" type="curve" smooth="yes"/>
      <point x="1201.95" y="200.909"/>
      <point x="1221.02" y="183.913"/>
    </contour>
    <contour>
      <point x="958.055" y="354.099" type="curve" smooth="yes"/>
      <point x="958.055" y="319.099"/>
      <point x="940.011" y="301.056"/>
      <point x="905.011" y="301.056" type="curve" smooth="yes"/>
      <point x="870.011" y="301.056"/>
      <point x="854.016" y="319.099"/>
      <point x="854.016" y="354.099" type="curve" smooth="yes"/>
      <point x="854.016" y="389.099"/>
      <point x="870.011" y="405.913"/>
      <point x="905.011" y="405.913" type="curve" smooth="yes"/>
      <point x="940.011" y="405.913"/>
      <point x="958.055" y="389.099"/>
    </contour>
    <contour>
      <point x="585.933" y="656.998" type="curve" smooth="yes"/>
      <point x="585.933" y="622.998"/>
      <point x="568.937" y="606.003" name=".hr12"/>
      <point x="534.937" y="606.003" type="curve" smooth="yes"/>
      <point x="499.937" y="606.003" name=".hr13"/>
      <point x="481.075" y="622.998"/>
      <point x="481.075" y="656.998" type="curve" smooth="yes"/>
      <point x="481.075" y="691.998" name=".hr14"/>
      <point x="499.937" y="711.065"/>
      <point x="534.937" y="711.065" type="curve" smooth="yes"/>
      <point x="568.937" y="711.065" name=".hr15"/>
      <point x="585.933" y="691.998"/>
    </contour>
    <contour>
      <point x="840.089" y="395.059" type="curve" smooth="yes"/>
      <point x="840.089" y="360.059" name=".hr16"/>
      <point x="821.022" y="342.016"/>
      <point x="786.022" y="342.016" type="curve" smooth="yes"/>
      <point x="752.022" y="342.016"/>
      <point x="735.027" y="360.059"/>
      <point x="735.027" y="395.059" type="curve" smooth="yes" name=".hr17"/>
      <point x="735.027" y="430.059"/>
      <point x="752.022" y="446.055" name=".hr18"/>
      <point x="786.022" y="446.055" type="curve" smooth="yes"/>
      <point x="821.022" y="446.055"/>
      <point x="840.089" y="430.059"/>
    </contour>
    <contour>
      <point x="317.03" y="821.043" type="curve" smooth="yes" name=".hr19"/>
      <point x="317.03" y="786.043"/>
      <point x="298.987" y="768" name=".hr20"/>
      <point x="263.987" y="768" type="curve" smooth="yes"/>
      <point x="228.987" y="768"/>
      <point x="212.992" y="786.043"/>
      <point x="212.992" y="821.043" type="curve" smooth="yes"/>
      <point x="212.992" y="856.043"/>
      <point x="228.987" y="872.038"/>
      <point x="263.987" y="872.038" type="curve" smooth="yes"/>
      <point x="298.987" y="872.038"/>
      <point x="317.03" y="856.043" name=".hr21"/>
    </contour>
    <contour>
      <point x="1036.08" y="83.968" type="curve" smooth="yes" name=".hr22"/>
      <point x="1036.08" y="48.968"/>
      <point x="1020.09" y="32.9728"/>
      <point x="985.088" y="32.9728" type="curve" smooth="yes" name=".hr23"/>
      <point x="950.088" y="32.9728"/>
      <point x="932.045" y="48.968"/>
      <point x="932.045" y="83.968" type="curve" smooth="yes"/>
      <point x="932.045" y="118.968"/>
      <point x="950.088" y="137.011"/>
      <point x="985.088" y="137.011" type="curve" smooth="yes"/>
      <point x="1020.09" y="137.011"/>
      <point x="1036.08" y="118.968"/>
    </contour>
    <contour>
      <point x="732.979" y="317.03" type="curve" smooth="yes"/>
      <point x="732.979" y="283.03"/>
      <point x="716.984" y="266.035"/>
      <point x="681.984" y="266.035" type="curve" smooth="yes"/>
      <point x="646.984" y="266.035"/>
      <point x="628.941" y="283.03"/>
      <point x="628.941" y="317.03" type="curve" smooth="yes"/>
      <point x="628.941" y="352.03"/>
      <point x="646.984" y="371.097"/>
      <point x="681.984" y="371.097" type="curve" smooth="yes"/>
      <point x="716.984" y="371.097"/>
      <point x="732.979" y="352.03"/>
    </contour>
    <contour>
      <point x="534.938" y="509.952" type="curve" smooth="yes"/>
      <point x="534.938" y="474.952"/>
      <point x="517.919" y="458.957"/>
      <point x="482.919" y="458.957" type="curve" smooth="yes"/>
      <point x="448.919" y="458.957"/>
      <point x="430.08" y="474.952"/>
      <point x="430.08" y="509.952" type="curve" smooth="yes"/>
      <point x="430.08" y="544.952"/>
      <point x="448.919" y="562.995"/>
      <point x="482.919" y="562.995" type="curve" smooth="yes"/>
      <point x="517.919" y="562.995"/>
      <point x="534.938" y="544.952"/>
    </contour>
    <contour>
      <point x="579.994" y="380.928" type="curve" smooth="yes"/>
      <point x="579.994" y="345.928"/>
      <point x="562.975" y="329.933"/>
      <point x="527.975" y="329.933" type="curve" smooth="yes"/>
      <point x="493.975" y="329.933"/>
      <point x="474.931" y="345.928"/>
      <point x="474.931" y="380.928" type="curve" smooth="yes"/>
      <point x="474.931" y="415.928"/>
      <point x="493.975" y="433.971"/>
      <point x="527.975" y="433.971" type="curve" smooth="yes"/>
      <point x="562.975" y="433.971" name=".hr24"/>
      <point x="579.994" y="415.928"/>
    </contour>
    <contour>
      <point x="790.938" y="48.9473" type="curve" smooth="yes"/>
      <point x="790.938" y="13.9473"/>
      <point x="773.919" y="-4.096"/>
      <point x="738.919" y="-4.096" type="curve" smooth="yes"/>
      <point x="704.919" y="-4.096"/>
      <point x="686.08" y="13.9473"/>
      <point x="686.08" y="48.9473" type="curve" smooth="yes"/>
      <point x="686.08" y="83.9473"/>
      <point x="704.919" y="101.99"/>
      <point x="738.919" y="101.99" type="curve" smooth="yes" name=".hr25"/>
      <point x="773.919" y="101.99"/>
      <point x="790.938" y="83.9473"/>
    </contour>
    <contour>
      <point x="245.965" y="587.981" type="curve" smooth="yes"/>
      <point x="245.965" y="552.981"/>
      <point x="226.922" y="534.938"/>
      <point x="192.922" y="534.938" type="curve" smooth="yes"/>
      <point x="157.922" y="534.938"/>
      <point x="140.903" y="552.981"/>
      <point x="140.903" y="587.981" type="curve" smooth="yes"/>
      <point x="140.903" y="622.981"/>
      <point x="157.922" y="638.976"/>
      <point x="192.922" y="638.976" type="curve" smooth="yes"/>
      <point x="226.922" y="638.976"/>
      <point x="245.965" y="622.981"/>
    </contour>
    <contour>
      <point x="268.083" y="372.941" type="curve" smooth="yes"/>
      <point x="268.083" y="337.941"/>
      <point x="250.04" y="319.078"/>
      <point x="215.04" y="319.078" type="curve" smooth="yes"/>
      <point x="180.04" y="319.078"/>
      <point x="164.045" y="337.941"/>
      <point x="164.045" y="372.941" type="curve" smooth="yes"/>
      <point x="164.045" y="407.941"/>
      <point x="180.04" y="423.936"/>
      <point x="215.04" y="423.936" type="curve" smooth="yes"/>
      <point x="250.04" y="423.936"/>
      <point x="268.083" y="407.941"/>
    </contour>
    <contour>
      <point x="549.069" y="80.0768" type="curve" smooth="yes"/>
      <point x="549.069" y="45.0768" name=".hr26"/>
      <point x="530.025" y="27.0335"/>
      <point x="496.025" y="27.0335" type="curve" smooth="yes"/>
      <point x="461.025" y="27.0335"/>
      <point x="444.006" y="45.0768"/>
      <point x="444.006" y="80.0768" type="curve" smooth="yes"/>
      <point x="444.006" y="115.077"/>
      <point x="461.025" y="131.072"/>
      <point x="496.025" y="131.072" type="curve" smooth="yes"/>
      <point x="530.025" y="131.072"/>
      <point x="549.069" y="115.077"/>
    </contour>
    <contour>
      <point x="371.098" y="200.909" type="curve" smooth="yes" name=".hr27"/>
      <point x="371.098" y="165.909"/>
      <point x="352.031" y="147.047"/>
      <point x="317.031" y="147.047" type="curve" smooth="yes"/>
      <point x="283.031" y="147.047"/>
      <point x="266.035" y="165.909"/>
      <point x="266.035" y="200.909" type="curve" smooth="yes"/>
      <point x="266.035" y="235.909"/>
      <point x="283.031" y="251.904"/>
      <point x="317.031" y="251.904" type="curve" smooth="yes"/>
      <point x="352.031" y="251.904"/>
      <point x="371.098" y="235.909"/>
    </contour>
  </outline>
</glyph>
<glyph name="B" format="2">
  <advance width="1229"/>
  <unicode hex="0042"/>
  <outline>
    <contour>
      <point x="1010.07" y="1198.08" type="curve" smooth="yes"/>
      <point x="1010.07" y="1163.08"/>
      <point x="991.006" y="1145.04"/>
      <point x="956.006" y="1145.04" type="curve" smooth="yes"/>
      <point x="922.006" y="1145.04"/>
      <point x="905.011" y="1163.08"/>
      <point x="905.011" y="1198.08" type="curve" smooth="yes"/>
      <point x="905.011" y="1233.08"/>
      <point x="922.006" y="1249.08"/>
      <point x="956.006" y="1249.08" type="curve" smooth="yes"/>
      <point x="991.006" y="1249.08"/>
      <point x="1010.07" y="1233.08"/>
    </contour>
    <contour>
      <point x="1089.95" y="1028.1" type="curve" smooth="yes"/>
      <point x="1089.95" y="993.096" name=".hr01"/>
      <point x="1071.08" y="975.053"/>
      <point x="1036.08" y="975.053" type="curve" smooth="yes"/>
      <point x="1001.08" y="975.053"/>
      <point x="985.088" y="993.096"/>
      <point x="985.088" y="1028.1" type="curve" smooth="yes"/>
      <point x="985.088" y="1063.1"/>
      <point x="1001.08" y="1079.09"/>
      <point x="1036.08" y="1079.09" type="curve" smooth="yes"/>
      <point x="1071.08" y="1079.09"/>
      <point x="1089.95" y="1063.1"/>
    </contour>
    <contour>
      <point x="808.96" y="1280" type="curve" smooth="yes"/>
      <point x="808.96" y="1245"/>
      <point x="790.917" y="1226.96"/>
      <point x="755.917" y="1226.96" type="curve" smooth="yes"/>
      <point x="720.917" y="1226.96"/>
      <point x="704.922" y="1245"/>
      <point x="704.922" y="1280" type="curve" smooth="yes"/>
      <point x="704.922" y="1315"/>
      <point x="720.917" y="1331"/>
      <point x="755.917" y="1331" type="curve" smooth="yes"/>
      <point x="790.917" y="1331"/>
      <point x="808.96" y="1315"/>
    </contour>
    <contour>
      <point x="1051.03" y="857.907" type="curve" smooth="yes"/>
      <point x="1051.03" y="822.907"/>
      <point x="1031.97" y="805.069"/>
      <point x="996.966" y="805.069" type="curve" smooth="yes"/>
      <point x="962.966" y="805.069"/>
      <point x="945.971" y="822.907"/>
      <point x="945.971" y="857.907" type="curve" smooth="yes"/>
      <point x="945.971" y="892.907"/>
      <point x="962.966" y="908.902" name=".hr02"/>
      <point x="996.966" y="908.902" type="curve" smooth="yes"/>
      <point x="1031.97" y="908.902"/>
      <point x="1051.03" y="892.907"/>
    </contour>
    <contour>
      <point x="603.955" y="1280" type="curve" smooth="yes"/>
      <point x="603.955" y="1245"/>
      <point x="585.912" y="1226.96"/>
      <point x="550.912" y="1226.96" type="curve" smooth="yes"/>
      <point x="515.912" y="1226.96"/>
      <point x="499.917" y="1245"/>
      <point x="499.917" y="1280" type="curve" smooth="yes"/>
      <point x="499.917" y="1315"/>
      <point x="515.912" y="1331"/>
      <point x="550.912" y="1331" type="curve" smooth="yes"/>
      <point x="585.912" y="1331"/>
      <point x="603.955" y="1315"/>
    </contour>
    <contour>
      <point x="398.951" y="1280" type="curve" smooth="yes"/>
      <point x="398.951" y="1245"/>
      <point x="380.907" y="1226.96"/>
      <point x="345.907" y="1226.96" type="curve" smooth="yes"/>
      <point x="310.907" y="1226.96"/>
      <point x="294.912" y="1245"/>
      <point x="294.912" y="1280" type="curve" smooth="yes"/>
      <point x="294.912" y="1315"/>
      <point x="310.907" y="1331"/>
      <point x="345.907" y="1331" type="curve" smooth="yes"/>
      <point x="380.907" y="1331"/>
      <point x="398.951" y="1315"/>
    </contour>
    <contour>
      <point x="927.949" y="732.979" type="curve" smooth="yes"/>
      <point x="927.949" y="697.979"/>
      <point x="909.086" y="679.936"/>
      <point x="874.086" y="679.936" type="curve" smooth="yes"/>
      <point x="840.086" y="679.936"/>
      <point x="823.091" y="697.979"/>
      <point x="823.091" y="732.979" type="curve" smooth="yes"/>
      <point x="823.091" y="767.979"/>
      <point x="840.086" y="783.974"/>
      <point x="874.086" y="783.974" type="curve" smooth="yes"/>
      <point x="909.086" y="783.974"/>
      <point x="927.949" y="767.979"/>
    </contour>
    <contour>
      <point x="1059.02" y="567.091" type="curve" smooth="yes"/>
      <point x="1059.02" y="532.091"/>
      <point x="1039.98" y="514.048"/>
      <point x="1005.98" y="514.048" type="curve" smooth="yes"/>
      <point x="970.978" y="514.048"/>
      <point x="953.959" y="532.091"/>
      <point x="953.959" y="567.091" type="curve" smooth="yes"/>
      <point x="953.959" y="602.091"/>
      <point x="970.978" y="618.086"/>
      <point x="1005.98" y="618.086" type="curve" smooth="yes"/>
      <point x="1039.98" y="618.086"/>
      <point x="1059.02" y="602.091"/>
    </contour>
    <contour>
      <point x="1115.96" y="390.963" type="curve" smooth="yes" name=".hr03"/>
      <point x="1115.96" y="355.963"/>
      <point x="1097.91" y="337.92"/>
      <point x="1062.91" y="337.92" type="curve" smooth="yes"/>
      <point x="1027.91" y="337.92"/>
      <point x="1011.92" y="355.963"/>
      <point x="1011.92" y="390.963" type="curve" smooth="yes"/>
      <point x="1011.92" y="425.963"/>
      <point x="1027.91" y="441.959" name=".hr04"/>
      <point x="1062.91" y="441.959" type="curve" smooth="yes"/>
      <point x="1097.91" y="441.959"/>
      <point x="1115.96" y="425.963"/>
    </contour>
    <contour>
      <point x="263.987" y="1274.06" type="curve" smooth="yes"/>
      <point x="263.987" y="1223.06"/>
      <point x="223.032" y="1181.9"/>
      <point x="172.032" y="1181.9" type="curve" smooth="yes"/>
      <point x="121.032" y="1181.9"/>
      <point x="80.0767" y="1223.06"/>
      <point x="80.0767" y="1274.06" type="curve" smooth="yes"/>
      <point x="80.0767" y="1325.06"/>
      <point x="121.032" y="1366.02"/>
      <point x="172.032" y="1366.02" type="curve" smooth="yes"/>
      <point x="223.032" y="1366.02"/>
      <point x="263.987" y="1325.06"/>
    </contour>
    <contour>
      <point x="762.061" y="735.027" type="curve" smooth="yes"/>
      <point x="762.061" y="700.027"/>
      <point x="743.017" y="681.984"/>
      <point x="709.017" y="681.984" type="curve" smooth="yes"/>
      <point x="674.017" y="681.984"/>
      <point x="656.998" y="700.027"/>
      <point x="656.998" y="735.027" type="curve" smooth="yes"/>
      <point x="656.998" y="770.027"/>
      <point x="674.017" y="786.022"/>
      <point x="709.017" y="786.022" type="curve" smooth="yes"/>
      <point x="743.017" y="786.022"/>
      <point x="762.061" y="770.027"/>
    </contour>
    <contour>
      <point x="557.056" y="735.027" type="curve" smooth="yes"/>
      <point x="557.056" y="700.027"/>
      <point x="539.013" y="681.984"/>
      <point x="504.013" y="681.984" type="curve" smooth="yes"/>
      <point x="469.013" y="681.984"/>
      <point x="453.018" y="700.027"/>
      <point x="453.018" y="735.027" type="curve" smooth="yes"/>
      <point x="453.018" y="770.027"/>
      <point x="469.013" y="786.022"/>
      <point x="504.013" y="786.022" type="curve" smooth="yes"/>
      <point x="539.013" y="786.022"/>
      <point x="557.056" y="770.027"/>
    </contour>
    <contour>
      <point x="207.053" y="1077.04" type="curve" smooth="yes"/>
      <point x="207.053" y="1042.04"/>
      <point x="188.01" y="1024"/>
      <point x="154.01" y="1024" type="curve" smooth="yes"/>
      <point x="119.01" y="1024"/>
      <point x="101.991" y="1042.04"/>
      <point x="101.991" y="1077.04" type="curve" smooth="yes"/>
      <point x="101.991" y="1112.04"/>
      <point x="119.01" y="1128.04"/>
      <point x="154.01" y="1128.04" type="curve" smooth="yes"/>
      <point x="188.01" y="1128.04"/>
      <point x="207.053" y="1112.04"/>
    </contour>
    <contour>
      <point x="1003.93" y="151.962" type="curve" smooth="yes"/>
      <point x="1003.93" y="116.962"/>
      <point x="985.067" y="98.0993"/>
      <point x="950.067" y="98.0993" type="curve" smooth="yes"/>
      <point x="915.067" y="98.0993"/>
      <point x="899.072" y="116.962"/>
      <point x="899.072" y="151.962" type="curve" smooth="yes"/>
      <point x="899.072" y="185.962"/>
      <point x="915.067" y="202.957"/>
      <point x="950.067" y="202.957" type="curve" smooth="yes"/>
      <point x="985.067" y="202.957"/>
      <point x="1003.93" y="185.962"/>
    </contour>
    <contour>
      <point x="352.051" y="735.027" type="curve" smooth="yes"/>
      <point x="352.051" y="700.027"/>
      <point x="334.008" y="681.984"/>
      <point x="299.008" y="681.984" type="curve" smooth="yes" name=".hr05"/>
      <point x="264.008" y="681.984"/>
      <point x="248.013" y="700.027"/>
      <point x="248.013" y="735.027" type="curve" smooth="yes" name=".hr06"/>
      <point x="248.013" y="770.027"/>
      <point x="264.008" y="786.022"/>
      <point x="299.008" y="786.022" type="curve" smooth="yes"/>
      <point x="334.008" y="786.022"/>
      <point x="352.051" y="770.027" name=".hr07"/>
    </contour>
    <contour>
      <point x="207.053" y="872.039" type="curve" smooth="yes" name=".hr08"/>
      <point x="207.053" y="838.039"/>
      <point x="188.01" y="818.995"/>
      <point x="154.01" y="818.995" type="curve" smooth="yes"/>
      <point x="119.01" y="818.995"/>
      <point x="101.991" y="838.039"/>
      <point x="101.991" y="872.039" type="curve" smooth="yes" name=".hr09"/>
      <point x="101.991" y="907.039" name=".hr10"/>
      <point x="119.01" y="924.058"/>
      <point x="154.01" y="924.058" type="curve" smooth="yes"/>
      <point x="188.01" y="924.058" name=".hr11"/>
      <point x="207.053" y="907.039"/>
    </contour>
    <contour>
      <point x="207.053" y="668.057" type="curve" smooth="yes"/>
      <point x="207.053" y="633.057" name=".hr12"/>
      <point x="188.01" y="613.99"/>
      <point x="154.01" y="613.99" type="curve" smooth="yes"/>
      <point x="119.01" y="613.99"/>
      <point x="101.991" y="633.057"/>
      <point x="101.991" y="668.057" type="curve" smooth="yes"/>
      <point x="101.991" y="702.057"/>
      <point x="119.01" y="719.053"/>
      <point x="154.01" y="719.053" type="curve" smooth="yes"/>
      <point x="188.01" y="719.053"/>
      <point x="207.053" y="702.057"/>
    </contour>
    <contour>
      <point x="786.023" y="53.0433" type="curve" smooth="yes"/>
      <point x="786.023" y="18.0433"/>
      <point x="767.979" y="0"/>
      <point x="732.979" y="0" type="curve" smooth="yes"/>
      <point x="697.979" y="0"/>
      <point x="681.984" y="18.0432"/>
      <point x="681.984" y="53.0432" type="curve" smooth="yes"/>
      <point x="681.984" y="88.0432"/>
      <point x="697.979" y="104.038"/>
      <point x="732.979" y="104.038" type="curve" smooth="yes"/>
      <point x="767.979" y="104.038"/>
      <point x="786.023" y="88.0432"/>
    </contour>
    <contour>
      <point x="207.053" y="463.053" type="curve" smooth="yes"/>
      <point x="207.053" y="428.053"/>
      <point x="188.01" y="410.01"/>
      <point x="154.01" y="410.01" type="curve" smooth="yes"/>
      <point x="119.01" y="410.01"/>
      <point x="101.991" y="428.053"/>
      <point x="101.991" y="463.053" type="curve" smooth="yes"/>
      <point x="101.991" y="498.053"/>
      <point x="119.01" y="514.048"/>
      <point x="154.01" y="514.048" type="curve" smooth="yes"/>
      <point x="188.01" y="514.048"/>
      <point x="207.053" y="498.053"/>
    </contour>
    <contour>
      <point x="582.042" y="53.0433" type="curve" smooth="yes"/>
      <point x="582.042" y="18.0433"/>
      <point x="562.975" y="0"/>
      <point x="527.975" y="0" type="curve" smooth="yes"/>
      <point x="493.975" y="0"/>
      <point x="476.979" y="18.0432"/>
      <point x="476.979" y="53.0432" type="curve" smooth="yes"/>
      <point x="476.979" y="88.0432"/>
      <point x="493.975" y="104.038"/>
      <point x="527.975" y="104.038" type="curve" smooth="yes"/>
      <point x="562.975" y="104.038"/>
      <point x="582.042" y="88.0432"/>
    </contour>
    <contour>
      <point x="207.053" y="258.048" type="curve" smooth="yes"/>
      <point x="207.053" y="223.048"/>
      <point x="188.01" y="205.005"/>
      <point x="154.01" y="205.005" type="curve" smooth="yes"/>
      <point x="119.01" y="205.005"/>
      <point x="101.991" y="223.048"/>
      <point x="101.991" y="258.048" type="curve" smooth="yes"/>
      <point x="101.991" y="293.048"/>
      <point x="119.01" y="309.043"/>
      <point x="154.01" y="309.043" type="curve" smooth="yes"/>
      <point x="188.01" y="309.043"/>
      <point x="207.053" y="293.048"/>
    </contour>
    <contour>
      <point x="377.037" y="53.0433" type="curve" smooth="yes"/>
      <point x="377.037" y="18.0433"/>
      <point x="357.993" y="0"/>
      <point x="323.993" y="0" type="curve" smooth="yes"/>
      <point x="288.993" y="0"/>
      <point x="271.974" y="18.0432"/>
      <point x="271.974" y="53.0432" type="curve" smooth="yes"/>
      <point x="271.974" y="88.0432"/>
      <point x="288.993" y="104.038"/>
      <point x="323.993" y="104.038" type="curve" smooth="yes"/>
      <point x="357.993" y="104.038"/>
      <point x="377.037" y="88.0432"/>
    </contour>
    <contour>
      <point x="207.053" y="53.0433" type="curve" smooth="yes"/>
      <point x="207.053" y="18.0433"/>
      <point x="188.01" y="0"/>
      <point x="154.01" y="0" type="curve" smooth="yes"/>
      <point x="119.01" y="0"/>
      <point x="101.991" y="18.0432"/>
      <point x="101.991" y="53.0432" type="curve" smooth="yes"/>
      <point x="101.991" y="88.0432"/>
      <point x="119.01" y="104.038"/>
      <point x="154.01" y="104.038" type="curve" smooth="yes"/>
      <point x="188.01" y="104.038"/>
      <point x="207.053" y="88.0432"/>
    </contour>
    <contour>
      <point x="243.917" y="1274.06" type="curve" smooth="yes"/>
      <point x="243.917" y="1313.06"/>
      <point x="211.032" y="1345.95" name=".hr13"/>
      <point x="172.032" y="1345.95" type="curve" smooth="yes"/>
      <point x="133.032" y="1345.95"/>
      <point x="99.9425" y="1313.06"/>
      <point x="99.9425" y="1274.06" type="curve" smooth="yes"/>
      <point x="99.9425" y="1235.06"/>
      <point x="133.032" y="1201.97"/>
      <point x="172.032" y="1201.97" type="curve" smooth="yes"/>
      <point x="211.032" y="1201.97"/>
      <point x="243.917" y="1235.06"/>
    </contour>
  </outline>
</glyph>
<glyph name="C" format="2">
  <advance width="1434"/>
  <unicode hex="0043"/>
  <outline>
    <contour>
      <point x="1376.05" y="1075" type="curve" smooth="yes"/>
      <point x="1376.05" y="1024"/>
      <point x="1335.1" y="983.04"/>
      <point x="1284.1" y="983.04" type="curve" smooth="yes"/>
      <point x="1233.1" y="983.04"/>
      <point x="1191.94" y="1024"/>
      <point x="1191.94" y="1075" type="curve" smooth="yes"/>
      <point x="1191.94" y="1126"/>
      <point x="1233.1" y="1166.95"/>
      <point x="1284.1" y="1166.95" type="curve" smooth="yes"/>
      <point x="1335.1" y="1166.95"/>
      <point x="1376.05" y="1126"/>
    </contour>
    <contour>
      <point x="1175.96" y="1186" type="curve" smooth="yes"/>
      <point x="1175.96" y="1151"/>
      <point x="1157.1" y="1132.95"/>
      <point x="1122.1" y="1132.95" type="curve" smooth="yes" name=".hr01"/>
      <point x="1087.1" y="1132.95"/>
      <point x="1070.9" y="1151"/>
      <point x="1070.9" y="1186" type="curve" smooth="yes"/>
      <point x="1070.9" y="1221"/>
      <point x="1087.1" y="1236.99"/>
      <point x="1122.1" y="1236.99" type="curve" smooth="yes"/>
      <point x="1157.1" y="1236.99"/>
      <point x="1175.96" y="1221"/>
    </contour>
    <contour>
      <point x="932.045" y="1275.9" type="curve" smooth="yes"/>
      <point x="932.045" y="1240.9"/>
      <point x="913.001" y="1223.07"/>
      <point x="879.001" y="1223.07" type="curve" smooth="yes"/>
      <point x="844.001" y="1223.07" name=".hr02"/>
      <point x="826.982" y="1240.9"/>
      <point x="826.982" y="1275.9" type="curve" smooth="yes"/>
      <point x="826.982" y="1310.9"/>
      <point x="844.001" y="1326.9"/>
      <point x="879.001" y="1326.9" type="curve" smooth="yes"/>
      <point x="913.001" y="1326.9"/>
      <point x="932.045" y="1310.9"/>
    </contour>
    <contour>
      <point x="686.08" y="1264.03" type="curve" smooth="yes"/>
      <point x="686.08" y="1229.03"/>
      <point x="668.037" y="1209.96"/>
      <point x="633.037" y="1209.96" type="curve" smooth="yes"/>
      <point x="598.037" y="1209.96"/>
      <point x="582.042" y="1229.03" name=".hr03"/>
      <point x="582.042" y="1264.03" type="curve" smooth="yes"/>
      <point x="582.042" y="1298.03"/>
      <point x="598.037" y="1315.02"/>
      <point x="633.037" y="1315.02" type="curve" smooth="yes"/>
      <point x="668.037" y="1315.02"/>
      <point x="686.08" y="1298.03"/>
    </contour>
    <contour>
      <point x="1341.03" y="299.008" type="curve" smooth="yes"/>
      <point x="1341.03" y="264.008"/>
      <point x="1322.99" y="245.965"/>
      <point x="1287.99" y="245.965" type="curve" smooth="yes"/>
      <point x="1252.99" y="245.965"/>
      <point x="1236.99" y="264.008"/>
      <point x="1236.99" y="299.008" type="curve" smooth="yes"/>
      <point x="1236.99" y="334.008"/>
      <point x="1252.99" y="350.003"/>
      <point x="1287.99" y="350.003" type="curve" smooth="yes"/>
      <point x="1322.99" y="350.003"/>
      <point x="1341.03" y="334.008"/>
    </contour>
    <contour>
      <point x="465.101" y="1156.92" type="curve" smooth="yes"/>
      <point x="465.101" y="1121.92"/>
      <point x="446.057" y="1104.08"/>
      <point x="412.057" y="1104.08" type="curve" smooth="yes"/>
      <point x="377.057" y="1104.08"/>
      <point x="360.038" y="1121.92"/>
      <point x="360.038" y="1156.92" type="curve" smooth="yes"/>
      <point x="360.038" y="1191.92"/>
      <point x="377.057" y="1207.91"/>
      <point x="412.057" y="1207.91" type="curve" smooth="yes"/>
      <point x="446.057" y="1207.91"/>
      <point x="465.101" y="1191.92"/>
    </contour>
    <contour>
      <point x="1207.91" y="172.032" type="curve" smooth="yes"/>
      <point x="1207.91" y="137.032"/>
      <point x="1190.07" y="118.989"/>
      <point x="1155.07" y="118.989" type="curve" smooth="yes"/>
      <point x="1120.07" y="118.989"/>
      <point x="1104.08" y="137.032"/>
      <point x="1104.08" y="172.032" type="curve" smooth="yes"/>
      <point x="1104.08" y="207.032"/>
      <point x="1120.07" y="223.027"/>
      <point x="1155.07" y="223.027" type="curve" smooth="yes"/>
      <point x="1190.07" y="223.027"/>
      <point x="1207.91" y="207.032"/>
    </contour>
    <contour>
      <point x="296.96" y="977.101" type="curve" smooth="yes"/>
      <point x="296.96" y="942.101"/>
      <point x="278.917" y="924.058"/>
      <point x="243.917" y="924.058" type="curve" smooth="yes"/>
      <point x="208.917" y="924.058"/>
      <point x="192.921" y="942.101"/>
      <point x="192.921" y="977.101" type="curve" smooth="yes"/>
      <point x="192.921" y="1012.1"/>
      <point x="208.917" y="1028.1"/>
      <point x="243.917" y="1028.1" type="curve" smooth="yes"/>
      <point x="278.917" y="1028.1"/>
      <point x="296.96" y="1012.1"/>
    </contour>
    <contour>
      <point x="1037.93" y="81.92" type="curve" smooth="yes"/>
      <point x="1037.93" y="46.92"/>
      <point x="1020.09" y="29.0815"/>
      <point x="985.088" y="29.0815" type="curve" smooth="yes"/>
      <point x="950.088" y="29.0815"/>
      <point x="934.093" y="46.92"/>
      <point x="934.093" y="81.92" type="curve" smooth="yes"/>
      <point x="934.093" y="116.92"/>
      <point x="950.088" y="132.915"/>
      <point x="985.088" y="132.915" type="curve" smooth="yes"/>
      <point x="1020.09" y="132.915" name=".hr04"/>
      <point x="1037.93" y="116.92"/>
    </contour>
    <contour>
      <point x="218.931" y="778.035" type="curve" smooth="yes"/>
      <point x="218.931" y="743.035"/>
      <point x="201.093" y="724.992"/>
      <point x="166.093" y="724.992" type="curve" smooth="yes"/>
      <point x="131.093" y="724.992"/>
      <point x="115.097" y="743.035"/>
      <point x="115.097" y="778.035" type="curve" smooth="yes"/>
      <point x="115.097" y="813.035"/>
      <point x="131.093" y="829.031"/>
      <point x="166.093" y="829.031" type="curve" smooth="yes"/>
      <point x="201.093" y="829.031"/>
      <point x="218.931" y="813.035"/>
    </contour>
    <contour>
      <point x="838.042" y="53.0433" type="curve" smooth="yes"/>
      <point x="838.042" y="18.0433"/>
      <point x="818.975" y="0"/>
      <point x="783.975" y="0" type="curve" smooth="yes"/>
      <point x="749.975" y="0"/>
      <point x="732.979" y="18.0432"/>
      <point x="732.979" y="53.0432" type="curve" smooth="yes"/>
      <point x="732.979" y="88.0432"/>
      <point x="749.975" y="104.038"/>
      <point x="783.975" y="104.038" type="curve" smooth="yes"/>
      <point x="818.975" y="104.038"/>
      <point x="838.042" y="88.0432"/>
    </contour>
    <contour>
      <point x="210.944" y="592.077" type="curve" smooth="yes" name=".hr05"/>
      <point x="210.944" y="557.077"/>
      <point x="192.901" y="539.033"/>
      <point x="157.901" y="539.033" type="curve" smooth="yes"/>
      <point x="122.901" y="539.033"/>
      <point x="106.087" y="557.077"/>
      <point x="106.087" y="592.077" type="curve" smooth="yes"/>
      <point x="106.087" y="627.077"/>
      <point x="122.901" y="643.072"/>
      <point x="157.901" y="643.072" type="curve" smooth="yes"/>
      <point x="192.901" y="643.072"/>
      <point x="210.944" y="627.077"/>
    </contour>
    <contour>
      <point x="577.945" y="101.991" type="curve" smooth="yes"/>
      <point x="577.945" y="67.9905" name=".hr06"/>
      <point x="559.083" y="48.9473"/>
      <point x="524.083" y="48.9473" type="curve" smooth="yes"/>
      <point x="489.083" y="48.9473" name=".hr07"/>
      <point x="473.088" y="67.9905"/>
      <point x="473.088" y="101.991" type="curve" smooth="yes"/>
      <point x="473.088" y="136.991"/>
      <point x="489.083" y="154.01"/>
      <point x="524.083" y="154.01" type="curve" smooth="yes" name=".hr08"/>
      <point x="559.083" y="154.01" name=".hr09"/>
      <point x="577.945" y="136.991"/>
    </contour>
    <contour>
      <point x="263.987" y="388.915" type="curve" smooth="yes"/>
      <point x="263.987" y="353.915"/>
      <point x="245.944" y="336.077"/>
      <point x="210.944" y="336.077" type="curve" smooth="yes"/>
      <point x="175.944" y="336.077"/>
      <point x="159.949" y="353.915"/>
      <point x="159.949" y="388.915" type="curve" smooth="yes"/>
      <point x="159.949" y="423.915"/>
      <point x="175.944" y="439.911"/>
      <point x="210.944" y="439.911" type="curve" smooth="yes"/>
      <point x="245.944" y="439.911"/>
      <point x="263.987" y="423.915"/>
    </contour>
    <contour>
      <point x="393.011" y="220.979" type="curve" smooth="yes"/>
      <point x="393.011" y="185.979" name=".hr10"/>
      <point x="374.968" y="167.936"/>
      <point x="339.968" y="167.936" type="curve" smooth="yes"/>
      <point x="304.968" y="167.936" name=".hr11"/>
      <point x="288.973" y="185.979"/>
      <point x="288.973" y="220.979" type="curve" smooth="yes" name=".hr12"/>
      <point x="288.973" y="255.979"/>
      <point x="304.968" y="271.974"/>
      <point x="339.968" y="271.974" type="curve" smooth="yes"/>
      <point x="374.968" y="271.974" name=".hr13"/>
      <point x="393.011" y="255.979"/>
    </contour>
    <contour>
      <point x="1355.98" y="1075" type="curve" smooth="yes" name=".hr14"/>
      <point x="1355.98" y="1114"/>
      <point x="1323.1" y="1147.08"/>
      <point x="1284.1" y="1147.08" type="curve" smooth="yes"/>
      <point x="1245.1" y="1147.08"/>
      <point x="1212.01" y="1114"/>
      <point x="1212.01" y="1075" type="curve" smooth="yes"/>
      <point x="1212.01" y="1036"/>
      <point x="1245.1" y="1003.93"/>
      <point x="1284.1" y="1003.93" type="curve" smooth="yes"/>
      <point x="1323.1" y="1003.93"/>
      <point x="1355.98" y="1036"/>
    </contour>
  </outline>
</glyph>
<glyph name="E" format="2">
  <advance width="1126"/>
  <unicode hex="0045"/>
  <outline>
    <contour>
      <point x="980.992" y="1280" type="curve" smooth="yes"/>
      <point x="980.992" y="1245"/>
      <point x="964.997" y="1229"/>
      <point x="929.997" y="1229" type="curve" smooth="yes"/>
      <point x="894.997" y="1229"/>
      <point x="876.954" y="1245"/>
      <point x="876.954" y="1280" type="curve" smooth="yes"/>
      <point x="876.954" y="1315"/>
      <point x="894.997" y="1333.04"/>
      <point x="929.997" y="1333.04" type="curve" smooth="yes"/>
      <point x="964.997" y="1333.04"/>
      <point x="980.992" y="1315"/>
    </contour>
    <contour>
      <point x="775.987" y="1280" type="curve" smooth="yes"/>
      <point x="775.987" y="1245"/>
      <point x="759.992" y="1229"/>
      <point x="724.992" y="1229" type="curve" smooth="yes"/>
      <point x="689.992" y="1229"/>
      <point x="671.949" y="1245"/>
      <point x="671.949" y="1280" type="curve" smooth="yes"/>
      <point x="671.949" y="1315"/>
      <point x="689.992" y="1333.04"/>
      <point x="724.992" y="1333.04" type="curve" smooth="yes"/>
      <point x="759.992" y="1333.04"/>
      <point x="775.987" y="1315"/>
    </contour>
    <contour>
      <point x="570.982" y="1280" type="curve" smooth="yes"/>
      <point x="570.982" y="1245"/>
      <point x="554.987" y="1229"/>
      <point x="519.987" y="1229" type="curve" smooth="yes"/>
      <point x="484.987" y="1229"/>
      <point x="466.944" y="1245"/>
      <point x="466.944" y="1280" type="curve" smooth="yes"/>
      <point x="466.944" y="1315"/>
      <point x="484.987" y="1333.04"/>
      <point x="519.987" y="1333.04" type="curve" smooth="yes"/>
      <point x="554.987" y="1333.04"/>
      <point x="570.982" y="1315"/>
    </contour>
    <contour>
      <point x="382.976" y="1280" type="curve" smooth="yes"/>
      <point x="382.976" y="1245"/>
      <point x="364.933" y="1226.96"/>
      <point x="329.933" y="1226.96" type="curve" smooth="yes"/>
      <point x="294.933" y="1226.96"/>
      <point x="278.938" y="1245"/>
      <point x="278.938" y="1280" type="curve" smooth="yes"/>
      <point x="278.938" y="1315"/>
      <point x="294.933" y="1331"/>
      <point x="329.933" y="1331" type="curve" smooth="yes"/>
      <point x="364.933" y="1331"/>
      <point x="382.976" y="1315"/>
    </contour>
    <contour>
      <point x="261.939" y="1275.9" type="curve" smooth="yes"/>
      <point x="261.939" y="1224.9"/>
      <point x="220.984" y="1183.95"/>
      <point x="169.984" y="1183.95" type="curve" smooth="yes"/>
      <point x="118.984" y="1183.95"/>
      <point x="78.0287" y="1224.9"/>
      <point x="78.0287" y="1275.9" type="curve" smooth="yes"/>
      <point x="78.0287" y="1326.9"/>
      <point x="118.984" y="1368.06"/>
      <point x="169.984" y="1368.06" type="curve" smooth="yes"/>
      <point x="220.984" y="1368.06"/>
      <point x="261.939" y="1326.9"/>
    </contour>
    <contour>
      <point x="687.923" y="686.08" type="curve" smooth="yes"/>
      <point x="687.923" y="651.08"/>
      <point x="670.085" y="633.037"/>
      <point x="635.085" y="633.037" type="curve" smooth="yes"/>
      <point x="600.085" y="633.037"/>
      <point x="584.09" y="651.08" name=".hr01"/>
      <point x="584.09" y="686.08" type="curve" smooth="yes"/>
      <point x="584.09" y="721.08"/>
      <point x="600.085" y="737.075"/>
      <point x="635.085" y="737.075" type="curve" smooth="yes"/>
      <point x="670.085" y="737.075"/>
      <point x="687.923" y="721.08"/>
    </contour>
    <contour>
      <point x="207.053" y="1077.04" type="curve" smooth="yes"/>
      <point x="207.053" y="1042.04"/>
      <point x="188.01" y="1024"/>
      <point x="154.01" y="1024" type="curve" smooth="yes"/>
      <point x="119.01" y="1024"/>
      <point x="101.991" y="1042.04"/>
      <point x="101.991" y="1077.04" type="curve" smooth="yes"/>
      <point x="101.991" y="1112.04"/>
      <point x="119.01" y="1128.04"/>
      <point x="154.01" y="1128.04" type="curve" smooth="yes"/>
      <point x="188.01" y="1128.04"/>
      <point x="207.053" y="1112.04"/>
    </contour>
    <contour>
      <point x="422.093" y="686.08" type="curve" smooth="yes"/>
      <point x="422.093" y="651.08"/>
      <point x="403.049" y="633.037"/>
      <point x="369.049" y="633.037" type="curve" smooth="yes"/>
      <point x="334.049" y="633.037"/>
      <point x="317.03" y="651.08"/>
      <point x="317.03" y="686.08" type="curve" smooth="yes"/>
      <point x="317.03" y="721.08"/>
      <point x="334.049" y="737.075"/>
      <point x="369.049" y="737.075" type="curve" smooth="yes"/>
      <point x="403.049" y="737.075"/>
      <point x="422.093" y="721.08"/>
    </contour>
    <contour>
      <point x="207.053" y="872.039" type="curve" smooth="yes"/>
      <point x="207.053" y="838.039"/>
      <point x="188.01" y="818.995"/>
      <point x="154.01" y="818.995" type="curve" smooth="yes"/>
      <point x="119.01" y="818.995"/>
      <point x="101.991" y="838.039"/>
      <point x="101.991" y="872.039" type="curve" smooth="yes"/>
      <point x="101.991" y="907.039"/>
      <point x="119.01" y="924.058"/>
      <point x="154.01" y="924.058" type="curve" smooth="yes"/>
      <point x="188.01" y="924.058"/>
      <point x="207.053" y="907.039"/>
    </contour>
    <contour>
      <point x="983.04" y="53.0433" type="curve" smooth="yes"/>
      <point x="983.04" y="18.0433"/>
      <point x="964.997" y="0"/>
      <point x="929.997" y="0" type="curve" smooth="yes"/>
      <point x="894.997" y="0"/>
      <point x="879.001" y="18.0432"/>
      <point x="879.001" y="53.0432" type="curve" smooth="yes"/>
      <point x="879.001" y="88.0432"/>
      <point x="894.997" y="104.038"/>
      <point x="929.997" y="104.038" type="curve" smooth="yes"/>
      <point x="964.997" y="104.038"/>
      <point x="983.04" y="88.0432"/>
    </contour>
    <contour>
      <point x="207.053" y="668.057" type="curve" smooth="yes"/>
      <point x="207.053" y="633.057"/>
      <point x="188.01" y="613.99"/>
      <point x="154.01" y="613.99" type="curve" smooth="yes"/>
      <point x="119.01" y="613.99"/>
      <point x="101.991" y="633.057"/>
      <point x="101.991" y="668.057" type="curve" smooth="yes"/>
      <point x="101.991" y="702.057"/>
      <point x="119.01" y="719.053"/>
      <point x="154.01" y="719.053" type="curve" smooth="yes"/>
      <point x="188.01" y="719.053"/>
      <point x="207.053" y="702.057"/>
    </contour>
    <contour>
      <point x="778.035" y="53.0433" type="curve" smooth="yes" name=".hr02"/>
      <point x="778.035" y="18.0433"/>
      <point x="759.992" y="0"/>
      <point x="724.992" y="0" type="curve" smooth="yes" name=".hr03"/>
      <point x="689.992" y="0"/>
      <point x="673.997" y="18.0432"/>
      <point x="673.997" y="53.0432" type="curve" smooth="yes"/>
      <point x="673.997" y="88.0432"/>
      <point x="689.992" y="104.038"/>
      <point x="724.992" y="104.038" type="curve" smooth="yes"/>
      <point x="759.992" y="104.038"/>
      <point x="778.035" y="88.0432"/>
    </contour>
    <contour>
      <point x="207.053" y="463.053" type="curve" smooth="yes"/>
      <point x="207.053" y="428.053"/>
      <point x="188.01" y="410.01"/>
      <point x="154.01" y="410.01" type="curve" smooth="yes"/>
      <point x="119.01" y="410.01"/>
      <point x="101.991" y="428.053"/>
      <point x="101.991" y="463.053" type="curve" smooth="yes"/>
      <point x="101.991" y="498.053"/>
      <point x="119.01" y="514.048"/>
      <point x="154.01" y="514.048" type="curve" smooth="yes"/>
      <point x="188.01" y="514.048"/>
      <point x="207.053" y="498.053"/>
    </contour>
    <contour>
      <point x="573.031" y="53.0433" type="curve" smooth="yes"/>
      <point x="573.031" y="18.0433"/>
      <point x="554.987" y="0"/>
      <point x="519.987" y="0" type="curve" smooth="yes"/>
      <point x="484.987" y="0"/>
      <point x="468.992" y="18.0432"/>
      <point x="468.992" y="53.0432" type="curve" smooth="yes"/>
      <point x="468.992" y="88.0432"/>
      <point x="484.987" y="104.038"/>
      <point x="519.987" y="104.038" type="curve" smooth="yes"/>
      <point x="554.987" y="104.038"/>
      <point x="573.031" y="88.0432"/>
    </contour>
    <contour>
      <point x="207.053" y="258.048" type="curve" smooth="yes"/>
      <point x="207.053" y="223.048"/>
      <point x="188.01" y="205.005"/>
      <point x="154.01" y="205.005" type="curve" smooth="yes"/>
      <point x="119.01" y="205.005"/>
      <point x="101.991" y="223.048"/>
      <point x="101.991" y="258.048" type="curve" smooth="yes"/>
      <point x="101.991" y="293.048"/>
      <point x="119.01" y="309.043"/>
      <point x="154.01" y="309.043" type="curve" smooth="yes"/>
      <point x="188.01" y="309.043"/>
      <point x="207.053" y="293.048"/>
    </contour>
    <contour>
      <point x="393.011" y="53.0433" type="curve" smooth="yes"/>
      <point x="393.011" y="18.0433"/>
      <point x="374.968" y="0"/>
      <point x="339.968" y="0" type="curve" smooth="yes"/>
      <point x="304.968" y="0"/>
      <point x="288.973" y="18.0432"/>
      <point x="288.973" y="53.0432" type="curve" smooth="yes"/>
      <point x="288.973" y="88.0432"/>
      <point x="304.968" y="104.038"/>
      <point x="339.968" y="104.038" type="curve" smooth="yes"/>
      <point x="374.968" y="104.038"/>
      <point x="393.011" y="88.0432"/>
    </contour>
    <contour>
      <point x="207.053" y="53.0433" type="curve" smooth="yes"/>
      <point x="207.053" y="18.0433"/>
      <point x="188.01" y="0"/>
      <point x="154.01" y="0" type="curve" smooth="yes"/>
      <point x="119.01" y="0"/>
      <point x="101.991" y="18.0432"/>
      <point x="101.991" y="53.0432" type="curve" smooth="yes"/>
      <point x="101.991" y="88.0432"/>
      <point x="119.01" y="104.038"/>
      <point x="154.01" y="104.038" type="curve" smooth="yes"/>
      <point x="188.01" y="104.038"/>
      <point x="207.053" y="88.0432"/>
    </contour>
    <contour>
      <point x="242.074" y="1275.9" type="curve" smooth="yes"/>
      <point x="242.074" y="1314.9"/>
      <point x="208.984" y="1347.99"/>
      <point x="169.984" y="1347.99" type="curve" smooth="yes"/>
      <point x="130.984" y="1347.99"/>
      <point x="98.0993" y="1314.9"/>
      <point x="98.0993" y="1275.9" type="curve" smooth="yes"/>
      <point x="98.0993" y="1236.9"/>
      <point x="130.984" y="1204.02"/>
      <point x="169.984" y="1204.02" type="curve" smooth="yes"/>
      <point x="208.984" y="1204.02"/>
      <point x="242.074" y="1236.9"/>
    </contour>
  </outline>
</glyph>
<glyph name="F" format="2">
  <advance width="1126"/>
  <unicode hex="0046"/>
  <outline>
    <contour>
      <point x="980.992" y="1280" type="curve" smooth="yes"/>
      <point x="980.992" y="1245"/>
      <point x="964.997" y="1229"/>
      <point x="929.997" y="1229" type="curve" smooth="yes"/>
      <point x="894.997" y="1229"/>
      <point x="876.954" y="1245"/>
      <point x="876.954" y="1280" type="curve" smooth="yes"/>
      <point x="876.954" y="1315"/>
      <point x="894.997" y="1333.04"/>
      <point x="929.997" y="1333.04" type="curve" smooth="yes"/>
      <point x="964.997" y="1333.04"/>
      <point x="980.992" y="1315"/>
    </contour>
    <contour>
      <point x="775.987" y="1280" type="curve" smooth="yes"/>
      <point x="775.987" y="1245"/>
      <point x="759.992" y="1229"/>
      <point x="724.992" y="1229" type="curve" smooth="yes"/>
      <point x="689.992" y="1229"/>
      <point x="671.949" y="1245"/>
      <point x="671.949" y="1280" type="curve" smooth="yes"/>
      <point x="671.949" y="1315"/>
      <point x="689.992" y="1333.04"/>
      <point x="724.992" y="1333.04" type="curve" smooth="yes"/>
      <point x="759.992" y="1333.04"/>
      <point x="775.987" y="1315"/>
    </contour>
    <contour>
      <point x="570.982" y="1280" type="curve" smooth="yes"/>
      <point x="570.982" y="1245"/>
      <point x="554.987" y="1229"/>
      <point x="519.987" y="1229" type="curve" smooth="yes"/>
      <point x="484.987" y="1229"/>
      <point x="466.944" y="1245"/>
      <point x="466.944" y="1280" type="curve" smooth="yes"/>
      <point x="466.944" y="1315"/>
      <point x="484.987" y="1333.04"/>
      <point x="519.987" y="1333.04" type="curve" smooth="yes"/>
      <point x="554.987" y="1333.04"/>
      <point x="570.982" y="1315"/>
    </contour>
    <contour>
      <point x="382.976" y="1280" type="curve" smooth="yes"/>
      <point x="382.976" y="1245"/>
      <point x="364.933" y="1226.96"/>
      <point x="329.933" y="1226.96" type="curve" smooth="yes"/>
      <point x="294.933" y="1226.96"/>
      <point x="278.938" y="1245"/>
      <point x="278.938" y="1280" type="curve" smooth="yes"/>
      <point x="278.938" y="1315"/>
      <point x="294.933" y="1331"/>
      <point x="329.933" y="1331" type="curve" smooth="yes"/>
      <point x="364.933" y="1331"/>
      <point x="382.976" y="1315"/>
    </contour>
    <contour>
      <point x="260.096" y="1275.9" type="curve" smooth="yes"/>
      <point x="260.096" y="1224.9"/>
      <point x="218.936" y="1183.95"/>
      <point x="167.936" y="1183.95" type="curve" smooth="yes"/>
      <point x="116.936" y="1183.95"/>
      <point x="75.9808" y="1224.9"/>
      <point x="75.9808" y="1275.9" type="curve" smooth="yes"/>
      <point x="75.9808" y="1326.9"/>
      <point x="116.936" y="1368.06"/>
      <point x="167.936" y="1368.06" type="curve" smooth="yes"/>
      <point x="218.936" y="1368.06"/>
      <point x="260.096" y="1326.9"/>
    </contour>
    <contour>
      <point x="687.923" y="686.08" type="curve" smooth="yes"/>
      <point x="687.923" y="651.08"/>
      <point x="670.085" y="633.037"/>
      <point x="635.085" y="633.037" type="curve" smooth="yes"/>
      <point x="600.085" y="633.037"/>
      <point x="584.09" y="651.08" name=".hr01"/>
      <point x="584.09" y="686.08" type="curve" smooth="yes"/>
      <point x="584.09" y="721.08"/>
      <point x="600.085" y="737.075"/>
      <point x="635.085" y="737.075" type="curve" smooth="yes"/>
      <point x="670.085" y="737.075"/>
      <point x="687.923" y="721.08"/>
    </contour>
    <contour>
      <point x="207.053" y="1077.04" type="curve" smooth="yes"/>
      <point x="207.053" y="1042.04"/>
      <point x="188.01" y="1024"/>
      <point x="154.01" y="1024" type="curve" smooth="yes"/>
      <point x="119.01" y="1024"/>
      <point x="101.991" y="1042.04"/>
      <point x="101.991" y="1077.04" type="curve" smooth="yes"/>
      <point x="101.991" y="1112.04"/>
      <point x="119.01" y="1128.04"/>
      <point x="154.01" y="1128.04" type="curve" smooth="yes"/>
      <point x="188.01" y="1128.04"/>
      <point x="207.053" y="1112.04"/>
    </contour>
    <contour>
      <point x="422.093" y="686.08" type="curve" smooth="yes"/>
      <point x="422.093" y="651.08"/>
      <point x="403.049" y="633.037"/>
      <point x="369.049" y="633.037" type="curve" smooth="yes"/>
      <point x="334.049" y="633.037"/>
      <point x="317.03" y="651.08"/>
      <point x="317.03" y="686.08" type="curve" smooth="yes"/>
      <point x="317.03" y="721.08"/>
      <point x="334.049" y="737.075"/>
      <point x="369.049" y="737.075" type="curve" smooth="yes"/>
      <point x="403.049" y="737.075"/>
      <point x="422.093" y="721.08"/>
    </contour>
    <contour>
      <point x="207.053" y="872.039" type="curve" smooth="yes"/>
      <point x="207.053" y="838.039"/>
      <point x="188.01" y="818.995"/>
      <point x="154.01" y="818.995" type="curve" smooth="yes"/>
      <point x="119.01" y="818.995"/>
      <point x="101.991" y="838.039"/>
      <point x="101.991" y="872.039" type="curve" smooth="yes"/>
      <point x="101.991" y="907.039"/>
      <point x="119.01" y="924.058"/>
      <point x="154.01" y="924.058" type="curve" smooth="yes"/>
      <point x="188.01" y="924.058"/>
      <point x="207.053" y="907.039"/>
    </contour>
    <contour>
      <point x="207.053" y="668.057" type="curve" smooth="yes"/>
      <point x="207.053" y="633.057"/>
      <point x="188.01" y="613.99"/>
      <point x="154.01" y="613.99" type="curve" smooth="yes"/>
      <point x="119.01" y="613.99"/>
      <point x="101.991" y="633.057"/>
      <point x="101.991" y="668.057" type="curve" smooth="yes"/>
      <point x="101.991" y="702.057"/>
      <point x="119.01" y="719.053"/>
      <point x="154.01" y="719.053" type="curve" smooth="yes"/>
      <point x="188.01" y="719.053"/>
      <point x="207.053" y="702.057" name=".hr02"/>
    </contour>
    <contour>
      <point x="207.053" y="463.053" type="curve" smooth="yes"/>
      <point x="207.053" y="428.053"/>
      <point x="188.01" y="410.01" name=".hr03"/>
      <point x="154.01" y="410.01" type="curve" smooth="yes"/>
      <point x="119.01" y="410.01"/>
      <point x="101.991" y="428.053"/>
      <point x="101.991" y="463.053" type="curve" smooth="yes"/>
      <point x="101.991" y="498.053"/>
      <point x="119.01" y="514.048"/>
      <point x="154.01" y="514.048" type="curve" smooth="yes"/>
      <point x="188.01" y="514.048"/>
      <point x="207.053" y="498.053"/>
    </contour>
    <contour>
      <point x="207.053" y="258.048" type="curve" smooth="yes"/>
      <point x="207.053" y="223.048"/>
      <point x="188.01" y="205.005"/>
      <point x="154.01" y="205.005" type="curve" smooth="yes"/>
      <point x="119.01" y="205.005"/>
      <point x="101.991" y="223.048"/>
      <point x="101.991" y="258.048" type="curve" smooth="yes"/>
      <point x="101.991" y="293.048"/>
      <point x="119.01" y="309.043"/>
      <point x="154.01" y="309.043" type="curve" smooth="yes"/>
      <point x="188.01" y="309.043"/>
      <point x="207.053" y="293.048"/>
    </contour>
    <contour>
      <point x="207.053" y="53.0433" type="curve" smooth="yes"/>
      <point x="207.053" y="18.0433"/>
      <point x="188.01" y="0"/>
      <point x="154.01" y="0" type="curve" smooth="yes"/>
      <point x="119.01" y="0"/>
      <point x="101.991" y="18.0432"/>
      <point x="101.991" y="53.0432" type="curve" smooth="yes"/>
      <point x="101.991" y="88.0432"/>
      <point x="119.01" y="104.038"/>
      <point x="154.01" y="104.038" type="curve" smooth="yes"/>
      <point x="188.01" y="104.038"/>
      <point x="207.053" y="88.0432"/>
    </contour>
    <contour>
      <point x="240.025" y="1275.9" type="curve" smooth="yes"/>
      <point x="240.025" y="1314.9"/>
      <point x="206.936" y="1347.99"/>
      <point x="167.936" y="1347.99" type="curve" smooth="yes"/>
      <point x="128.936" y="1347.99"/>
      <point x="96.0512" y="1314.9"/>
      <point x="96.0512" y="1275.9" type="curve" smooth="yes"/>
      <point x="96.0512" y="1236.9"/>
      <point x="128.936" y="1204.02"/>
      <point x="167.936" y="1204.02" type="curve" smooth="yes"/>
      <point x="206.936" y="1204.02"/>
      <point x="240.025" y="1236.9"/>
    </contour>
  </outline>
</glyph>
<glyph name="G" format="2">
  <advance width="1536"/>
  <unicode hex="0047"/>
  <outline>
    <contour>
      <point x="1310.92" y="1164.9" type="curve" smooth="yes"/>
      <point x="1310.92" y="1113.9"/>
      <point x="1269.97" y="1072.95"/>
      <point x="1218.97" y="1072.95" type="curve" smooth="yes"/>
      <point x="1166.97" y="1072.95"/>
      <point x="1125.99" y="1113.9"/>
      <point x="1125.99" y="1164.9" type="curve" smooth="yes"/>
      <point x="1125.99" y="1216.9"/>
      <point x="1166.97" y="1257.06" name=".hr01"/>
      <point x="1218.97" y="1257.06" type="curve" smooth="yes"/>
      <point x="1269.97" y="1257.06"/>
      <point x="1310.92" y="1216.9" name=".hr02"/>
    </contour>
    <contour>
      <point x="1080.93" y="1269.96" type="curve" smooth="yes"/>
      <point x="1080.93" y="1234.96"/>
      <point x="1063.1" y="1216.92"/>
      <point x="1028.1" y="1216.92" type="curve" smooth="yes"/>
      <point x="993.096" y="1216.92"/>
      <point x="977.101" y="1234.96"/>
      <point x="977.101" y="1269.96" type="curve" smooth="yes"/>
      <point x="977.101" y="1304.96"/>
      <point x="993.096" y="1320.96"/>
      <point x="1028.1" y="1320.96" type="curve" smooth="yes"/>
      <point x="1063.1" y="1320.96"/>
      <point x="1080.93" y="1304.96"/>
    </contour>
    <contour>
      <point x="841.933" y="1309.08" type="curve" smooth="yes"/>
      <point x="841.933" y="1274.08"/>
      <point x="824.937" y="1257.06"/>
      <point x="790.937" y="1257.06" type="curve" smooth="yes"/>
      <point x="755.937" y="1257.06" name=".hr03"/>
      <point x="737.075" y="1274.08"/>
      <point x="737.075" y="1309.08" type="curve" smooth="yes"/>
      <point x="737.075" y="1343.08"/>
      <point x="755.937" y="1361.92"/>
      <point x="790.937" y="1361.92" type="curve" smooth="yes"/>
      <point x="824.937" y="1361.92"/>
      <point x="841.933" y="1343.08"/>
    </contour>
    <contour>
      <point x="1468.01" y="633.037" type="curve" smooth="yes"/>
      <point x="1468.01" y="598.037"/>
      <point x="1449.96" y="579.993"/>
      <point x="1414.96" y="579.993" type="curve" smooth="yes"/>
      <point x="1379.96" y="579.993"/>
      <point x="1363.97" y="598.037"/>
      <point x="1363.97" y="633.037" type="curve" smooth="yes"/>
      <point x="1363.97" y="668.037"/>
      <point x="1379.96" y="684.032"/>
      <point x="1414.96" y="684.032" type="curve" smooth="yes"/>
      <point x="1449.96" y="684.032"/>
      <point x="1468.01" y="668.037"/>
    </contour>
    <contour>
      <point x="1264.03" y="633.037" type="curve" smooth="yes"/>
      <point x="1264.03" y="598.037"/>
      <point x="1244.96" y="579.993"/>
      <point x="1209.96" y="579.993" type="curve" smooth="yes"/>
      <point x="1175.96" y="579.993"/>
      <point x="1158.96" y="598.037"/>
      <point x="1158.96" y="633.037" type="curve" smooth="yes"/>
      <point x="1158.96" y="668.037"/>
      <point x="1175.96" y="684.032"/>
      <point x="1209.96" y="684.032" type="curve" smooth="yes"/>
      <point x="1244.96" y="684.032"/>
      <point x="1264.03" y="668.037"/>
    </contour>
    <contour>
      <point x="600.064" y="1272.01" type="curve" smooth="yes"/>
      <point x="600.064" y="1237.01"/>
      <point x="584.069" y="1221.02"/>
      <point x="549.069" y="1221.02" type="curve" smooth="yes"/>
      <point x="514.069" y="1221.02"/>
      <point x="496.026" y="1237.01"/>
      <point x="496.026" y="1272.01" type="curve" smooth="yes"/>
      <point x="496.026" y="1307.01" name=".hr04"/>
      <point x="514.069" y="1325.06"/>
      <point x="549.069" y="1325.06" type="curve" smooth="yes"/>
      <point x="584.069" y="1325.06" name=".hr05"/>
      <point x="600.064" y="1307.01"/>
    </contour>
    <contour>
      <point x="1398.99" y="387.072" type="curve" smooth="yes"/>
      <point x="1398.99" y="352.072" name=".hr06"/>
      <point x="1379.95" y="334.029"/>
      <point x="1345.95" y="334.029" type="curve" smooth="yes"/>
      <point x="1310.95" y="334.029"/>
      <point x="1293.93" y="352.072"/>
      <point x="1293.93" y="387.072" type="curve" smooth="yes"/>
      <point x="1293.93" y="422.072"/>
      <point x="1310.95" y="438.067"/>
      <point x="1345.95" y="438.067" type="curve" smooth="yes"/>
      <point x="1379.95" y="438.067" name=".hr07"/>
      <point x="1398.99" y="422.072" name=".hr08"/>
    </contour>
    <contour>
      <point x="1059.02" y="633.037" type="curve" smooth="yes"/>
      <point x="1059.02" y="598.037"/>
      <point x="1039.98" y="579.993" name=".hr09"/>
      <point x="1005.98" y="579.993" type="curve" smooth="yes"/>
      <point x="970.978" y="579.993"/>
      <point x="953.959" y="598.037" name=".hr10"/>
      <point x="953.959" y="633.037" type="curve" smooth="yes"/>
      <point x="953.959" y="668.037"/>
      <point x="970.978" y="684.032"/>
      <point x="1005.98" y="684.032" type="curve" smooth="yes"/>
      <point x="1039.98" y="684.032"/>
      <point x="1059.02" y="668.037"/>
    </contour>
    <contour>
      <point x="403.047" y="1140.94" type="curve" smooth="yes"/>
      <point x="403.047" y="1105.94"/>
      <point x="385.003" y="1087.08"/>
      <point x="350.003" y="1087.08" type="curve" smooth="yes"/>
      <point x="315.003" y="1087.08"/>
      <point x="299.008" y="1105.94"/>
      <point x="299.008" y="1140.94" type="curve" smooth="yes"/>
      <point x="299.008" y="1175.94"/>
      <point x="315.003" y="1191.94"/>
      <point x="350.003" y="1191.94" type="curve" smooth="yes"/>
      <point x="385.003" y="1191.94"/>
      <point x="403.047" y="1175.94"/>
    </contour>
    <contour>
      <point x="854.016" y="633.037" type="curve" smooth="yes"/>
      <point x="854.016" y="598.037"/>
      <point x="835.973" y="579.993"/>
      <point x="800.973" y="579.993" type="curve" smooth="yes"/>
      <point x="765.973" y="579.993"/>
      <point x="749.977" y="598.037"/>
      <point x="749.977" y="633.037" type="curve" smooth="yes"/>
      <point x="749.977" y="668.037"/>
      <point x="765.973" y="684.032"/>
      <point x="800.973" y="684.032" type="curve" smooth="yes"/>
      <point x="835.973" y="684.032"/>
      <point x="854.016" y="668.037"/>
    </contour>
    <contour>
      <point x="1261.98" y="215.04" type="curve" smooth="yes"/>
      <point x="1261.98" y="180.04"/>
      <point x="1242.91" y="161.997"/>
      <point x="1207.91" y="161.997" type="curve" smooth="yes"/>
      <point x="1173.91" y="161.997"/>
      <point x="1156.92" y="180.04"/>
      <point x="1156.92" y="215.04" type="curve" smooth="yes"/>
      <point x="1156.92" y="250.04"/>
      <point x="1173.91" y="266.035"/>
      <point x="1207.91" y="266.035" type="curve" smooth="yes"/>
      <point x="1242.91" y="266.035"/>
      <point x="1261.98" y="250.04"/>
    </contour>
    <contour>
      <point x="278.938" y="980.992" type="curve" smooth="yes"/>
      <point x="278.938" y="945.992"/>
      <point x="260.075" y="927.949"/>
      <point x="225.075" y="927.949" type="curve" smooth="yes"/>
      <point x="190.075" y="927.949"/>
      <point x="174.08" y="945.992"/>
      <point x="174.08" y="980.992" type="curve" smooth="yes"/>
      <point x="174.08" y="1015.99"/>
      <point x="190.075" y="1031.99"/>
      <point x="225.075" y="1031.99" type="curve" smooth="yes"/>
      <point x="260.075" y="1031.99"/>
      <point x="278.938" y="1015.99"/>
    </contour>
    <contour>
      <point x="1062.91" y="91.9553" type="curve" smooth="yes"/>
      <point x="1062.91" y="56.9553"/>
      <point x="1044.07" y="38.912"/>
      <point x="1010.07" y="38.912" type="curve" smooth="yes"/>
      <point x="975.073" y="38.912"/>
      <point x="958.054" y="56.9553"/>
      <point x="958.054" y="91.9553" type="curve" smooth="yes"/>
      <point x="958.054" y="126.955"/>
      <point x="975.073" y="142.951"/>
      <point x="1010.07" y="142.951" type="curve" smooth="yes"/>
      <point x="1044.07" y="142.951"/>
      <point x="1062.91" y="126.955"/>
    </contour>
    <contour>
      <point x="212.992" y="765.952" type="curve" smooth="yes"/>
      <point x="212.992" y="730.952"/>
      <point x="194.949" y="712.909"/>
      <point x="159.949" y="712.909" type="curve" smooth="yes"/>
      <point x="124.949" y="712.909"/>
      <point x="108.954" y="730.952"/>
      <point x="108.954" y="765.952" type="curve" smooth="yes"/>
      <point x="108.954" y="800.952"/>
      <point x="124.949" y="816.947"/>
      <point x="159.949" y="816.947" type="curve" smooth="yes"/>
      <point x="194.949" y="816.947"/>
      <point x="212.992" y="800.952"/>
    </contour>
    <contour>
      <point x="838.042" y="53.0433" type="curve" smooth="yes"/>
      <point x="838.042" y="18.0433"/>
      <point x="818.975" y="0"/>
      <point x="783.975" y="0" type="curve" smooth="yes"/>
      <point x="749.975" y="0"/>
      <point x="732.979" y="18.0432"/>
      <point x="732.979" y="53.0432" type="curve" smooth="yes"/>
      <point x="732.979" y="88.0432"/>
      <point x="749.975" y="104.038"/>
      <point x="783.975" y="104.038" type="curve" smooth="yes"/>
      <point x="818.975" y="104.038"/>
      <point x="838.042" y="88.0432"/>
    </contour>
    <contour>
      <point x="215.04" y="568.935" type="curve" smooth="yes"/>
      <point x="215.04" y="534.935"/>
      <point x="196.997" y="516.096"/>
      <point x="161.997" y="516.096" type="curve" smooth="yes"/>
      <point x="126.997" y="516.096" name=".hr11"/>
      <point x="111.001" y="534.935"/>
      <point x="111.001" y="568.935" type="curve" smooth="yes"/>
      <point x="111.001" y="603.935" name=".hr12"/>
      <point x="126.997" y="620.954"/>
      <point x="161.997" y="620.954" type="curve" smooth="yes"/>
      <point x="196.997" y="620.954" name=".hr13"/>
      <point x="215.04" y="603.935"/>
    </contour>
    <contour>
      <point x="620.953" y="88.064" type="curve" smooth="yes"/>
      <point x="620.953" y="53.064"/>
      <point x="602.091" y="35.0208"/>
      <point x="567.091" y="35.0208" type="curve" smooth="yes"/>
      <point x="532.091" y="35.0208"/>
      <point x="516.096" y="53.064"/>
      <point x="516.096" y="88.064" type="curve" smooth="yes"/>
      <point x="516.096" y="123.064"/>
      <point x="532.091" y="139.059"/>
      <point x="567.091" y="139.059" type="curve" smooth="yes"/>
      <point x="602.091" y="139.059"/>
      <point x="620.953" y="123.064"/>
    </contour>
    <contour>
      <point x="274.022" y="395.059" type="curve" smooth="yes"/>
      <point x="274.022" y="360.059"/>
      <point x="255.979" y="342.016"/>
      <point x="220.979" y="342.016" type="curve" smooth="yes"/>
      <point x="185.979" y="342.016"/>
      <point x="169.984" y="360.059"/>
      <point x="169.984" y="395.059" type="curve" smooth="yes" name=".hr14"/>
      <point x="169.984" y="430.059"/>
      <point x="185.979" y="446.055"/>
      <point x="220.979" y="446.055" type="curve" smooth="yes"/>
      <point x="255.979" y="446.055"/>
      <point x="274.022" y="430.059"/>
    </contour>
    <contour>
      <point x="415.949" y="217.088" type="curve" smooth="yes"/>
      <point x="415.949" y="182.088"/>
      <point x="397.087" y="164.045"/>
      <point x="362.087" y="164.045" type="curve" smooth="yes"/>
      <point x="328.087" y="164.045"/>
      <point x="311.091" y="182.088"/>
      <point x="311.091" y="217.088" type="curve" smooth="yes"/>
      <point x="311.091" y="252.088"/>
      <point x="328.087" y="268.083"/>
      <point x="362.087" y="268.083" type="curve" smooth="yes"/>
      <point x="397.087" y="268.083"/>
      <point x="415.949" y="252.088"/>
    </contour>
    <contour>
      <point x="1290.04" y="1164.9" type="curve" smooth="yes"/>
      <point x="1290.04" y="1203.9"/>
      <point x="1256.97" y="1236.99"/>
      <point x="1218.97" y="1236.99" type="curve" smooth="yes"/>
      <point x="1179.97" y="1236.99"/>
      <point x="1147.08" y="1203.9"/>
      <point x="1147.08" y="1164.9" type="curve" smooth="yes"/>
      <point x="1147.08" y="1125.9"/>
      <point x="1179.97" y="1094.04"/>
      <point x="1218.97" y="1094.04" type="curve" smooth="yes"/>
      <point x="1256.97" y="1094.04"/>
      <point x="1290.04" y="1125.9"/>
    </contour>
  </outline>
</glyph>
<glyph name="J" format="2">
  <advance width="1434"/>
  <unicode hex="004A"/>
  <outline>
    <contour>
      <point x="1355.98" y="1280" type="curve" smooth="yes"/>
      <point x="1355.98" y="1245"/>
      <point x="1336.94" y="1226.96"/>
      <point x="1302.94" y="1226.96" type="curve" smooth="yes"/>
      <point x="1267.94" y="1226.96"/>
      <point x="1250.92" y="1245"/>
      <point x="1250.92" y="1280" type="curve" smooth="yes"/>
      <point x="1250.92" y="1315"/>
      <point x="1267.94" y="1331"/>
      <point x="1302.94" y="1331" type="curve" smooth="yes"/>
      <point x="1336.94" y="1331"/>
      <point x="1355.98" y="1315"/>
    </contour>
    <contour>
      <point x="1153.02" y="1282.05" type="curve" smooth="yes"/>
      <point x="1153.02" y="1247.05"/>
      <point x="1134.98" y="1229"/>
      <point x="1099.98" y="1229" type="curve" smooth="yes"/>
      <point x="1064.98" y="1229"/>
      <point x="1048.99" y="1247.05"/>
      <point x="1048.99" y="1282.05" type="curve" smooth="yes"/>
      <point x="1048.99" y="1317.05"/>
      <point x="1064.98" y="1333.04"/>
      <point x="1099.98" y="1333.04" type="curve" smooth="yes"/>
      <point x="1134.98" y="1333.04"/>
      <point x="1153.02" y="1317.05"/>
    </contour>
    <contour>
      <point x="988.979" y="1275.9" type="curve" smooth="yes"/>
      <point x="988.979" y="1224.9"/>
      <point x="948.024" y="1183.95"/>
      <point x="897.024" y="1183.95" type="curve" smooth="yes"/>
      <point x="846.024" y="1183.95"/>
      <point x="805.069" y="1224.9"/>
      <point x="805.069" y="1275.9" type="curve" smooth="yes"/>
      <point x="805.069" y="1326.9"/>
      <point x="846.024" y="1368.06"/>
      <point x="897.024" y="1368.06" type="curve" smooth="yes"/>
      <point x="948.024" y="1368.06"/>
      <point x="988.979" y="1326.9"/>
    </contour>
    <contour>
      <point x="960.922" y="1077.04" type="curve" smooth="yes"/>
      <point x="960.922" y="1042.04"/>
      <point x="942.059" y="1024"/>
      <point x="907.059" y="1024" type="curve" smooth="yes"/>
      <point x="872.059" y="1024"/>
      <point x="856.064" y="1042.04"/>
      <point x="856.064" y="1077.04" type="curve" smooth="yes"/>
      <point x="856.064" y="1112.04"/>
      <point x="872.059" y="1128.04"/>
      <point x="907.059" y="1128.04" type="curve" smooth="yes"/>
      <point x="942.059" y="1128.04"/>
      <point x="960.922" y="1112.04"/>
    </contour>
    <contour>
      <point x="743.015" y="1282.05" type="curve" smooth="yes"/>
      <point x="743.015" y="1247.05"/>
      <point x="724.971" y="1229"/>
      <point x="689.971" y="1229" type="curve" smooth="yes"/>
      <point x="654.971" y="1229"/>
      <point x="638.976" y="1247.05"/>
      <point x="638.976" y="1282.05" type="curve" smooth="yes"/>
      <point x="638.976" y="1317.05"/>
      <point x="654.971" y="1333.04"/>
      <point x="689.971" y="1333.04" type="curve" smooth="yes"/>
      <point x="724.971" y="1333.04"/>
      <point x="743.015" y="1317.05"/>
    </contour>
    <contour>
      <point x="965.018" y="907.059" type="curve" smooth="yes"/>
      <point x="965.018" y="872.059"/>
      <point x="945.951" y="854.016"/>
      <point x="910.951" y="854.016" type="curve" smooth="yes"/>
      <point x="876.951" y="854.016"/>
      <point x="859.955" y="872.059"/>
      <point x="859.955" y="907.059" type="curve" smooth="yes"/>
      <point x="859.955" y="942.059"/>
      <point x="876.951" y="958.055"/>
      <point x="910.951" y="958.055" type="curve" smooth="yes"/>
      <point x="945.951" y="958.055"/>
      <point x="965.018" y="942.059"/>
    </contour>
    <contour>
      <point x="539.034" y="1282.05" type="curve" smooth="yes"/>
      <point x="539.034" y="1247.05"/>
      <point x="519.967" y="1229"/>
      <point x="484.967" y="1229" type="curve" smooth="yes"/>
      <point x="450.967" y="1229"/>
      <point x="433.971" y="1247.05"/>
      <point x="433.971" y="1282.05" type="curve" smooth="yes"/>
      <point x="433.971" y="1317.05"/>
      <point x="450.967" y="1333.04"/>
      <point x="484.967" y="1333.04" type="curve" smooth="yes"/>
      <point x="519.967" y="1333.04"/>
      <point x="539.034" y="1317.05"/>
    </contour>
    <contour>
      <point x="965.018" y="702.055" type="curve" smooth="yes"/>
      <point x="965.018" y="668.055"/>
      <point x="945.951" y="649.011"/>
      <point x="910.951" y="649.011" type="curve" smooth="yes"/>
      <point x="876.951" y="649.011"/>
      <point x="859.955" y="668.055"/>
      <point x="859.955" y="702.055" type="curve" smooth="yes"/>
      <point x="859.955" y="737.055"/>
      <point x="876.951" y="754.074"/>
      <point x="910.951" y="754.074" type="curve" smooth="yes"/>
      <point x="945.951" y="754.074"/>
      <point x="965.018" y="737.055"/>
    </contour>
    <contour>
      <point x="965.018" y="498.073" type="curve" smooth="yes"/>
      <point x="965.018" y="463.073"/>
      <point x="945.951" y="444.006"/>
      <point x="910.951" y="444.006" type="curve" smooth="yes"/>
      <point x="876.951" y="444.006"/>
      <point x="859.955" y="463.073"/>
      <point x="859.955" y="498.073" type="curve" smooth="yes"/>
      <point x="859.955" y="532.073"/>
      <point x="876.951" y="549.069"/>
      <point x="910.951" y="549.069" type="curve" smooth="yes"/>
      <point x="945.951" y="549.069"/>
      <point x="965.018" y="532.073"/>
    </contour>
    <contour>
      <point x="908.903" y="256" type="curve" smooth="yes"/>
      <point x="908.903" y="221"/>
      <point x="891.064" y="202.957"/>
      <point x="856.064" y="202.957" type="curve" smooth="yes"/>
      <point x="821.064" y="202.957"/>
      <point x="805.069" y="221"/>
      <point x="805.069" y="256" type="curve" smooth="yes"/>
      <point x="805.069" y="291"/>
      <point x="821.064" y="306.995"/>
      <point x="856.064" y="306.995" type="curve" smooth="yes" name=".hr01"/>
      <point x="891.064" y="306.995"/>
      <point x="908.903" y="291"/>
    </contour>
    <contour>
      <point x="773.939" y="113.049" type="curve" smooth="yes"/>
      <point x="773.939" y="78.0495"/>
      <point x="756.101" y="58.9825"/>
      <point x="721.101" y="58.9825" type="curve" smooth="yes"/>
      <point x="686.101" y="58.9825"/>
      <point x="669.901" y="78.0495"/>
      <point x="669.901" y="113.049" type="curve" smooth="yes"/>
      <point x="669.901" y="147.049"/>
      <point x="686.101" y="164.045"/>
      <point x="721.101" y="164.045" type="curve" smooth="yes"/>
      <point x="756.101" y="164.045"/>
      <point x="773.939" y="147.049"/>
    </contour>
    <contour>
      <point x="558.899" y="53.0433" type="curve" smooth="yes"/>
      <point x="558.899" y="18.0433"/>
      <point x="541.061" y="0"/>
      <point x="506.061" y="0" type="curve" smooth="yes"/>
      <point x="471.061" y="0"/>
      <point x="455.065" y="18.0432"/>
      <point x="455.065" y="53.0432" type="curve" smooth="yes"/>
      <point x="455.065" y="88.0432"/>
      <point x="471.061" y="104.038"/>
      <point x="506.061" y="104.038" type="curve" smooth="yes"/>
      <point x="541.061" y="104.038"/>
      <point x="558.899" y="88.0432"/>
    </contour>
    <contour>
      <point x="185.958" y="371.098" type="curve" smooth="yes"/>
      <point x="185.958" y="336.098" name=".hr02"/>
      <point x="167.915" y="317.031"/>
      <point x="132.915" y="317.031" type="curve" smooth="yes"/>
      <point x="97.9152" y="317.031"/>
      <point x="81.92" y="336.098"/>
      <point x="81.92" y="371.098" type="curve" smooth="yes"/>
      <point x="81.92" y="406.098"/>
      <point x="97.9152" y="422.093"/>
      <point x="132.915" y="422.093" type="curve" smooth="yes"/>
      <point x="167.915" y="422.093"/>
      <point x="185.958" y="406.098"/>
    </contour>
    <contour>
      <point x="412.057" y="81.92" type="curve" smooth="yes"/>
      <point x="412.057" y="46.92"/>
      <point x="392.99" y="29.0815"/>
      <point x="357.99" y="29.0815" type="curve" smooth="yes"/>
      <point x="323.99" y="29.0815"/>
      <point x="306.995" y="46.92"/>
      <point x="306.995" y="81.92" type="curve" smooth="yes"/>
      <point x="306.995" y="116.92"/>
      <point x="323.99" y="132.915"/>
      <point x="357.99" y="132.915" type="curve" smooth="yes"/>
      <point x="392.99" y="132.915"/>
      <point x="412.057" y="116.92"/>
    </contour>
    <contour>
      <point x="268.083" y="207.053" type="curve" smooth="yes"/>
      <point x="268.083" y="172.053"/>
      <point x="250.04" y="154.01"/>
      <point x="215.04" y="154.01" type="curve" smooth="yes" name=".hr03"/>
      <point x="180.04" y="154.01"/>
      <point x="164.045" y="172.053"/>
      <point x="164.045" y="207.053" type="curve" smooth="yes"/>
      <point x="164.045" y="242.053"/>
      <point x="180.04" y="258.048"/>
      <point x="215.04" y="258.048" type="curve" smooth="yes"/>
      <point x="250.04" y="258.048"/>
      <point x="268.083" y="242.053"/>
    </contour>
    <contour>
      <point x="968.909" y="1275.9" type="curve" smooth="yes"/>
      <point x="968.909" y="1314.9"/>
      <point x="936.024" y="1347.99"/>
      <point x="897.024" y="1347.99" type="curve" smooth="yes"/>
      <point x="858.024" y="1347.99"/>
      <point x="824.935" y="1314.9"/>
      <point x="824.935" y="1275.9" type="curve" smooth="yes"/>
      <point x="824.935" y="1236.9"/>
      <point x="858.024" y="1204.02"/>
      <point x="897.024" y="1204.02" type="curve" smooth="yes"/>
      <point x="936.024" y="1204.02"/>
      <point x="968.909" y="1236.9"/>
    </contour>
  </outline>
</glyph>
<glyph name="M" format="2">
  <advance width="1536"/>
  <unicode hex="004D"/>
  <outline>
    <contour>
      <point x="1446.09" y="1282.05" type="curve" smooth="yes"/>
      <point x="1446.09" y="1247.05"/>
      <point x="1427.05" y="1229"/>
      <point x="1393.05" y="1229" type="curve" smooth="yes"/>
      <point x="1358.05" y="1229"/>
      <point x="1341.03" y="1247.05"/>
      <point x="1341.03" y="1282.05" type="curve" smooth="yes"/>
      <point x="1341.03" y="1317.05"/>
      <point x="1358.05" y="1333.04"/>
      <point x="1393.05" y="1333.04" type="curve" smooth="yes"/>
      <point x="1427.05" y="1333.04"/>
      <point x="1446.09" y="1317.05"/>
    </contour>
    <contour>
      <point x="1446.09" y="1077.04" type="curve" smooth="yes"/>
      <point x="1446.09" y="1042.04"/>
      <point x="1427.05" y="1024"/>
      <point x="1393.05" y="1024" type="curve" smooth="yes"/>
      <point x="1358.05" y="1024"/>
      <point x="1341.03" y="1042.04"/>
      <point x="1341.03" y="1077.04" type="curve" smooth="yes"/>
      <point x="1341.03" y="1112.04"/>
      <point x="1358.05" y="1128.04"/>
      <point x="1393.05" y="1128.04" type="curve" smooth="yes"/>
      <point x="1427.05" y="1128.04"/>
      <point x="1446.09" y="1112.04"/>
    </contour>
    <contour>
      <point x="1446.09" y="872.039" type="curve" smooth="yes"/>
      <point x="1446.09" y="838.039"/>
      <point x="1427.05" y="818.995"/>
      <point x="1393.05" y="818.995" type="curve" smooth="yes"/>
      <point x="1358.05" y="818.995"/>
      <point x="1341.03" y="838.039"/>
      <point x="1341.03" y="872.039" type="curve" smooth="yes"/>
      <point x="1341.03" y="907.039"/>
      <point x="1358.05" y="924.058"/>
      <point x="1393.05" y="924.058" type="curve" smooth="yes"/>
      <point x="1427.05" y="924.058"/>
      <point x="1446.09" y="907.039"/>
    </contour>
    <contour>
      <point x="1302.94" y="968.909" type="curve" smooth="yes"/>
      <point x="1302.94" y="933.909"/>
      <point x="1284.08" y="915.047"/>
      <point x="1249.08" y="915.047" type="curve" smooth="yes"/>
      <point x="1214.08" y="915.047"/>
      <point x="1198.08" y="933.909" name=".hr01"/>
      <point x="1198.08" y="968.909" type="curve" smooth="yes"/>
      <point x="1198.08" y="1003.91"/>
      <point x="1214.08" y="1019.9"/>
      <point x="1249.08" y="1019.9" type="curve" smooth="yes"/>
      <point x="1284.08" y="1019.9"/>
      <point x="1302.94" y="1003.91"/>
    </contour>
    <contour>
      <point x="1446.09" y="668.057" type="curve" smooth="yes"/>
      <point x="1446.09" y="633.057"/>
      <point x="1427.05" y="613.99"/>
      <point x="1393.05" y="613.99" type="curve" smooth="yes"/>
      <point x="1358.05" y="613.99"/>
      <point x="1341.03" y="633.057"/>
      <point x="1341.03" y="668.057" type="curve" smooth="yes"/>
      <point x="1341.03" y="702.057"/>
      <point x="1358.05" y="719.053"/>
      <point x="1393.05" y="719.053" type="curve" smooth="yes"/>
      <point x="1427.05" y="719.053"/>
      <point x="1446.09" y="702.057"/>
    </contour>
    <contour>
      <point x="1207.91" y="775.987" type="curve" smooth="yes"/>
      <point x="1207.91" y="740.987"/>
      <point x="1190.07" y="722.944"/>
      <point x="1155.07" y="722.944" type="curve" smooth="yes"/>
      <point x="1120.07" y="722.944"/>
      <point x="1104.08" y="740.987" name=".hr02"/>
      <point x="1104.08" y="775.987" type="curve" smooth="yes"/>
      <point x="1104.08" y="810.987"/>
      <point x="1120.07" y="826.982"/>
      <point x="1155.07" y="826.982" type="curve" smooth="yes"/>
      <point x="1190.07" y="826.982"/>
      <point x="1207.91" y="810.987"/>
    </contour>
    <contour>
      <point x="1446.09" y="463.053" type="curve" smooth="yes"/>
      <point x="1446.09" y="428.053"/>
      <point x="1427.05" y="410.01"/>
      <point x="1393.05" y="410.01" type="curve" smooth="yes"/>
      <point x="1358.05" y="410.01"/>
      <point x="1341.03" y="428.053"/>
      <point x="1341.03" y="463.053" type="curve" smooth="yes"/>
      <point x="1341.03" y="498.053"/>
      <point x="1358.05" y="514.048"/>
      <point x="1393.05" y="514.048" type="curve" smooth="yes"/>
      <point x="1427.05" y="514.048"/>
      <point x="1446.09" y="498.053"/>
    </contour>
    <contour>
      <point x="1112.06" y="592.077" type="curve" smooth="yes"/>
      <point x="1112.06" y="557.077"/>
      <point x="1094.02" y="539.033"/>
      <point x="1059.02" y="539.033" type="curve" smooth="yes"/>
      <point x="1024.02" y="539.033"/>
      <point x="1008.03" y="557.077"/>
      <point x="1008.03" y="592.077" type="curve" smooth="yes"/>
      <point x="1008.03" y="627.077" name=".hr03"/>
      <point x="1024.02" y="643.072"/>
      <point x="1059.02" y="643.072" type="curve" smooth="yes"/>
      <point x="1094.02" y="643.072"/>
      <point x="1112.06" y="627.077"/>
    </contour>
    <contour>
      <point x="1446.09" y="258.048" type="curve" smooth="yes"/>
      <point x="1446.09" y="223.048"/>
      <point x="1427.05" y="205.005"/>
      <point x="1393.05" y="205.005" type="curve" smooth="yes"/>
      <point x="1358.05" y="205.005"/>
      <point x="1341.03" y="223.048"/>
      <point x="1341.03" y="258.048" type="curve" smooth="yes"/>
      <point x="1341.03" y="293.048"/>
      <point x="1358.05" y="309.043"/>
      <point x="1393.05" y="309.043" type="curve" smooth="yes"/>
      <point x="1427.05" y="309.043"/>
      <point x="1446.09" y="293.048"/>
    </contour>
    <contour>
      <point x="263.987" y="1275.9" type="curve" smooth="yes"/>
      <point x="263.987" y="1224.9"/>
      <point x="223.032" y="1183.95"/>
      <point x="172.032" y="1183.95" type="curve" smooth="yes"/>
      <point x="121.032" y="1183.95"/>
      <point x="80.0767" y="1224.9"/>
      <point x="80.0767" y="1275.9" type="curve" smooth="yes"/>
      <point x="80.0767" y="1326.9"/>
      <point x="121.032" y="1368.06"/>
      <point x="172.032" y="1368.06" type="curve" smooth="yes"/>
      <point x="223.032" y="1368.06"/>
      <point x="263.987" y="1326.9"/>
    </contour>
    <contour>
      <point x="1446.09" y="53.0433" type="curve" smooth="yes"/>
      <point x="1446.09" y="18.0433"/>
      <point x="1427.05" y="0"/>
      <point x="1393.05" y="0" type="curve" smooth="yes"/>
      <point x="1358.05" y="0"/>
      <point x="1341.03" y="18.0432"/>
      <point x="1341.03" y="53.0432" type="curve" smooth="yes"/>
      <point x="1341.03" y="88.0432"/>
      <point x="1358.05" y="104.038"/>
      <point x="1393.05" y="104.038" type="curve" smooth="yes"/>
      <point x="1427.05" y="104.038"/>
      <point x="1446.09" y="88.0432"/>
    </contour>
    <contour>
      <point x="1016.01" y="410.009" type="curve" smooth="yes"/>
      <point x="1016.01" y="375.009"/>
      <point x="996.97" y="355.942"/>
      <point x="962.97" y="355.942" type="curve" smooth="yes"/>
      <point x="927.97" y="355.942"/>
      <point x="910.951" y="375.009"/>
      <point x="910.951" y="410.009" type="curve" smooth="yes"/>
      <point x="910.951" y="444.009"/>
      <point x="927.97" y="461.005"/>
      <point x="962.97" y="461.005" type="curve" smooth="yes"/>
      <point x="996.97" y="461.005"/>
      <point x="1016.01" y="444.009"/>
    </contour>
    <contour>
      <point x="385.024" y="907.059" type="curve" smooth="yes"/>
      <point x="385.024" y="872.059" name=".hr04"/>
      <point x="366.981" y="854.016"/>
      <point x="331.981" y="854.016" type="curve" smooth="yes"/>
      <point x="296.981" y="854.016"/>
      <point x="280.985" y="872.059" name=".hr05"/>
      <point x="280.985" y="907.059" type="curve" smooth="yes"/>
      <point x="280.985" y="942.059"/>
      <point x="296.981" y="958.055"/>
      <point x="331.981" y="958.055" type="curve" smooth="yes"/>
      <point x="366.981" y="958.055"/>
      <point x="385.024" y="942.059"/>
    </contour>
    <contour>
      <point x="207.053" y="1077.04" type="curve" smooth="yes"/>
      <point x="207.053" y="1042.04"/>
      <point x="188.01" y="1024"/>
      <point x="154.01" y="1024" type="curve" smooth="yes"/>
      <point x="119.01" y="1024"/>
      <point x="101.991" y="1042.04"/>
      <point x="101.991" y="1077.04" type="curve" smooth="yes"/>
      <point x="101.991" y="1112.04"/>
      <point x="119.01" y="1128.04"/>
      <point x="154.01" y="1128.04" type="curve" smooth="yes"/>
      <point x="188.01" y="1128.04"/>
      <point x="207.053" y="1112.04"/>
    </contour>
    <contour>
      <point x="461.005" y="749.977" type="curve" smooth="yes"/>
      <point x="461.005" y="714.977"/>
      <point x="441.962" y="695.91"/>
      <point x="407.962" y="695.91" type="curve" smooth="yes"/>
      <point x="372.962" y="695.91"/>
      <point x="355.943" y="714.977"/>
      <point x="355.943" y="749.977" type="curve" smooth="yes"/>
      <point x="355.943" y="783.977"/>
      <point x="372.962" y="800.973"/>
      <point x="407.962" y="800.973" type="curve" smooth="yes"/>
      <point x="441.962" y="800.973"/>
      <point x="461.005" y="783.977"/>
    </contour>
    <contour>
      <point x="927.949" y="231.014" type="curve" smooth="yes"/>
      <point x="927.949" y="197.014"/>
      <point x="909.086" y="177.971"/>
      <point x="874.086" y="177.971" type="curve" smooth="yes"/>
      <point x="840.086" y="177.971"/>
      <point x="823.091" y="197.014"/>
      <point x="823.091" y="231.014" type="curve" smooth="yes"/>
      <point x="823.091" y="266.014" name=".hr06"/>
      <point x="840.086" y="283.033"/>
      <point x="874.086" y="283.033" type="curve" smooth="yes"/>
      <point x="909.086" y="283.033"/>
      <point x="927.949" y="266.014"/>
    </contour>
    <contour>
      <point x="544.973" y="579.994" type="curve" smooth="yes"/>
      <point x="544.973" y="544.994"/>
      <point x="525.93" y="525.927"/>
      <point x="491.93" y="525.927" type="curve" smooth="yes"/>
      <point x="456.93" y="525.927"/>
      <point x="439.911" y="544.994"/>
      <point x="439.911" y="579.994" type="curve" smooth="yes"/>
      <point x="439.911" y="613.994"/>
      <point x="456.93" y="630.989"/>
      <point x="491.93" y="630.989" type="curve" smooth="yes"/>
      <point x="525.93" y="630.989"/>
      <point x="544.973" y="613.994"/>
    </contour>
    <contour>
      <point x="207.053" y="872.039" type="curve" smooth="yes"/>
      <point x="207.053" y="838.039"/>
      <point x="188.01" y="818.995"/>
      <point x="154.01" y="818.995" type="curve" smooth="yes"/>
      <point x="119.01" y="818.995" name=".hr07"/>
      <point x="101.991" y="838.039"/>
      <point x="101.991" y="872.039" type="curve" smooth="yes"/>
      <point x="101.991" y="907.039"/>
      <point x="119.01" y="924.058"/>
      <point x="154.01" y="924.058" type="curve" smooth="yes"/>
      <point x="188.01" y="924.058"/>
      <point x="207.053" y="907.039" name=".hr08"/>
    </contour>
    <contour>
      <point x="628.941" y="405.914" type="curve" smooth="yes" name=".hr09"/>
      <point x="628.941" y="370.914"/>
      <point x="610.078" y="352.051"/>
      <point x="575.078" y="352.051" type="curve" smooth="yes" name=".hr10"/>
      <point x="541.078" y="352.051"/>
      <point x="524.083" y="370.914"/>
      <point x="524.083" y="405.914" type="curve" smooth="yes"/>
      <point x="524.083" y="439.914"/>
      <point x="541.078" y="456.909"/>
      <point x="575.078" y="456.909" type="curve" smooth="yes"/>
      <point x="610.078" y="456.909"/>
      <point x="628.941" y="439.914"/>
    </contour>
    <contour>
      <point x="721.101" y="220.979" type="curve" smooth="yes"/>
      <point x="721.101" y="185.979"/>
      <point x="702.058" y="167.936"/>
      <point x="668.058" y="167.936" type="curve" smooth="yes"/>
      <point x="633.058" y="167.936"/>
      <point x="616.039" y="185.979"/>
      <point x="616.039" y="220.979" type="curve" smooth="yes" name=".hr11"/>
      <point x="616.039" y="255.979"/>
      <point x="633.058" y="271.974"/>
      <point x="668.058" y="271.974" type="curve" smooth="yes"/>
      <point x="702.058" y="271.974"/>
      <point x="721.101" y="255.979"/>
    </contour>
    <contour>
      <point x="823.091" y="53.0433" type="curve" smooth="yes"/>
      <point x="823.091" y="18.0433"/>
      <point x="805.048" y="0"/>
      <point x="770.048" y="0" type="curve" smooth="yes"/>
      <point x="735.048" y="0"/>
      <point x="719.053" y="18.0432"/>
      <point x="719.053" y="53.0432" type="curve" smooth="yes"/>
      <point x="719.053" y="88.0432"/>
      <point x="735.048" y="104.038"/>
      <point x="770.048" y="104.038" type="curve" smooth="yes"/>
      <point x="805.048" y="104.038"/>
      <point x="823.091" y="88.0432"/>
    </contour>
    <contour>
      <point x="207.053" y="668.057" type="curve" smooth="yes" name=".hr12"/>
      <point x="207.053" y="633.057"/>
      <point x="188.01" y="613.99"/>
      <point x="154.01" y="613.99" type="curve" smooth="yes"/>
      <point x="119.01" y="613.99"/>
      <point x="101.991" y="633.057"/>
      <point x="101.991" y="668.057" type="curve" smooth="yes"/>
      <point x="101.991" y="702.057"/>
      <point x="119.01" y="719.053" name=".hr13"/>
      <point x="154.01" y="719.053" type="curve" smooth="yes"/>
      <point x="188.01" y="719.053"/>
      <point x="207.053" y="702.057"/>
    </contour>
    <contour>
      <point x="207.053" y="463.053" type="curve" smooth="yes"/>
      <point x="207.053" y="428.053"/>
      <point x="188.01" y="410.01"/>
      <point x="154.01" y="410.01" type="curve" smooth="yes"/>
      <point x="119.01" y="410.01"/>
      <point x="101.991" y="428.053"/>
      <point x="101.991" y="463.053" type="curve" smooth="yes"/>
      <point x="101.991" y="498.053"/>
      <point x="119.01" y="514.048"/>
      <point x="154.01" y="514.048" type="curve" smooth="yes"/>
      <point x="188.01" y="514.048"/>
      <point x="207.053" y="498.053"/>
    </contour>
    <contour>
      <point x="207.053" y="258.048" type="curve" smooth="yes"/>
      <point x="207.053" y="223.048"/>
      <point x="188.01" y="205.005"/>
      <point x="154.01" y="205.005" type="curve" smooth="yes"/>
      <point x="119.01" y="205.005"/>
      <point x="101.991" y="223.048"/>
      <point x="101.991" y="258.048" type="curve" smooth="yes"/>
      <point x="101.991" y="293.048"/>
      <point x="119.01" y="309.043"/>
      <point x="154.01" y="309.043" type="curve" smooth="yes"/>
      <point x="188.01" y="309.043"/>
      <point x="207.053" y="293.048"/>
    </contour>
    <contour>
      <point x="207.053" y="53.0433" type="curve" smooth="yes"/>
      <point x="207.053" y="18.0433"/>
      <point x="188.01" y="0"/>
      <point x="154.01" y="0" type="curve" smooth="yes"/>
      <point x="119.01" y="0"/>
      <point x="101.991" y="18.0432"/>
      <point x="101.991" y="53.0432" type="curve" smooth="yes"/>
      <point x="101.991" y="88.0432"/>
      <point x="119.01" y="104.038"/>
      <point x="154.01" y="104.038" type="curve" smooth="yes"/>
      <point x="188.01" y="104.038"/>
      <point x="207.053" y="88.0432"/>
    </contour>
    <contour>
      <point x="243.917" y="1275.9" type="curve" smooth="yes"/>
      <point x="243.917" y="1314.9"/>
      <point x="211.032" y="1347.99"/>
      <point x="172.032" y="1347.99" type="curve" smooth="yes"/>
      <point x="133.032" y="1347.99"/>
      <point x="99.9425" y="1314.9"/>
      <point x="99.9425" y="1275.9" type="curve" smooth="yes"/>
      <point x="99.9425" y="1236.9"/>
      <point x="133.032" y="1204.02"/>
      <point x="172.032" y="1204.02" type="curve" smooth="yes"/>
      <point x="211.032" y="1204.02"/>
      <point x="243.917" y="1236.9"/>
    </contour>
  </outline>
</glyph>
<glyph name="O" format="2">
  <advance width="1536"/>
  <unicode hex="004F"/>
  <outline>
    <contour>
      <point x="1292.08" y="1130.09" type="curve" smooth="yes"/>
      <point x="1292.08" y="1081.09"/>
      <point x="1250.92" y="1037.93"/>
      <point x="1199.92" y="1037.93" type="curve" smooth="yes"/>
      <point x="1150.92" y="1037.93"/>
      <point x="1107.97" y="1081.09"/>
      <point x="1107.97" y="1130.09" type="curve" smooth="yes"/>
      <point x="1107.97" y="1182.09"/>
      <point x="1150.92" y="1223.07"/>
      <point x="1199.92" y="1223.07" type="curve" smooth="yes"/>
      <point x="1250.92" y="1223.07"/>
      <point x="1292.08" y="1182.09"/>
    </contour>
    <contour>
      <point x="1384.04" y="967.065" type="curve" smooth="yes"/>
      <point x="1384.04" y="932.065"/>
      <point x="1366" y="912.998"/>
      <point x="1331" y="912.998" type="curve" smooth="yes"/>
      <point x="1296" y="912.998"/>
      <point x="1280" y="932.065"/>
      <point x="1280" y="967.065" type="curve" smooth="yes"/>
      <point x="1280" y="1001.07"/>
      <point x="1296" y="1018.06"/>
      <point x="1331" y="1018.06" type="curve" smooth="yes"/>
      <point x="1366" y="1018.06"/>
      <point x="1384.04" y="1001.07"/>
    </contour>
    <contour>
      <point x="1067.01" y="1236.99" type="curve" smooth="yes"/>
      <point x="1067.01" y="1201.99"/>
      <point x="1048.96" y="1186"/>
      <point x="1013.96" y="1186" type="curve" smooth="yes"/>
      <point x="978.965" y="1186"/>
      <point x="962.97" y="1201.99"/>
      <point x="962.97" y="1236.99" type="curve" smooth="yes"/>
      <point x="962.97" y="1271.99"/>
      <point x="978.965" y="1290.04"/>
      <point x="1013.96" y="1290.04" type="curve" smooth="yes"/>
      <point x="1048.96" y="1290.04" name=".hr01"/>
      <point x="1067.01" y="1271.99"/>
    </contour>
    <contour>
      <point x="1447.94" y="765.952" type="curve" smooth="yes"/>
      <point x="1447.94" y="730.952"/>
      <point x="1430.1" y="712.909"/>
      <point x="1395.1" y="712.909" type="curve" smooth="yes"/>
      <point x="1360.1" y="712.909"/>
      <point x="1343.08" y="730.952"/>
      <point x="1343.08" y="765.952" type="curve" smooth="yes"/>
      <point x="1343.08" y="800.952"/>
      <point x="1360.1" y="816.947"/>
      <point x="1395.1" y="816.947" type="curve" smooth="yes"/>
      <point x="1430.1" y="816.947"/>
      <point x="1447.94" y="800.952"/>
    </contour>
    <contour>
      <point x="821.043" y="1280" type="curve" smooth="yes"/>
      <point x="821.043" y="1245"/>
      <point x="803" y="1226.96"/>
      <point x="768" y="1226.96" type="curve" smooth="yes"/>
      <point x="733" y="1226.96"/>
      <point x="717.005" y="1245"/>
      <point x="717.005" y="1280" type="curve" smooth="yes" name=".hr02"/>
      <point x="717.005" y="1315"/>
      <point x="733" y="1331"/>
      <point x="768" y="1331" type="curve" smooth="yes" name=".hr03"/>
      <point x="803" y="1331"/>
      <point x="821.043" y="1315"/>
    </contour>
    <contour>
      <point x="1446.09" y="585.933" type="curve" smooth="yes" name=".hr04"/>
      <point x="1446.09" y="550.933"/>
      <point x="1427.05" y="532.07"/>
      <point x="1393.05" y="532.07" type="curve" smooth="yes" name=".hr05"/>
      <point x="1358.05" y="532.07"/>
      <point x="1341.03" y="550.933"/>
      <point x="1341.03" y="585.933" type="curve" smooth="yes"/>
      <point x="1341.03" y="620.933"/>
      <point x="1358.05" y="636.928"/>
      <point x="1393.05" y="636.928" type="curve" smooth="yes"/>
      <point x="1427.05" y="636.928"/>
      <point x="1446.09" y="620.933"/>
    </contour>
    <contour>
      <point x="606.003" y="1241.09" type="curve" smooth="yes"/>
      <point x="606.003" y="1206.09"/>
      <point x="590.008" y="1190.09"/>
      <point x="555.008" y="1190.09" type="curve" smooth="yes"/>
      <point x="520.008" y="1190.09"/>
      <point x="501.965" y="1206.09"/>
      <point x="501.965" y="1241.09" type="curve" smooth="yes"/>
      <point x="501.965" y="1276.09"/>
      <point x="520.008" y="1293.93"/>
      <point x="555.008" y="1293.93" type="curve" smooth="yes"/>
      <point x="590.008" y="1293.93"/>
      <point x="606.003" y="1276.09"/>
    </contour>
    <contour>
      <point x="1381.99" y="393.011" type="curve" smooth="yes"/>
      <point x="1381.99" y="358.011"/>
      <point x="1363.95" y="339.968"/>
      <point x="1328.95" y="339.968" type="curve" smooth="yes"/>
      <point x="1293.95" y="339.968"/>
      <point x="1277.95" y="358.011"/>
      <point x="1277.95" y="393.011" type="curve" smooth="yes"/>
      <point x="1277.95" y="428.011" name=".hr06"/>
      <point x="1293.95" y="444.007"/>
      <point x="1328.95" y="444.007" type="curve" smooth="yes"/>
      <point x="1363.95" y="444.007"/>
      <point x="1381.99" y="428.011"/>
    </contour>
    <contour>
      <point x="415.949" y="1135" type="curve" smooth="yes"/>
      <point x="415.949" y="1100"/>
      <point x="397.087" y="1080.93"/>
      <point x="362.087" y="1080.93" type="curve" smooth="yes"/>
      <point x="328.087" y="1080.93"/>
      <point x="311.091" y="1100"/>
      <point x="311.091" y="1135" type="curve" smooth="yes"/>
      <point x="311.091" y="1169"/>
      <point x="328.087" y="1186"/>
      <point x="362.087" y="1186" type="curve" smooth="yes"/>
      <point x="397.087" y="1186"/>
      <point x="415.949" y="1169"/>
    </contour>
    <contour>
      <point x="1259.93" y="225.075" type="curve" smooth="yes"/>
      <point x="1259.93" y="190.075"/>
      <point x="1241.07" y="172.032"/>
      <point x="1206.07" y="172.032" type="curve" smooth="yes"/>
      <point x="1171.07" y="172.032"/>
      <point x="1155.07" y="190.075"/>
      <point x="1155.07" y="225.075" type="curve" smooth="yes"/>
      <point x="1155.07" y="260.075"/>
      <point x="1171.07" y="276.071"/>
      <point x="1206.07" y="276.071" type="curve" smooth="yes"/>
      <point x="1241.07" y="276.071"/>
      <point x="1259.93" y="260.075"/>
    </contour>
    <contour>
      <point x="283.034" y="980.992" type="curve" smooth="yes"/>
      <point x="283.034" y="945.992"/>
      <point x="263.967" y="927.949"/>
      <point x="228.967" y="927.949" type="curve" smooth="yes"/>
      <point x="194.967" y="927.949"/>
      <point x="177.971" y="945.992"/>
      <point x="177.971" y="980.992" type="curve" smooth="yes"/>
      <point x="177.971" y="1015.99"/>
      <point x="194.967" y="1031.99"/>
      <point x="228.967" y="1031.99" type="curve" smooth="yes"/>
      <point x="263.967" y="1031.99"/>
      <point x="283.034" y="1015.99"/>
    </contour>
    <contour>
      <point x="1062.91" y="98.0993" type="curve" smooth="yes"/>
      <point x="1062.91" y="63.0993"/>
      <point x="1044.07" y="45.056"/>
      <point x="1010.07" y="45.056" type="curve" smooth="yes"/>
      <point x="975.073" y="45.056"/>
      <point x="958.054" y="63.0993"/>
      <point x="958.054" y="98.0993" type="curve" smooth="yes"/>
      <point x="958.054" y="133.099"/>
      <point x="975.073" y="149.914"/>
      <point x="1010.07" y="149.914" type="curve" smooth="yes"/>
      <point x="1044.07" y="149.914"/>
      <point x="1062.91" y="133.099"/>
    </contour>
    <contour>
      <point x="200.909" y="765.952" type="curve" smooth="yes"/>
      <point x="200.909" y="730.952"/>
      <point x="182.047" y="712.909"/>
      <point x="147.047" y="712.909" type="curve" smooth="yes"/>
      <point x="113.047" y="712.909"/>
      <point x="96.0513" y="730.952"/>
      <point x="96.0513" y="765.952" type="curve" smooth="yes"/>
      <point x="96.0513" y="800.952"/>
      <point x="113.047" y="816.947"/>
      <point x="147.047" y="816.947" type="curve" smooth="yes"/>
      <point x="182.047" y="816.947"/>
      <point x="200.909" y="800.952"/>
    </contour>
    <contour>
      <point x="838.042" y="53.0433" type="curve" smooth="yes"/>
      <point x="838.042" y="18.0433"/>
      <point x="818.975" y="0"/>
      <point x="783.975" y="0" type="curve" smooth="yes"/>
      <point x="749.975" y="0"/>
      <point x="732.979" y="18.0432"/>
      <point x="732.979" y="53.0432" type="curve" smooth="yes"/>
      <point x="732.979" y="88.0432"/>
      <point x="749.975" y="104.038"/>
      <point x="783.975" y="104.038" type="curve" smooth="yes"/>
      <point x="818.975" y="104.038"/>
      <point x="838.042" y="88.0432"/>
    </contour>
    <contour>
      <point x="197.018" y="565.043" type="curve" smooth="yes"/>
      <point x="197.018" y="530.043"/>
      <point x="177.951" y="512"/>
      <point x="142.951" y="512" type="curve" smooth="yes" name=".hr07"/>
      <point x="108.951" y="512"/>
      <point x="91.9553" y="530.043"/>
      <point x="91.9553" y="565.043" type="curve" smooth="yes"/>
      <point x="91.9553" y="600.043"/>
      <point x="108.951" y="616.038"/>
      <point x="142.951" y="616.038" type="curve" smooth="yes"/>
      <point x="177.951" y="616.038"/>
      <point x="197.018" y="600.043"/>
    </contour>
    <contour>
      <point x="620.953" y="83.968" type="curve" smooth="yes"/>
      <point x="620.953" y="48.968"/>
      <point x="602.091" y="30.9248"/>
      <point x="567.091" y="30.9248" type="curve" smooth="yes"/>
      <point x="532.091" y="30.9248"/>
      <point x="516.096" y="48.968"/>
      <point x="516.096" y="83.968" type="curve" smooth="yes"/>
      <point x="516.096" y="118.968" name=".hr08"/>
      <point x="532.091" y="134.963"/>
      <point x="567.091" y="134.963" type="curve" smooth="yes"/>
      <point x="602.091" y="134.963"/>
      <point x="620.953" y="118.968"/>
    </contour>
    <contour>
      <point x="260.096" y="354.099" type="curve" smooth="yes" name=".hr09"/>
      <point x="260.096" y="319.099"/>
      <point x="244.101" y="302.899"/>
      <point x="209.101" y="302.899" type="curve" smooth="yes"/>
      <point x="174.101" y="302.899"/>
      <point x="156.058" y="319.099"/>
      <point x="156.058" y="354.099" type="curve" smooth="yes"/>
      <point x="156.058" y="389.099"/>
      <point x="174.101" y="407.961"/>
      <point x="209.101" y="407.961" type="curve" smooth="yes"/>
      <point x="244.101" y="407.961"/>
      <point x="260.096" y="389.099"/>
    </contour>
    <contour>
      <point x="400.999" y="194.969" type="curve" smooth="yes"/>
      <point x="400.999" y="159.969"/>
      <point x="382.955" y="140.902"/>
      <point x="347.955" y="140.902" type="curve" smooth="yes"/>
      <point x="312.955" y="140.902" name=".hr10"/>
      <point x="296.96" y="159.969"/>
      <point x="296.96" y="194.969" type="curve" smooth="yes"/>
      <point x="296.96" y="228.969"/>
      <point x="312.955" y="245.965"/>
      <point x="347.955" y="245.965" type="curve" smooth="yes"/>
      <point x="382.955" y="245.965"/>
      <point x="400.999" y="228.969"/>
    </contour>
    <contour>
      <point x="1272.01" y="1130.09" type="curve" smooth="yes"/>
      <point x="1272.01" y="1171.09"/>
      <point x="1240.92" y="1201.97"/>
      <point x="1199.92" y="1201.97" type="curve" smooth="yes"/>
      <point x="1160.92" y="1201.97"/>
      <point x="1128.04" y="1171.09"/>
      <point x="1128.04" y="1130.09" type="curve" smooth="yes"/>
      <point x="1128.04" y="1092.09"/>
      <point x="1160.92" y="1059.02"/>
      <point x="1199.92" y="1059.02" type="curve" smooth="yes"/>
      <point x="1240.92" y="1059.02"/>
      <point x="1272.01" y="1092.09"/>
    </contour>
  </outline>
</glyph>
<glyph name="P" format="2">
  <advance width="1229"/>
  <unicode hex="0050"/>
  <outline>
    <contour>
      <point x="1021.95" y="1191.94" type="curve" smooth="yes"/>
      <point x="1021.95" y="1156.94"/>
      <point x="1003.91" y="1139.1"/>
      <point x="968.909" y="1139.1" type="curve" smooth="yes"/>
      <point x="933.909" y="1139.1"/>
      <point x="917.914" y="1156.94"/>
      <point x="917.914" y="1191.94" type="curve" smooth="yes"/>
      <point x="917.914" y="1226.94"/>
      <point x="933.909" y="1242.93"/>
      <point x="968.909" y="1242.93" type="curve" smooth="yes"/>
      <point x="1003.91" y="1242.93"/>
      <point x="1021.95" y="1226.94"/>
    </contour>
    <contour>
      <point x="813.056" y="1282.05" type="curve" smooth="yes"/>
      <point x="813.056" y="1247.05"/>
      <point x="795.013" y="1229"/>
      <point x="760.013" y="1229" type="curve" smooth="yes" name=".hr01"/>
      <point x="725.013" y="1229"/>
      <point x="709.018" y="1247.05"/>
      <point x="709.018" y="1282.05" type="curve" smooth="yes"/>
      <point x="709.018" y="1317.05"/>
      <point x="725.013" y="1333.04"/>
      <point x="760.013" y="1333.04" type="curve" smooth="yes"/>
      <point x="795.013" y="1333.04"/>
      <point x="813.056" y="1317.05"/>
    </contour>
    <contour>
      <point x="1089.95" y="986.931" type="curve" smooth="yes"/>
      <point x="1089.95" y="951.931"/>
      <point x="1071.08" y="934.093"/>
      <point x="1036.08" y="934.093" type="curve" smooth="yes"/>
      <point x="1001.08" y="934.093"/>
      <point x="985.088" y="951.931"/>
      <point x="985.088" y="986.931" type="curve" smooth="yes"/>
      <point x="985.088" y="1021.93"/>
      <point x="1001.08" y="1037.93"/>
      <point x="1036.08" y="1037.93" type="curve" smooth="yes"/>
      <point x="1071.08" y="1037.93"/>
      <point x="1089.95" y="1021.93"/>
    </contour>
    <contour>
      <point x="608.051" y="1282.05" type="curve" smooth="yes"/>
      <point x="608.051" y="1247.05"/>
      <point x="590.008" y="1229"/>
      <point x="555.008" y="1229" type="curve" smooth="yes"/>
      <point x="520.008" y="1229"/>
      <point x="504.013" y="1247.05"/>
      <point x="504.013" y="1282.05" type="curve" smooth="yes"/>
      <point x="504.013" y="1317.05"/>
      <point x="520.008" y="1333.04"/>
      <point x="555.008" y="1333.04" type="curve" smooth="yes"/>
      <point x="590.008" y="1333.04"/>
      <point x="608.051" y="1317.05"/>
    </contour>
    <contour>
      <point x="986.931" y="795.034" type="curve" smooth="yes"/>
      <point x="986.931" y="760.034"/>
      <point x="969.093" y="740.967"/>
      <point x="934.093" y="740.967" type="curve" smooth="yes"/>
      <point x="899.093" y="740.967" name=".hr02"/>
      <point x="883.098" y="760.034"/>
      <point x="883.098" y="795.034" type="curve" smooth="yes"/>
      <point x="883.098" y="829.034"/>
      <point x="899.093" y="846.029"/>
      <point x="934.093" y="846.029" type="curve" smooth="yes"/>
      <point x="969.093" y="846.029"/>
      <point x="986.931" y="829.034"/>
    </contour>
    <contour>
      <point x="403.047" y="1282.05" type="curve" smooth="yes"/>
      <point x="403.047" y="1247.05"/>
      <point x="385.003" y="1229"/>
      <point x="350.003" y="1229" type="curve" smooth="yes"/>
      <point x="315.003" y="1229"/>
      <point x="299.008" y="1247.05"/>
      <point x="299.008" y="1282.05" type="curve" smooth="yes"/>
      <point x="299.008" y="1317.05"/>
      <point x="315.003" y="1333.04"/>
      <point x="350.003" y="1333.04" type="curve" smooth="yes"/>
      <point x="385.003" y="1333.04"/>
      <point x="403.047" y="1317.05"/>
    </contour>
    <contour>
      <point x="773.939" y="735.027" type="curve" smooth="yes"/>
      <point x="773.939" y="700.027"/>
      <point x="756.101" y="681.984"/>
      <point x="721.101" y="681.984" type="curve" smooth="yes"/>
      <point x="686.101" y="681.984"/>
      <point x="669.901" y="700.027"/>
      <point x="669.901" y="735.027" type="curve" smooth="yes"/>
      <point x="669.901" y="770.027"/>
      <point x="686.101" y="786.022" name=".hr03"/>
      <point x="721.101" y="786.022" type="curve" smooth="yes"/>
      <point x="756.101" y="786.022"/>
      <point x="773.939" y="770.027"/>
    </contour>
    <contour>
      <point x="263.987" y="1275.9" type="curve" smooth="yes"/>
      <point x="263.987" y="1224.9"/>
      <point x="223.032" y="1183.95"/>
      <point x="172.032" y="1183.95" type="curve" smooth="yes"/>
      <point x="121.032" y="1183.95"/>
      <point x="80.0767" y="1224.9"/>
      <point x="80.0767" y="1275.9" type="curve" smooth="yes"/>
      <point x="80.0767" y="1326.9"/>
      <point x="121.032" y="1368.06"/>
      <point x="172.032" y="1368.06" type="curve" smooth="yes"/>
      <point x="223.032" y="1368.06"/>
      <point x="263.987" y="1326.9"/>
    </contour>
    <contour>
      <point x="568.935" y="735.027" type="curve" smooth="yes"/>
      <point x="568.935" y="700.027"/>
      <point x="551.096" y="681.984"/>
      <point x="516.096" y="681.984" type="curve" smooth="yes"/>
      <point x="481.096" y="681.984"/>
      <point x="465.101" y="700.027"/>
      <point x="465.101" y="735.027" type="curve" smooth="yes"/>
      <point x="465.101" y="770.027"/>
      <point x="481.096" y="786.022"/>
      <point x="516.096" y="786.022" type="curve" smooth="yes"/>
      <point x="551.096" y="786.022"/>
      <point x="568.935" y="770.027"/>
    </contour>
    <contour>
      <point x="207.053" y="1077.04" type="curve" smooth="yes"/>
      <point x="207.053" y="1042.04"/>
      <point x="188.01" y="1024"/>
      <point x="154.01" y="1024" type="curve" smooth="yes"/>
      <point x="119.01" y="1024"/>
      <point x="101.991" y="1042.04"/>
      <point x="101.991" y="1077.04" type="curve" smooth="yes"/>
      <point x="101.991" y="1112.04"/>
      <point x="119.01" y="1128.04"/>
      <point x="154.01" y="1128.04" type="curve" smooth="yes"/>
      <point x="188.01" y="1128.04"/>
      <point x="207.053" y="1112.04"/>
    </contour>
    <contour>
      <point x="364.953" y="735.027" type="curve" smooth="yes"/>
      <point x="364.953" y="700.027"/>
      <point x="346.091" y="681.984"/>
      <point x="311.091" y="681.984" type="curve" smooth="yes"/>
      <point x="276.091" y="681.984"/>
      <point x="260.096" y="700.027"/>
      <point x="260.096" y="735.027" type="curve" smooth="yes"/>
      <point x="260.096" y="770.027"/>
      <point x="276.091" y="786.022"/>
      <point x="311.091" y="786.022" type="curve" smooth="yes"/>
      <point x="346.091" y="786.022" name=".hr04"/>
      <point x="364.953" y="770.027"/>
    </contour>
    <contour>
      <point x="207.053" y="872.039" type="curve" smooth="yes"/>
      <point x="207.053" y="838.039"/>
      <point x="188.01" y="818.995"/>
      <point x="154.01" y="818.995" type="curve" smooth="yes"/>
      <point x="119.01" y="818.995"/>
      <point x="101.991" y="838.039"/>
      <point x="101.991" y="872.039" type="curve" smooth="yes"/>
      <point x="101.991" y="907.039"/>
      <point x="119.01" y="924.058"/>
      <point x="154.01" y="924.058" type="curve" smooth="yes"/>
      <point x="188.01" y="924.058"/>
      <point x="207.053" y="907.039"/>
    </contour>
    <contour>
      <point x="207.053" y="668.057" type="curve" smooth="yes"/>
      <point x="207.053" y="633.057"/>
      <point x="188.01" y="613.99"/>
      <point x="154.01" y="613.99" type="curve" smooth="yes"/>
      <point x="119.01" y="613.99"/>
      <point x="101.991" y="633.057"/>
      <point x="101.991" y="668.057" type="curve" smooth="yes"/>
      <point x="101.991" y="702.057"/>
      <point x="119.01" y="719.053"/>
      <point x="154.01" y="719.053" type="curve" smooth="yes"/>
      <point x="188.01" y="719.053"/>
      <point x="207.053" y="702.057"/>
    </contour>
    <contour>
      <point x="207.053" y="463.053" type="curve" smooth="yes"/>
      <point x="207.053" y="428.053"/>
      <point x="188.01" y="410.01" name=".hr05"/>
      <point x="154.01" y="410.01" type="curve" smooth="yes"/>
      <point x="119.01" y="410.01"/>
      <point x="101.991" y="428.053"/>
      <point x="101.991" y="463.053" type="curve" smooth="yes"/>
      <point x="101.991" y="498.053"/>
      <point x="119.01" y="514.048"/>
      <point x="154.01" y="514.048" type="curve" smooth="yes"/>
      <point x="188.01" y="514.048"/>
      <point x="207.053" y="498.053"/>
    </contour>
    <contour>
      <point x="207.053" y="258.048" type="curve" smooth="yes"/>
      <point x="207.053" y="223.048"/>
      <point x="188.01" y="205.005"/>
      <point x="154.01" y="205.005" type="curve" smooth="yes"/>
      <point x="119.01" y="205.005"/>
      <point x="101.991" y="223.048"/>
      <point x="101.991" y="258.048" type="curve" smooth="yes"/>
      <point x="101.991" y="293.048"/>
      <point x="119.01" y="309.043"/>
      <point x="154.01" y="309.043" type="curve" smooth="yes"/>
      <point x="188.01" y="309.043"/>
      <point x="207.053" y="293.048"/>
    </contour>
    <contour>
      <point x="207.053" y="53.0433" type="curve" smooth="yes"/>
      <point x="207.053" y="18.0433"/>
      <point x="188.01" y="0"/>
      <point x="154.01" y="0" type="curve" smooth="yes"/>
      <point x="119.01" y="0"/>
      <point x="101.991" y="18.0432"/>
      <point x="101.991" y="53.0432" type="curve" smooth="yes"/>
      <point x="101.991" y="88.0432"/>
      <point x="119.01" y="104.038"/>
      <point x="154.01" y="104.038" type="curve" smooth="yes"/>
      <point x="188.01" y="104.038"/>
      <point x="207.053" y="88.0432"/>
    </contour>
    <contour>
      <point x="243.917" y="1275.9" type="curve" smooth="yes"/>
      <point x="243.917" y="1314.9"/>
      <point x="211.032" y="1347.99"/>
      <point x="172.032" y="1347.99" type="curve" smooth="yes"/>
      <point x="133.032" y="1347.99"/>
      <point x="99.9425" y="1314.9"/>
      <point x="99.9425" y="1275.9" type="curve" smooth="yes"/>
      <point x="99.9425" y="1236.9"/>
      <point x="133.032" y="1204.02"/>
      <point x="172.032" y="1204.02" type="curve" smooth="yes"/>
      <point x="211.032" y="1204.02"/>
      <point x="243.917" y="1236.9"/>
    </contour>
  </outline>
</glyph>
